%TF.GenerationSoftware,KiCad,Pcbnew,5.99.0-unknown-20c1492~102~ubuntu18.04.1*%
%TF.CreationDate,2020-07-21T10:29:21+02:00*%
%TF.ProjectId,detect_current,64657465-6374-45f6-9375-7272656e742e,rev?*%
%TF.SameCoordinates,Original*%
%TF.FileFunction,Legend,Top*%
%TF.FilePolarity,Positive*%
%FSLAX46Y46*%
G04 Gerber Fmt 4.6, Leading zero omitted, Abs format (unit mm)*
G04 Created by KiCad (PCBNEW 5.99.0-unknown-20c1492~102~ubuntu18.04.1) date 2020-07-21 10:29:21*
%MOMM*%
%LPD*%
G01*
G04 APERTURE LIST*
%ADD10C,0.150000*%
%ADD11C,0.120000*%
G04 APERTURE END LIST*
D10*
X152360380Y-85407476D02*
X152360380Y-85883666D01*
X152836571Y-85931285D01*
X152788952Y-85883666D01*
X152741333Y-85788428D01*
X152741333Y-85550333D01*
X152788952Y-85455095D01*
X152836571Y-85407476D01*
X152931809Y-85359857D01*
X153169904Y-85359857D01*
X153265142Y-85407476D01*
X153312761Y-85455095D01*
X153360380Y-85550333D01*
X153360380Y-85788428D01*
X153312761Y-85883666D01*
X153265142Y-85931285D01*
X152360380Y-85074142D02*
X153360380Y-84740809D01*
X152360380Y-84407476D01*
X131643666Y-101607880D02*
X131643666Y-100607880D01*
X131881761Y-100607880D01*
X132024619Y-100655500D01*
X132119857Y-100750738D01*
X132167476Y-100845976D01*
X132215095Y-101036452D01*
X132215095Y-101179309D01*
X132167476Y-101369785D01*
X132119857Y-101465023D01*
X132024619Y-101560261D01*
X131881761Y-101607880D01*
X131643666Y-101607880D01*
X133024619Y-101560261D02*
X132929380Y-101607880D01*
X132738904Y-101607880D01*
X132643666Y-101560261D01*
X132596047Y-101465023D01*
X132596047Y-101084071D01*
X132643666Y-100988833D01*
X132738904Y-100941214D01*
X132929380Y-100941214D01*
X133024619Y-100988833D01*
X133072238Y-101084071D01*
X133072238Y-101179309D01*
X132596047Y-101274547D01*
X133357952Y-100941214D02*
X133738904Y-100941214D01*
X133500809Y-100607880D02*
X133500809Y-101465023D01*
X133548428Y-101560261D01*
X133643666Y-101607880D01*
X133738904Y-101607880D01*
X134453190Y-101560261D02*
X134357952Y-101607880D01*
X134167476Y-101607880D01*
X134072238Y-101560261D01*
X134024619Y-101465023D01*
X134024619Y-101084071D01*
X134072238Y-100988833D01*
X134167476Y-100941214D01*
X134357952Y-100941214D01*
X134453190Y-100988833D01*
X134500809Y-101084071D01*
X134500809Y-101179309D01*
X134024619Y-101274547D01*
X135357952Y-101560261D02*
X135262714Y-101607880D01*
X135072238Y-101607880D01*
X134977000Y-101560261D01*
X134929380Y-101512642D01*
X134881761Y-101417404D01*
X134881761Y-101131690D01*
X134929380Y-101036452D01*
X134977000Y-100988833D01*
X135072238Y-100941214D01*
X135262714Y-100941214D01*
X135357952Y-100988833D01*
X152979428Y-89026952D02*
X152979428Y-88265047D01*
X153042928Y-82359452D02*
X153042928Y-81597547D01*
X153423880Y-81978500D02*
X152661976Y-81978500D01*
%TO.C,RV1*%
X135345561Y-80309980D02*
X135012228Y-79833790D01*
X134774133Y-80309980D02*
X134774133Y-79309980D01*
X135155085Y-79309980D01*
X135250323Y-79357600D01*
X135297942Y-79405219D01*
X135345561Y-79500457D01*
X135345561Y-79643314D01*
X135297942Y-79738552D01*
X135250323Y-79786171D01*
X135155085Y-79833790D01*
X134774133Y-79833790D01*
X135631276Y-79309980D02*
X135964609Y-80309980D01*
X136297942Y-79309980D01*
X137155085Y-80309980D02*
X136583657Y-80309980D01*
X136869371Y-80309980D02*
X136869371Y-79309980D01*
X136774133Y-79452838D01*
X136678895Y-79548076D01*
X136583657Y-79595695D01*
%TO.C,R13*%
X121429542Y-93822780D02*
X121096209Y-93346590D01*
X120858114Y-93822780D02*
X120858114Y-92822780D01*
X121239066Y-92822780D01*
X121334304Y-92870400D01*
X121381923Y-92918019D01*
X121429542Y-93013257D01*
X121429542Y-93156114D01*
X121381923Y-93251352D01*
X121334304Y-93298971D01*
X121239066Y-93346590D01*
X120858114Y-93346590D01*
X122381923Y-93822780D02*
X121810495Y-93822780D01*
X122096209Y-93822780D02*
X122096209Y-92822780D01*
X122000971Y-92965638D01*
X121905733Y-93060876D01*
X121810495Y-93108495D01*
X122715257Y-92822780D02*
X123334304Y-92822780D01*
X123000971Y-93203733D01*
X123143828Y-93203733D01*
X123239066Y-93251352D01*
X123286685Y-93298971D01*
X123334304Y-93394209D01*
X123334304Y-93632304D01*
X123286685Y-93727542D01*
X123239066Y-93775161D01*
X123143828Y-93822780D01*
X122858114Y-93822780D01*
X122762876Y-93775161D01*
X122715257Y-93727542D01*
%TO.C,CT-ZHT103*%
X111456742Y-94025600D02*
X111504361Y-94073219D01*
X111551980Y-94216076D01*
X111551980Y-94311314D01*
X111504361Y-94454171D01*
X111409123Y-94549409D01*
X111313885Y-94597028D01*
X111123409Y-94644647D01*
X110980552Y-94644647D01*
X110790076Y-94597028D01*
X110694838Y-94549409D01*
X110599600Y-94454171D01*
X110551980Y-94311314D01*
X110551980Y-94216076D01*
X110599600Y-94073219D01*
X110647219Y-94025600D01*
X110551980Y-93739885D02*
X110551980Y-93168457D01*
X111551980Y-93454171D02*
X110551980Y-93454171D01*
X111171028Y-92835123D02*
X111171028Y-92073219D01*
X110551980Y-91692266D02*
X110551980Y-91025600D01*
X111551980Y-91692266D01*
X111551980Y-91025600D01*
X111551980Y-90644647D02*
X110551980Y-90644647D01*
X111028171Y-90644647D02*
X111028171Y-90073219D01*
X111551980Y-90073219D02*
X110551980Y-90073219D01*
X110551980Y-89739885D02*
X110551980Y-89168457D01*
X111551980Y-89454171D02*
X110551980Y-89454171D01*
X111551980Y-88311314D02*
X111551980Y-88882742D01*
X111551980Y-88597028D02*
X110551980Y-88597028D01*
X110694838Y-88692266D01*
X110790076Y-88787504D01*
X110837695Y-88882742D01*
X110551980Y-87692266D02*
X110551980Y-87597028D01*
X110599600Y-87501790D01*
X110647219Y-87454171D01*
X110742457Y-87406552D01*
X110932933Y-87358933D01*
X111171028Y-87358933D01*
X111361504Y-87406552D01*
X111456742Y-87454171D01*
X111504361Y-87501790D01*
X111551980Y-87597028D01*
X111551980Y-87692266D01*
X111504361Y-87787504D01*
X111456742Y-87835123D01*
X111361504Y-87882742D01*
X111171028Y-87930361D01*
X110932933Y-87930361D01*
X110742457Y-87882742D01*
X110647219Y-87835123D01*
X110599600Y-87787504D01*
X110551980Y-87692266D01*
X110551980Y-87025600D02*
X110551980Y-86406552D01*
X110932933Y-86739885D01*
X110932933Y-86597028D01*
X110980552Y-86501790D01*
X111028171Y-86454171D01*
X111123409Y-86406552D01*
X111361504Y-86406552D01*
X111456742Y-86454171D01*
X111504361Y-86501790D01*
X111551980Y-86597028D01*
X111551980Y-86882742D01*
X111504361Y-86977980D01*
X111456742Y-87025600D01*
%TO.C,D5*%
X121725404Y-87923380D02*
X121725404Y-86923380D01*
X121963500Y-86923380D01*
X122106357Y-86971000D01*
X122201595Y-87066238D01*
X122249214Y-87161476D01*
X122296833Y-87351952D01*
X122296833Y-87494809D01*
X122249214Y-87685285D01*
X122201595Y-87780523D01*
X122106357Y-87875761D01*
X121963500Y-87923380D01*
X121725404Y-87923380D01*
X123201595Y-86923380D02*
X122725404Y-86923380D01*
X122677785Y-87399571D01*
X122725404Y-87351952D01*
X122820642Y-87304333D01*
X123058738Y-87304333D01*
X123153976Y-87351952D01*
X123201595Y-87399571D01*
X123249214Y-87494809D01*
X123249214Y-87732904D01*
X123201595Y-87828142D01*
X123153976Y-87875761D01*
X123058738Y-87923380D01*
X122820642Y-87923380D01*
X122725404Y-87875761D01*
X122677785Y-87828142D01*
%TO.C,D4*%
X121717904Y-81510380D02*
X121717904Y-80510380D01*
X121956000Y-80510380D01*
X122098857Y-80558000D01*
X122194095Y-80653238D01*
X122241714Y-80748476D01*
X122289333Y-80938952D01*
X122289333Y-81081809D01*
X122241714Y-81272285D01*
X122194095Y-81367523D01*
X122098857Y-81462761D01*
X121956000Y-81510380D01*
X121717904Y-81510380D01*
X123146476Y-80843714D02*
X123146476Y-81510380D01*
X122908380Y-80462761D02*
X122670285Y-81177047D01*
X123289333Y-81177047D01*
%TO.C,D2*%
X118032304Y-98750380D02*
X118032304Y-97750380D01*
X118270400Y-97750380D01*
X118413257Y-97798000D01*
X118508495Y-97893238D01*
X118556114Y-97988476D01*
X118603733Y-98178952D01*
X118603733Y-98321809D01*
X118556114Y-98512285D01*
X118508495Y-98607523D01*
X118413257Y-98702761D01*
X118270400Y-98750380D01*
X118032304Y-98750380D01*
X118984685Y-97845619D02*
X119032304Y-97798000D01*
X119127542Y-97750380D01*
X119365638Y-97750380D01*
X119460876Y-97798000D01*
X119508495Y-97845619D01*
X119556114Y-97940857D01*
X119556114Y-98036095D01*
X119508495Y-98178952D01*
X118937066Y-98750380D01*
X119556114Y-98750380D01*
%TO.C,D1*%
X118133904Y-96261180D02*
X118133904Y-95261180D01*
X118372000Y-95261180D01*
X118514857Y-95308800D01*
X118610095Y-95404038D01*
X118657714Y-95499276D01*
X118705333Y-95689752D01*
X118705333Y-95832609D01*
X118657714Y-96023085D01*
X118610095Y-96118323D01*
X118514857Y-96213561D01*
X118372000Y-96261180D01*
X118133904Y-96261180D01*
X119657714Y-96261180D02*
X119086285Y-96261180D01*
X119372000Y-96261180D02*
X119372000Y-95261180D01*
X119276761Y-95404038D01*
X119181523Y-95499276D01*
X119086285Y-95546895D01*
%TO.C,C1*%
X122937542Y-90743066D02*
X122985161Y-90790685D01*
X123032780Y-90933542D01*
X123032780Y-91028780D01*
X122985161Y-91171638D01*
X122889923Y-91266876D01*
X122794685Y-91314495D01*
X122604209Y-91362114D01*
X122461352Y-91362114D01*
X122270876Y-91314495D01*
X122175638Y-91266876D01*
X122080400Y-91171638D01*
X122032780Y-91028780D01*
X122032780Y-90933542D01*
X122080400Y-90790685D01*
X122128019Y-90743066D01*
X123032780Y-89790685D02*
X123032780Y-90362114D01*
X123032780Y-90076400D02*
X122032780Y-90076400D01*
X122175638Y-90171638D01*
X122270876Y-90266876D01*
X122318495Y-90362114D01*
%TO.C,U1*%
X128968595Y-88098380D02*
X128968595Y-88907904D01*
X129016214Y-89003142D01*
X129063833Y-89050761D01*
X129159071Y-89098380D01*
X129349547Y-89098380D01*
X129444785Y-89050761D01*
X129492404Y-89003142D01*
X129540023Y-88907904D01*
X129540023Y-88098380D01*
X130540023Y-89098380D02*
X129968595Y-89098380D01*
X130254309Y-89098380D02*
X130254309Y-88098380D01*
X130159071Y-88241238D01*
X130063833Y-88336476D01*
X129968595Y-88384095D01*
%TO.C,R8*%
X136025833Y-96907880D02*
X135692500Y-96431690D01*
X135454404Y-96907880D02*
X135454404Y-95907880D01*
X135835357Y-95907880D01*
X135930595Y-95955500D01*
X135978214Y-96003119D01*
X136025833Y-96098357D01*
X136025833Y-96241214D01*
X135978214Y-96336452D01*
X135930595Y-96384071D01*
X135835357Y-96431690D01*
X135454404Y-96431690D01*
X136597261Y-96336452D02*
X136502023Y-96288833D01*
X136454404Y-96241214D01*
X136406785Y-96145976D01*
X136406785Y-96098357D01*
X136454404Y-96003119D01*
X136502023Y-95955500D01*
X136597261Y-95907880D01*
X136787738Y-95907880D01*
X136882976Y-95955500D01*
X136930595Y-96003119D01*
X136978214Y-96098357D01*
X136978214Y-96145976D01*
X136930595Y-96241214D01*
X136882976Y-96288833D01*
X136787738Y-96336452D01*
X136597261Y-96336452D01*
X136502023Y-96384071D01*
X136454404Y-96431690D01*
X136406785Y-96526928D01*
X136406785Y-96717404D01*
X136454404Y-96812642D01*
X136502023Y-96860261D01*
X136597261Y-96907880D01*
X136787738Y-96907880D01*
X136882976Y-96860261D01*
X136930595Y-96812642D01*
X136978214Y-96717404D01*
X136978214Y-96526928D01*
X136930595Y-96431690D01*
X136882976Y-96384071D01*
X136787738Y-96336452D01*
%TO.C,R10*%
X142692380Y-95321357D02*
X142216190Y-95654690D01*
X142692380Y-95892785D02*
X141692380Y-95892785D01*
X141692380Y-95511833D01*
X141740000Y-95416595D01*
X141787619Y-95368976D01*
X141882857Y-95321357D01*
X142025714Y-95321357D01*
X142120952Y-95368976D01*
X142168571Y-95416595D01*
X142216190Y-95511833D01*
X142216190Y-95892785D01*
X142692380Y-94368976D02*
X142692380Y-94940404D01*
X142692380Y-94654690D02*
X141692380Y-94654690D01*
X141835238Y-94749928D01*
X141930476Y-94845166D01*
X141978095Y-94940404D01*
X141692380Y-93749928D02*
X141692380Y-93654690D01*
X141740000Y-93559452D01*
X141787619Y-93511833D01*
X141882857Y-93464214D01*
X142073333Y-93416595D01*
X142311428Y-93416595D01*
X142501904Y-93464214D01*
X142597142Y-93511833D01*
X142644761Y-93559452D01*
X142692380Y-93654690D01*
X142692380Y-93749928D01*
X142644761Y-93845166D01*
X142597142Y-93892785D01*
X142501904Y-93940404D01*
X142311428Y-93988023D01*
X142073333Y-93988023D01*
X141882857Y-93940404D01*
X141787619Y-93892785D01*
X141740000Y-93845166D01*
X141692380Y-93749928D01*
%TO.C,R9*%
X141676380Y-91555866D02*
X141200190Y-91889200D01*
X141676380Y-92127295D02*
X140676380Y-92127295D01*
X140676380Y-91746342D01*
X140724000Y-91651104D01*
X140771619Y-91603485D01*
X140866857Y-91555866D01*
X141009714Y-91555866D01*
X141104952Y-91603485D01*
X141152571Y-91651104D01*
X141200190Y-91746342D01*
X141200190Y-92127295D01*
X141676380Y-91079676D02*
X141676380Y-90889200D01*
X141628761Y-90793961D01*
X141581142Y-90746342D01*
X141438285Y-90651104D01*
X141247809Y-90603485D01*
X140866857Y-90603485D01*
X140771619Y-90651104D01*
X140724000Y-90698723D01*
X140676380Y-90793961D01*
X140676380Y-90984438D01*
X140724000Y-91079676D01*
X140771619Y-91127295D01*
X140866857Y-91174914D01*
X141104952Y-91174914D01*
X141200190Y-91127295D01*
X141247809Y-91079676D01*
X141295428Y-90984438D01*
X141295428Y-90793961D01*
X141247809Y-90698723D01*
X141200190Y-90651104D01*
X141104952Y-90603485D01*
%TO.C,R6*%
X132014933Y-86151980D02*
X131681600Y-85675790D01*
X131443504Y-86151980D02*
X131443504Y-85151980D01*
X131824457Y-85151980D01*
X131919695Y-85199600D01*
X131967314Y-85247219D01*
X132014933Y-85342457D01*
X132014933Y-85485314D01*
X131967314Y-85580552D01*
X131919695Y-85628171D01*
X131824457Y-85675790D01*
X131443504Y-85675790D01*
X132872076Y-85151980D02*
X132681600Y-85151980D01*
X132586361Y-85199600D01*
X132538742Y-85247219D01*
X132443504Y-85390076D01*
X132395885Y-85580552D01*
X132395885Y-85961504D01*
X132443504Y-86056742D01*
X132491123Y-86104361D01*
X132586361Y-86151980D01*
X132776838Y-86151980D01*
X132872076Y-86104361D01*
X132919695Y-86056742D01*
X132967314Y-85961504D01*
X132967314Y-85723409D01*
X132919695Y-85628171D01*
X132872076Y-85580552D01*
X132776838Y-85532933D01*
X132586361Y-85532933D01*
X132491123Y-85580552D01*
X132443504Y-85628171D01*
X132395885Y-85723409D01*
%TO.C,R3*%
X143073380Y-88099166D02*
X142597190Y-88432500D01*
X143073380Y-88670595D02*
X142073380Y-88670595D01*
X142073380Y-88289642D01*
X142121000Y-88194404D01*
X142168619Y-88146785D01*
X142263857Y-88099166D01*
X142406714Y-88099166D01*
X142501952Y-88146785D01*
X142549571Y-88194404D01*
X142597190Y-88289642D01*
X142597190Y-88670595D01*
X142073380Y-87765833D02*
X142073380Y-87146785D01*
X142454333Y-87480119D01*
X142454333Y-87337261D01*
X142501952Y-87242023D01*
X142549571Y-87194404D01*
X142644809Y-87146785D01*
X142882904Y-87146785D01*
X142978142Y-87194404D01*
X143025761Y-87242023D01*
X143073380Y-87337261D01*
X143073380Y-87622976D01*
X143025761Y-87718214D01*
X142978142Y-87765833D01*
%TO.C,R5*%
X124991833Y-88209380D02*
X124658500Y-87733190D01*
X124420404Y-88209380D02*
X124420404Y-87209380D01*
X124801357Y-87209380D01*
X124896595Y-87257000D01*
X124944214Y-87304619D01*
X124991833Y-87399857D01*
X124991833Y-87542714D01*
X124944214Y-87637952D01*
X124896595Y-87685571D01*
X124801357Y-87733190D01*
X124420404Y-87733190D01*
X125896595Y-87209380D02*
X125420404Y-87209380D01*
X125372785Y-87685571D01*
X125420404Y-87637952D01*
X125515642Y-87590333D01*
X125753738Y-87590333D01*
X125848976Y-87637952D01*
X125896595Y-87685571D01*
X125944214Y-87780809D01*
X125944214Y-88018904D01*
X125896595Y-88114142D01*
X125848976Y-88161761D01*
X125753738Y-88209380D01*
X125515642Y-88209380D01*
X125420404Y-88161761D01*
X125372785Y-88114142D01*
%TO.C,R12*%
X119527580Y-91117657D02*
X119051390Y-91450990D01*
X119527580Y-91689085D02*
X118527580Y-91689085D01*
X118527580Y-91308133D01*
X118575200Y-91212895D01*
X118622819Y-91165276D01*
X118718057Y-91117657D01*
X118860914Y-91117657D01*
X118956152Y-91165276D01*
X119003771Y-91212895D01*
X119051390Y-91308133D01*
X119051390Y-91689085D01*
X119527580Y-90165276D02*
X119527580Y-90736704D01*
X119527580Y-90450990D02*
X118527580Y-90450990D01*
X118670438Y-90546228D01*
X118765676Y-90641466D01*
X118813295Y-90736704D01*
X118622819Y-89784323D02*
X118575200Y-89736704D01*
X118527580Y-89641466D01*
X118527580Y-89403371D01*
X118575200Y-89308133D01*
X118622819Y-89260514D01*
X118718057Y-89212895D01*
X118813295Y-89212895D01*
X118956152Y-89260514D01*
X119527580Y-89831942D01*
X119527580Y-89212895D01*
%TO.C,R7*%
X129246333Y-93670380D02*
X128913000Y-93194190D01*
X128674904Y-93670380D02*
X128674904Y-92670380D01*
X129055857Y-92670380D01*
X129151095Y-92718000D01*
X129198714Y-92765619D01*
X129246333Y-92860857D01*
X129246333Y-93003714D01*
X129198714Y-93098952D01*
X129151095Y-93146571D01*
X129055857Y-93194190D01*
X128674904Y-93194190D01*
X129579666Y-92670380D02*
X130246333Y-92670380D01*
X129817761Y-93670380D01*
%TO.C,R11*%
X131818142Y-96654880D02*
X131484809Y-96178690D01*
X131246714Y-96654880D02*
X131246714Y-95654880D01*
X131627666Y-95654880D01*
X131722904Y-95702500D01*
X131770523Y-95750119D01*
X131818142Y-95845357D01*
X131818142Y-95988214D01*
X131770523Y-96083452D01*
X131722904Y-96131071D01*
X131627666Y-96178690D01*
X131246714Y-96178690D01*
X132770523Y-96654880D02*
X132199095Y-96654880D01*
X132484809Y-96654880D02*
X132484809Y-95654880D01*
X132389571Y-95797738D01*
X132294333Y-95892976D01*
X132199095Y-95940595D01*
X133722904Y-96654880D02*
X133151476Y-96654880D01*
X133437190Y-96654880D02*
X133437190Y-95654880D01*
X133341952Y-95797738D01*
X133246714Y-95892976D01*
X133151476Y-95940595D01*
%TO.C,R2*%
X141857433Y-82113380D02*
X141524100Y-81637190D01*
X141286004Y-82113380D02*
X141286004Y-81113380D01*
X141666957Y-81113380D01*
X141762195Y-81161000D01*
X141809814Y-81208619D01*
X141857433Y-81303857D01*
X141857433Y-81446714D01*
X141809814Y-81541952D01*
X141762195Y-81589571D01*
X141666957Y-81637190D01*
X141286004Y-81637190D01*
X142238385Y-81208619D02*
X142286004Y-81161000D01*
X142381242Y-81113380D01*
X142619338Y-81113380D01*
X142714576Y-81161000D01*
X142762195Y-81208619D01*
X142809814Y-81303857D01*
X142809814Y-81399095D01*
X142762195Y-81541952D01*
X142190766Y-82113380D01*
X142809814Y-82113380D01*
%TO.C,R4*%
X136282133Y-86304380D02*
X135948800Y-85828190D01*
X135710704Y-86304380D02*
X135710704Y-85304380D01*
X136091657Y-85304380D01*
X136186895Y-85352000D01*
X136234514Y-85399619D01*
X136282133Y-85494857D01*
X136282133Y-85637714D01*
X136234514Y-85732952D01*
X136186895Y-85780571D01*
X136091657Y-85828190D01*
X135710704Y-85828190D01*
X137139276Y-85637714D02*
X137139276Y-86304380D01*
X136901180Y-85256761D02*
X136663085Y-85971047D01*
X137282133Y-85971047D01*
%TO.C,R1*%
X130135333Y-85948780D02*
X129802000Y-85472590D01*
X129563904Y-85948780D02*
X129563904Y-84948780D01*
X129944857Y-84948780D01*
X130040095Y-84996400D01*
X130087714Y-85044019D01*
X130135333Y-85139257D01*
X130135333Y-85282114D01*
X130087714Y-85377352D01*
X130040095Y-85424971D01*
X129944857Y-85472590D01*
X129563904Y-85472590D01*
X131087714Y-85948780D02*
X130516285Y-85948780D01*
X130802000Y-85948780D02*
X130802000Y-84948780D01*
X130706761Y-85091638D01*
X130611523Y-85186876D01*
X130516285Y-85234495D01*
%TO.C,Q1*%
X137318761Y-98718619D02*
X137223523Y-98671000D01*
X137128285Y-98575761D01*
X136985428Y-98432904D01*
X136890190Y-98385285D01*
X136794952Y-98385285D01*
X136842571Y-98623380D02*
X136747333Y-98575761D01*
X136652095Y-98480523D01*
X136604476Y-98290047D01*
X136604476Y-97956714D01*
X136652095Y-97766238D01*
X136747333Y-97671000D01*
X136842571Y-97623380D01*
X137033047Y-97623380D01*
X137128285Y-97671000D01*
X137223523Y-97766238D01*
X137271142Y-97956714D01*
X137271142Y-98290047D01*
X137223523Y-98480523D01*
X137128285Y-98575761D01*
X137033047Y-98623380D01*
X136842571Y-98623380D01*
X138223523Y-98623380D02*
X137652095Y-98623380D01*
X137937809Y-98623380D02*
X137937809Y-97623380D01*
X137842571Y-97766238D01*
X137747333Y-97861476D01*
X137652095Y-97909095D01*
%TO.C,J2*%
X141970166Y-101052380D02*
X141970166Y-101766666D01*
X141922547Y-101909523D01*
X141827309Y-102004761D01*
X141684452Y-102052380D01*
X141589214Y-102052380D01*
X142398738Y-101147619D02*
X142446357Y-101100000D01*
X142541595Y-101052380D01*
X142779690Y-101052380D01*
X142874928Y-101100000D01*
X142922547Y-101147619D01*
X142970166Y-101242857D01*
X142970166Y-101338095D01*
X142922547Y-101480952D01*
X142351119Y-102052380D01*
X142970166Y-102052380D01*
X152423880Y-97583833D02*
X152423880Y-97393357D01*
X152471500Y-97298119D01*
X152566738Y-97202880D01*
X152757214Y-97155261D01*
X153090547Y-97155261D01*
X153281023Y-97202880D01*
X153376261Y-97298119D01*
X153423880Y-97393357D01*
X153423880Y-97583833D01*
X153376261Y-97679071D01*
X153281023Y-97774309D01*
X153090547Y-97821928D01*
X152757214Y-97821928D01*
X152566738Y-97774309D01*
X152471500Y-97679071D01*
X152423880Y-97583833D01*
X152757214Y-96298119D02*
X153423880Y-96298119D01*
X152757214Y-96726690D02*
X153281023Y-96726690D01*
X153376261Y-96679071D01*
X153423880Y-96583833D01*
X153423880Y-96440976D01*
X153376261Y-96345738D01*
X153328642Y-96298119D01*
X152757214Y-95964785D02*
X152757214Y-95583833D01*
X152423880Y-95821928D02*
X153281023Y-95821928D01*
X153376261Y-95774309D01*
X153423880Y-95679071D01*
X153423880Y-95583833D01*
%TO.C,J1*%
X142033666Y-79017880D02*
X142033666Y-79732166D01*
X141986047Y-79875023D01*
X141890809Y-79970261D01*
X141747952Y-80017880D01*
X141652714Y-80017880D01*
X143033666Y-80017880D02*
X142462238Y-80017880D01*
X142747952Y-80017880D02*
X142747952Y-79017880D01*
X142652714Y-79160738D01*
X142557476Y-79255976D01*
X142462238Y-79303595D01*
X145216809Y-79763880D02*
X145216809Y-78763880D01*
X145597761Y-78763880D01*
X145693000Y-78811500D01*
X145740619Y-78859119D01*
X145788238Y-78954357D01*
X145788238Y-79097214D01*
X145740619Y-79192452D01*
X145693000Y-79240071D01*
X145597761Y-79287690D01*
X145216809Y-79287690D01*
X146359666Y-79763880D02*
X146264428Y-79716261D01*
X146216809Y-79668642D01*
X146169190Y-79573404D01*
X146169190Y-79287690D01*
X146216809Y-79192452D01*
X146264428Y-79144833D01*
X146359666Y-79097214D01*
X146502523Y-79097214D01*
X146597761Y-79144833D01*
X146645380Y-79192452D01*
X146693000Y-79287690D01*
X146693000Y-79573404D01*
X146645380Y-79668642D01*
X146597761Y-79716261D01*
X146502523Y-79763880D01*
X146359666Y-79763880D01*
X147026333Y-79097214D02*
X147216809Y-79763880D01*
X147407285Y-79287690D01*
X147597761Y-79763880D01*
X147788238Y-79097214D01*
X148550142Y-79716261D02*
X148454904Y-79763880D01*
X148264428Y-79763880D01*
X148169190Y-79716261D01*
X148121571Y-79621023D01*
X148121571Y-79240071D01*
X148169190Y-79144833D01*
X148264428Y-79097214D01*
X148454904Y-79097214D01*
X148550142Y-79144833D01*
X148597761Y-79240071D01*
X148597761Y-79335309D01*
X148121571Y-79430547D01*
X149026333Y-79763880D02*
X149026333Y-79097214D01*
X149026333Y-79287690D02*
X149073952Y-79192452D01*
X149121571Y-79144833D01*
X149216809Y-79097214D01*
X149312047Y-79097214D01*
%TO.C,D3*%
X130706904Y-98813880D02*
X130706904Y-97813880D01*
X130945000Y-97813880D01*
X131087857Y-97861500D01*
X131183095Y-97956738D01*
X131230714Y-98051976D01*
X131278333Y-98242452D01*
X131278333Y-98385309D01*
X131230714Y-98575785D01*
X131183095Y-98671023D01*
X131087857Y-98766261D01*
X130945000Y-98813880D01*
X130706904Y-98813880D01*
X131611666Y-97813880D02*
X132230714Y-97813880D01*
X131897380Y-98194833D01*
X132040238Y-98194833D01*
X132135476Y-98242452D01*
X132183095Y-98290071D01*
X132230714Y-98385309D01*
X132230714Y-98623404D01*
X132183095Y-98718642D01*
X132135476Y-98766261D01*
X132040238Y-98813880D01*
X131754523Y-98813880D01*
X131659285Y-98766261D01*
X131611666Y-98718642D01*
%TO.C,C2*%
X128712933Y-96927942D02*
X128665314Y-96975561D01*
X128522457Y-97023180D01*
X128427219Y-97023180D01*
X128284361Y-96975561D01*
X128189123Y-96880323D01*
X128141504Y-96785085D01*
X128093885Y-96594609D01*
X128093885Y-96451752D01*
X128141504Y-96261276D01*
X128189123Y-96166038D01*
X128284361Y-96070800D01*
X128427219Y-96023180D01*
X128522457Y-96023180D01*
X128665314Y-96070800D01*
X128712933Y-96118419D01*
X129093885Y-96118419D02*
X129141504Y-96070800D01*
X129236742Y-96023180D01*
X129474838Y-96023180D01*
X129570076Y-96070800D01*
X129617695Y-96118419D01*
X129665314Y-96213657D01*
X129665314Y-96308895D01*
X129617695Y-96451752D01*
X129046266Y-97023180D01*
X129665314Y-97023180D01*
%TO.C,C3*%
X138974533Y-86209142D02*
X138926914Y-86256761D01*
X138784057Y-86304380D01*
X138688819Y-86304380D01*
X138545961Y-86256761D01*
X138450723Y-86161523D01*
X138403104Y-86066285D01*
X138355485Y-85875809D01*
X138355485Y-85732952D01*
X138403104Y-85542476D01*
X138450723Y-85447238D01*
X138545961Y-85352000D01*
X138688819Y-85304380D01*
X138784057Y-85304380D01*
X138926914Y-85352000D01*
X138974533Y-85399619D01*
X139307866Y-85304380D02*
X139926914Y-85304380D01*
X139593580Y-85685333D01*
X139736438Y-85685333D01*
X139831676Y-85732952D01*
X139879295Y-85780571D01*
X139926914Y-85875809D01*
X139926914Y-86113904D01*
X139879295Y-86209142D01*
X139831676Y-86256761D01*
X139736438Y-86304380D01*
X139450723Y-86304380D01*
X139355485Y-86256761D01*
X139307866Y-86209142D01*
D11*
%TO.C,RV1*%
X140825800Y-80477200D02*
X140825800Y-85547200D01*
X131055800Y-80477200D02*
X131055800Y-85547200D01*
X131055800Y-85547200D02*
X140825800Y-85547200D01*
X131055800Y-80477200D02*
X140825800Y-80477200D01*
%TO.C,R13*%
X124899922Y-94055000D02*
X125417078Y-94055000D01*
X124899922Y-92635000D02*
X125417078Y-92635000D01*
%TO.C,CT-ZHT103*%
X114640707Y-85441000D02*
X114640707Y-85681000D01*
X114640707Y-95661000D02*
X114640707Y-95421000D01*
X112520707Y-85681000D02*
X112520707Y-95421000D01*
X116760707Y-85681000D02*
X112520707Y-85681000D01*
X116760707Y-95421000D02*
X116760707Y-85681000D01*
X112520707Y-95421000D02*
X116760707Y-95421000D01*
%TO.C,D5*%
X125013500Y-84471000D02*
X120713500Y-84471000D01*
X125013500Y-86471000D02*
X125013500Y-84471000D01*
X120713500Y-86471000D02*
X125013500Y-86471000D01*
%TO.C,D4*%
X119906000Y-84058000D02*
X124206000Y-84058000D01*
X119906000Y-82058000D02*
X119906000Y-84058000D01*
X124206000Y-82058000D02*
X119906000Y-82058000D01*
%TO.C,D2*%
X119906000Y-99298000D02*
X124206000Y-99298000D01*
X119906000Y-97298000D02*
X119906000Y-99298000D01*
X124206000Y-97298000D02*
X119906000Y-97298000D01*
%TO.C,D1*%
X125006000Y-94821500D02*
X120706000Y-94821500D01*
X125006000Y-96821500D02*
X125006000Y-94821500D01*
X120706000Y-96821500D02*
X125006000Y-96821500D01*
%TO.C,C1*%
X123220000Y-92061000D02*
X127430000Y-92061000D01*
X123220000Y-89041000D02*
X123220000Y-92061000D01*
X127430000Y-89041000D02*
X123220000Y-89041000D01*
%TO.C,U1*%
X134239000Y-93555500D02*
X137689000Y-93555500D01*
X134239000Y-93555500D02*
X132289000Y-93555500D01*
X134239000Y-88435500D02*
X136189000Y-88435500D01*
X134239000Y-88435500D02*
X132289000Y-88435500D01*
%TO.C,R8*%
X136451078Y-94095500D02*
X135933922Y-94095500D01*
X136451078Y-95515500D02*
X135933922Y-95515500D01*
%TO.C,R10*%
X139489922Y-95515500D02*
X140007078Y-95515500D01*
X139489922Y-94095500D02*
X140007078Y-94095500D01*
%TO.C,R9*%
X139902000Y-91683578D02*
X139902000Y-91166422D01*
X138482000Y-91683578D02*
X138482000Y-91166422D01*
%TO.C,R6*%
X131923022Y-87882800D02*
X132440178Y-87882800D01*
X131923022Y-86462800D02*
X132440178Y-86462800D01*
%TO.C,R3*%
X141997500Y-88191078D02*
X141997500Y-87673922D01*
X140577500Y-88191078D02*
X140577500Y-87673922D01*
%TO.C,R5*%
X127551922Y-88276500D02*
X128069078Y-88276500D01*
X127551922Y-86856500D02*
X128069078Y-86856500D01*
%TO.C,R12*%
X120003500Y-90243922D02*
X120003500Y-90761078D01*
X121423500Y-90243922D02*
X121423500Y-90761078D01*
%TO.C,R7*%
X128766500Y-90736922D02*
X128766500Y-91254078D01*
X130186500Y-90736922D02*
X130186500Y-91254078D01*
%TO.C,R11*%
X132314422Y-95515500D02*
X132831578Y-95515500D01*
X132314422Y-94095500D02*
X132831578Y-94095500D01*
%TO.C,R2*%
X141377600Y-83830422D02*
X141377600Y-84347578D01*
X142797600Y-83830422D02*
X142797600Y-84347578D01*
%TO.C,R4*%
X136707378Y-86462800D02*
X136190222Y-86462800D01*
X136707378Y-87882800D02*
X136190222Y-87882800D01*
%TO.C,R1*%
X128069078Y-84761000D02*
X127551922Y-84761000D01*
X128069078Y-86181000D02*
X127551922Y-86181000D01*
%TO.C,Q1*%
X141392000Y-96407000D02*
X138962000Y-96407000D01*
X141412000Y-96417000D02*
X141412000Y-97417000D01*
X141412000Y-99467000D02*
X139562000Y-99467000D01*
X141412000Y-98417000D02*
X141412000Y-99467000D01*
%TO.C,J2*%
X146956500Y-102660500D02*
X147256500Y-102060500D01*
X147556500Y-102660500D02*
X146956500Y-102660500D01*
X147256500Y-102060500D02*
X147556500Y-102660500D01*
X143446500Y-91640500D02*
X143446500Y-101860500D01*
X152166500Y-91640500D02*
X143446500Y-91640500D01*
X152166500Y-101860500D02*
X152166500Y-91640500D01*
X143446500Y-101860500D02*
X152166500Y-101860500D01*
%TO.C,J1*%
X146829500Y-90849500D02*
X147129500Y-90249500D01*
X147429500Y-90849500D02*
X146829500Y-90849500D01*
X147129500Y-90249500D02*
X147429500Y-90849500D01*
X143319500Y-79829500D02*
X143319500Y-90049500D01*
X152039500Y-79829500D02*
X143319500Y-79829500D01*
X152039500Y-90049500D02*
X152039500Y-79829500D01*
X143319500Y-90049500D02*
X152039500Y-90049500D01*
%TO.C,D3*%
X134500500Y-99983000D02*
X134500500Y-97298000D01*
X132580500Y-99983000D02*
X134500500Y-99983000D01*
X132580500Y-97298000D02*
X132580500Y-99983000D01*
%TO.C,C2*%
X128597922Y-95515500D02*
X129115078Y-95515500D01*
X128597922Y-94095500D02*
X129115078Y-94095500D01*
%TO.C,C3*%
X138482000Y-87640422D02*
X138482000Y-88157578D01*
X139902000Y-87640422D02*
X139902000Y-88157578D01*
%TD*%
M02*
