%TF.GenerationSoftware,KiCad,Pcbnew,5.99.0-unknown-20c1492~102~ubuntu18.04.1*%
%TF.CreationDate,2020-07-21T10:29:21+02:00*%
%TF.ProjectId,detect_current,64657465-6374-45f6-9375-7272656e742e,rev?*%
%TF.SameCoordinates,Original*%
%TF.FileFunction,Copper,L1,Top*%
%TF.FilePolarity,Positive*%
%FSLAX46Y46*%
G04 Gerber Fmt 4.6, Leading zero omitted, Abs format (unit mm)*
G04 Created by KiCad (PCBNEW 5.99.0-unknown-20c1492~102~ubuntu18.04.1) date 2020-07-21 10:29:21*
%MOMM*%
%LPD*%
G01*
G04 APERTURE LIST*
%TA.AperFunction,ComponentPad*%
%ADD10C,1.440000*%
%TD*%
%TA.AperFunction,ComponentPad*%
%ADD11O,2.000000X2.000000*%
%TD*%
%TA.AperFunction,ComponentPad*%
%ADD12C,2.000000*%
%TD*%
%TA.AperFunction,SMDPad,CuDef*%
%ADD13R,1.300000X1.700000*%
%TD*%
%TA.AperFunction,SMDPad,CuDef*%
%ADD14R,1.220000X0.650000*%
%TD*%
%TA.AperFunction,ComponentPad*%
%ADD15C,2.700000*%
%TD*%
%TA.AperFunction,ViaPad*%
%ADD16C,0.800000*%
%TD*%
%TA.AperFunction,Conductor*%
%ADD17C,0.500000*%
%TD*%
%TA.AperFunction,Conductor*%
%ADD18C,0.250000*%
%TD*%
%TA.AperFunction,Conductor*%
%ADD19C,0.254000*%
%TD*%
G04 APERTURE END LIST*
D10*
%TO.P,RV1,3,3*%
%TO.N,GND*%
X133400800Y-81737200D03*
%TO.P,RV1,2,2*%
%TO.N,Net-(RV1-Pad2)*%
X135940800Y-84277200D03*
%TO.P,RV1,1,1*%
%TO.N,Net-(R4-Pad2)*%
X138480800Y-81737200D03*
%TD*%
%TO.P,R13,2*%
%TO.N,GND*%
%TA.AperFunction,SMDPad,CuDef*%
G36*
G01*
X125608500Y-93801250D02*
X125608500Y-92888750D01*
G75*
G02*
X125852250Y-92645000I243750J0D01*
G01*
X126339750Y-92645000D01*
G75*
G02*
X126583500Y-92888750I0J-243750D01*
G01*
X126583500Y-93801250D01*
G75*
G02*
X126339750Y-94045000I-243750J0D01*
G01*
X125852250Y-94045000D01*
G75*
G02*
X125608500Y-93801250I0J243750D01*
G01*
G37*
%TD.AperFunction*%
%TO.P,R13,1*%
%TO.N,Net-(C1-Pad1)*%
%TA.AperFunction,SMDPad,CuDef*%
G36*
G01*
X123733500Y-93801250D02*
X123733500Y-92888750D01*
G75*
G02*
X123977250Y-92645000I243750J0D01*
G01*
X124464750Y-92645000D01*
G75*
G02*
X124708500Y-92888750I0J-243750D01*
G01*
X124708500Y-93801250D01*
G75*
G02*
X124464750Y-94045000I-243750J0D01*
G01*
X123977250Y-94045000D01*
G75*
G02*
X123733500Y-93801250I0J243750D01*
G01*
G37*
%TD.AperFunction*%
%TD*%
D11*
%TO.P,CT-ZHT103,2,2*%
%TO.N,Net-(CT-ZHT103-Pad2)*%
X114640707Y-84201000D03*
D12*
%TO.P,CT-ZHT103,1,1*%
%TO.N,Net-(CT-ZHT103-Pad1)*%
X114640707Y-96901000D03*
%TD*%
D13*
%TO.P,D5,2,A*%
%TO.N,Net-(CT-ZHT103-Pad2)*%
X120713500Y-85471000D03*
%TO.P,D5,1,K*%
%TO.N,Net-(C1-Pad1)*%
X124213500Y-85471000D03*
%TD*%
%TO.P,D4,2,A*%
%TO.N,GND*%
X124206000Y-83058000D03*
%TO.P,D4,1,K*%
%TO.N,Net-(CT-ZHT103-Pad2)*%
X120706000Y-83058000D03*
%TD*%
%TO.P,D2,2,A*%
%TO.N,GND*%
X124206000Y-98298000D03*
%TO.P,D2,1,K*%
%TO.N,Net-(CT-ZHT103-Pad1)*%
X120706000Y-98298000D03*
%TD*%
%TO.P,D1,2,A*%
%TO.N,Net-(CT-ZHT103-Pad1)*%
X120706000Y-95821500D03*
%TO.P,D1,1,K*%
%TO.N,Net-(C1-Pad1)*%
X124206000Y-95821500D03*
%TD*%
%TO.P,C1,2*%
%TO.N,GND*%
%TA.AperFunction,SMDPad,CuDef*%
G36*
G01*
X126555000Y-91476002D02*
X126555000Y-89625998D01*
G75*
G02*
X126804998Y-89376000I249998J0D01*
G01*
X127630002Y-89376000D01*
G75*
G02*
X127880000Y-89625998I0J-249998D01*
G01*
X127880000Y-91476002D01*
G75*
G02*
X127630002Y-91726000I-249998J0D01*
G01*
X126804998Y-91726000D01*
G75*
G02*
X126555000Y-91476002I0J249998D01*
G01*
G37*
%TD.AperFunction*%
%TO.P,C1,1*%
%TO.N,Net-(C1-Pad1)*%
%TA.AperFunction,SMDPad,CuDef*%
G36*
G01*
X123480000Y-91476002D02*
X123480000Y-89625998D01*
G75*
G02*
X123729998Y-89376000I249998J0D01*
G01*
X124555002Y-89376000D01*
G75*
G02*
X124805000Y-89625998I0J-249998D01*
G01*
X124805000Y-91476002D01*
G75*
G02*
X124555002Y-91726000I-249998J0D01*
G01*
X123729998Y-91726000D01*
G75*
G02*
X123480000Y-91476002I0J249998D01*
G01*
G37*
%TD.AperFunction*%
%TD*%
%TO.P,U1,8,V+*%
%TO.N,+5V*%
%TA.AperFunction,SMDPad,CuDef*%
G36*
G01*
X132439000Y-92750500D02*
X132439000Y-93050500D01*
G75*
G02*
X132289000Y-93200500I-150000J0D01*
G01*
X130939000Y-93200500D01*
G75*
G02*
X130789000Y-93050500I0J150000D01*
G01*
X130789000Y-92750500D01*
G75*
G02*
X130939000Y-92600500I150000J0D01*
G01*
X132289000Y-92600500D01*
G75*
G02*
X132439000Y-92750500I0J-150000D01*
G01*
G37*
%TD.AperFunction*%
%TO.P,U1,7*%
%TO.N,Net-(R7-Pad2)*%
%TA.AperFunction,SMDPad,CuDef*%
G36*
G01*
X132439000Y-91480500D02*
X132439000Y-91780500D01*
G75*
G02*
X132289000Y-91930500I-150000J0D01*
G01*
X130939000Y-91930500D01*
G75*
G02*
X130789000Y-91780500I0J150000D01*
G01*
X130789000Y-91480500D01*
G75*
G02*
X130939000Y-91330500I150000J0D01*
G01*
X132289000Y-91330500D01*
G75*
G02*
X132439000Y-91480500I0J-150000D01*
G01*
G37*
%TD.AperFunction*%
%TO.P,U1,6,-*%
%TO.N,Net-(R6-Pad2)*%
%TA.AperFunction,SMDPad,CuDef*%
G36*
G01*
X132439000Y-90210500D02*
X132439000Y-90510500D01*
G75*
G02*
X132289000Y-90660500I-150000J0D01*
G01*
X130939000Y-90660500D01*
G75*
G02*
X130789000Y-90510500I0J150000D01*
G01*
X130789000Y-90210500D01*
G75*
G02*
X130939000Y-90060500I150000J0D01*
G01*
X132289000Y-90060500D01*
G75*
G02*
X132439000Y-90210500I0J-150000D01*
G01*
G37*
%TD.AperFunction*%
%TO.P,U1,5,+*%
%TO.N,Net-(R1-Pad1)*%
%TA.AperFunction,SMDPad,CuDef*%
G36*
G01*
X132439000Y-88940500D02*
X132439000Y-89240500D01*
G75*
G02*
X132289000Y-89390500I-150000J0D01*
G01*
X130939000Y-89390500D01*
G75*
G02*
X130789000Y-89240500I0J150000D01*
G01*
X130789000Y-88940500D01*
G75*
G02*
X130939000Y-88790500I150000J0D01*
G01*
X132289000Y-88790500D01*
G75*
G02*
X132439000Y-88940500I0J-150000D01*
G01*
G37*
%TD.AperFunction*%
%TO.P,U1,4,V-*%
%TO.N,GND*%
%TA.AperFunction,SMDPad,CuDef*%
G36*
G01*
X137689000Y-88940500D02*
X137689000Y-89240500D01*
G75*
G02*
X137539000Y-89390500I-150000J0D01*
G01*
X136189000Y-89390500D01*
G75*
G02*
X136039000Y-89240500I0J150000D01*
G01*
X136039000Y-88940500D01*
G75*
G02*
X136189000Y-88790500I150000J0D01*
G01*
X137539000Y-88790500D01*
G75*
G02*
X137689000Y-88940500I0J-150000D01*
G01*
G37*
%TD.AperFunction*%
%TO.P,U1,3,+*%
%TO.N,Net-(R9-Pad2)*%
%TA.AperFunction,SMDPad,CuDef*%
G36*
G01*
X137689000Y-90210500D02*
X137689000Y-90510500D01*
G75*
G02*
X137539000Y-90660500I-150000J0D01*
G01*
X136189000Y-90660500D01*
G75*
G02*
X136039000Y-90510500I0J150000D01*
G01*
X136039000Y-90210500D01*
G75*
G02*
X136189000Y-90060500I150000J0D01*
G01*
X137539000Y-90060500D01*
G75*
G02*
X137689000Y-90210500I0J-150000D01*
G01*
G37*
%TD.AperFunction*%
%TO.P,U1,2,-*%
%TO.N,Net-(RV1-Pad2)*%
%TA.AperFunction,SMDPad,CuDef*%
G36*
G01*
X137689000Y-91480500D02*
X137689000Y-91780500D01*
G75*
G02*
X137539000Y-91930500I-150000J0D01*
G01*
X136189000Y-91930500D01*
G75*
G02*
X136039000Y-91780500I0J150000D01*
G01*
X136039000Y-91480500D01*
G75*
G02*
X136189000Y-91330500I150000J0D01*
G01*
X137539000Y-91330500D01*
G75*
G02*
X137689000Y-91480500I0J-150000D01*
G01*
G37*
%TD.AperFunction*%
%TO.P,U1,1*%
%TO.N,Net-(R10-Pad1)*%
%TA.AperFunction,SMDPad,CuDef*%
G36*
G01*
X137689000Y-92750500D02*
X137689000Y-93050500D01*
G75*
G02*
X137539000Y-93200500I-150000J0D01*
G01*
X136189000Y-93200500D01*
G75*
G02*
X136039000Y-93050500I0J150000D01*
G01*
X136039000Y-92750500D01*
G75*
G02*
X136189000Y-92600500I150000J0D01*
G01*
X137539000Y-92600500D01*
G75*
G02*
X137689000Y-92750500I0J-150000D01*
G01*
G37*
%TD.AperFunction*%
%TD*%
%TO.P,R8,2*%
%TO.N,GND*%
%TA.AperFunction,SMDPad,CuDef*%
G36*
G01*
X135742500Y-94349250D02*
X135742500Y-95261750D01*
G75*
G02*
X135498750Y-95505500I-243750J0D01*
G01*
X135011250Y-95505500D01*
G75*
G02*
X134767500Y-95261750I0J243750D01*
G01*
X134767500Y-94349250D01*
G75*
G02*
X135011250Y-94105500I243750J0D01*
G01*
X135498750Y-94105500D01*
G75*
G02*
X135742500Y-94349250I0J-243750D01*
G01*
G37*
%TD.AperFunction*%
%TO.P,R8,1*%
%TO.N,Net-(R10-Pad1)*%
%TA.AperFunction,SMDPad,CuDef*%
G36*
G01*
X137617500Y-94349250D02*
X137617500Y-95261750D01*
G75*
G02*
X137373750Y-95505500I-243750J0D01*
G01*
X136886250Y-95505500D01*
G75*
G02*
X136642500Y-95261750I0J243750D01*
G01*
X136642500Y-94349250D01*
G75*
G02*
X136886250Y-94105500I243750J0D01*
G01*
X137373750Y-94105500D01*
G75*
G02*
X137617500Y-94349250I0J-243750D01*
G01*
G37*
%TD.AperFunction*%
%TD*%
%TO.P,R10,2*%
%TO.N,Net-(Q1-Pad1)*%
%TA.AperFunction,SMDPad,CuDef*%
G36*
G01*
X140198500Y-95261750D02*
X140198500Y-94349250D01*
G75*
G02*
X140442250Y-94105500I243750J0D01*
G01*
X140929750Y-94105500D01*
G75*
G02*
X141173500Y-94349250I0J-243750D01*
G01*
X141173500Y-95261750D01*
G75*
G02*
X140929750Y-95505500I-243750J0D01*
G01*
X140442250Y-95505500D01*
G75*
G02*
X140198500Y-95261750I0J243750D01*
G01*
G37*
%TD.AperFunction*%
%TO.P,R10,1*%
%TO.N,Net-(R10-Pad1)*%
%TA.AperFunction,SMDPad,CuDef*%
G36*
G01*
X138323500Y-95261750D02*
X138323500Y-94349250D01*
G75*
G02*
X138567250Y-94105500I243750J0D01*
G01*
X139054750Y-94105500D01*
G75*
G02*
X139298500Y-94349250I0J-243750D01*
G01*
X139298500Y-95261750D01*
G75*
G02*
X139054750Y-95505500I-243750J0D01*
G01*
X138567250Y-95505500D01*
G75*
G02*
X138323500Y-95261750I0J243750D01*
G01*
G37*
%TD.AperFunction*%
%TD*%
%TO.P,R9,2*%
%TO.N,Net-(R9-Pad2)*%
%TA.AperFunction,SMDPad,CuDef*%
G36*
G01*
X139648250Y-90975000D02*
X138735750Y-90975000D01*
G75*
G02*
X138492000Y-90731250I0J243750D01*
G01*
X138492000Y-90243750D01*
G75*
G02*
X138735750Y-90000000I243750J0D01*
G01*
X139648250Y-90000000D01*
G75*
G02*
X139892000Y-90243750I0J-243750D01*
G01*
X139892000Y-90731250D01*
G75*
G02*
X139648250Y-90975000I-243750J0D01*
G01*
G37*
%TD.AperFunction*%
%TO.P,R9,1*%
%TO.N,Net-(R7-Pad2)*%
%TA.AperFunction,SMDPad,CuDef*%
G36*
G01*
X139648250Y-92850000D02*
X138735750Y-92850000D01*
G75*
G02*
X138492000Y-92606250I0J243750D01*
G01*
X138492000Y-92118750D01*
G75*
G02*
X138735750Y-91875000I243750J0D01*
G01*
X139648250Y-91875000D01*
G75*
G02*
X139892000Y-92118750I0J-243750D01*
G01*
X139892000Y-92606250D01*
G75*
G02*
X139648250Y-92850000I-243750J0D01*
G01*
G37*
%TD.AperFunction*%
%TD*%
%TO.P,R6,2*%
%TO.N,Net-(R6-Pad2)*%
%TA.AperFunction,SMDPad,CuDef*%
G36*
G01*
X132631600Y-87629050D02*
X132631600Y-86716550D01*
G75*
G02*
X132875350Y-86472800I243750J0D01*
G01*
X133362850Y-86472800D01*
G75*
G02*
X133606600Y-86716550I0J-243750D01*
G01*
X133606600Y-87629050D01*
G75*
G02*
X133362850Y-87872800I-243750J0D01*
G01*
X132875350Y-87872800D01*
G75*
G02*
X132631600Y-87629050I0J243750D01*
G01*
G37*
%TD.AperFunction*%
%TO.P,R6,1*%
%TO.N,GND*%
%TA.AperFunction,SMDPad,CuDef*%
G36*
G01*
X130756600Y-87629050D02*
X130756600Y-86716550D01*
G75*
G02*
X131000350Y-86472800I243750J0D01*
G01*
X131487850Y-86472800D01*
G75*
G02*
X131731600Y-86716550I0J-243750D01*
G01*
X131731600Y-87629050D01*
G75*
G02*
X131487850Y-87872800I-243750J0D01*
G01*
X131000350Y-87872800D01*
G75*
G02*
X130756600Y-87629050I0J243750D01*
G01*
G37*
%TD.AperFunction*%
%TD*%
%TO.P,R3,2*%
%TO.N,Net-(C3-Pad1)*%
%TA.AperFunction,SMDPad,CuDef*%
G36*
G01*
X141743750Y-87482500D02*
X140831250Y-87482500D01*
G75*
G02*
X140587500Y-87238750I0J243750D01*
G01*
X140587500Y-86751250D01*
G75*
G02*
X140831250Y-86507500I243750J0D01*
G01*
X141743750Y-86507500D01*
G75*
G02*
X141987500Y-86751250I0J-243750D01*
G01*
X141987500Y-87238750D01*
G75*
G02*
X141743750Y-87482500I-243750J0D01*
G01*
G37*
%TD.AperFunction*%
%TO.P,R3,1*%
%TO.N,GND*%
%TA.AperFunction,SMDPad,CuDef*%
G36*
G01*
X141743750Y-89357500D02*
X140831250Y-89357500D01*
G75*
G02*
X140587500Y-89113750I0J243750D01*
G01*
X140587500Y-88626250D01*
G75*
G02*
X140831250Y-88382500I243750J0D01*
G01*
X141743750Y-88382500D01*
G75*
G02*
X141987500Y-88626250I0J-243750D01*
G01*
X141987500Y-89113750D01*
G75*
G02*
X141743750Y-89357500I-243750J0D01*
G01*
G37*
%TD.AperFunction*%
%TD*%
%TO.P,R5,2*%
%TO.N,Net-(R1-Pad1)*%
%TA.AperFunction,SMDPad,CuDef*%
G36*
G01*
X128260500Y-88022750D02*
X128260500Y-87110250D01*
G75*
G02*
X128504250Y-86866500I243750J0D01*
G01*
X128991750Y-86866500D01*
G75*
G02*
X129235500Y-87110250I0J-243750D01*
G01*
X129235500Y-88022750D01*
G75*
G02*
X128991750Y-88266500I-243750J0D01*
G01*
X128504250Y-88266500D01*
G75*
G02*
X128260500Y-88022750I0J243750D01*
G01*
G37*
%TD.AperFunction*%
%TO.P,R5,1*%
%TO.N,GND*%
%TA.AperFunction,SMDPad,CuDef*%
G36*
G01*
X126385500Y-88022750D02*
X126385500Y-87110250D01*
G75*
G02*
X126629250Y-86866500I243750J0D01*
G01*
X127116750Y-86866500D01*
G75*
G02*
X127360500Y-87110250I0J-243750D01*
G01*
X127360500Y-88022750D01*
G75*
G02*
X127116750Y-88266500I-243750J0D01*
G01*
X126629250Y-88266500D01*
G75*
G02*
X126385500Y-88022750I0J243750D01*
G01*
G37*
%TD.AperFunction*%
%TD*%
%TO.P,R12,2*%
%TO.N,Net-(CT-ZHT103-Pad1)*%
%TA.AperFunction,SMDPad,CuDef*%
G36*
G01*
X120257250Y-90952500D02*
X121169750Y-90952500D01*
G75*
G02*
X121413500Y-91196250I0J-243750D01*
G01*
X121413500Y-91683750D01*
G75*
G02*
X121169750Y-91927500I-243750J0D01*
G01*
X120257250Y-91927500D01*
G75*
G02*
X120013500Y-91683750I0J243750D01*
G01*
X120013500Y-91196250D01*
G75*
G02*
X120257250Y-90952500I243750J0D01*
G01*
G37*
%TD.AperFunction*%
%TO.P,R12,1*%
%TO.N,Net-(CT-ZHT103-Pad2)*%
%TA.AperFunction,SMDPad,CuDef*%
G36*
G01*
X120257250Y-89077500D02*
X121169750Y-89077500D01*
G75*
G02*
X121413500Y-89321250I0J-243750D01*
G01*
X121413500Y-89808750D01*
G75*
G02*
X121169750Y-90052500I-243750J0D01*
G01*
X120257250Y-90052500D01*
G75*
G02*
X120013500Y-89808750I0J243750D01*
G01*
X120013500Y-89321250D01*
G75*
G02*
X120257250Y-89077500I243750J0D01*
G01*
G37*
%TD.AperFunction*%
%TD*%
%TO.P,R7,2*%
%TO.N,Net-(R7-Pad2)*%
%TA.AperFunction,SMDPad,CuDef*%
G36*
G01*
X129020250Y-91445500D02*
X129932750Y-91445500D01*
G75*
G02*
X130176500Y-91689250I0J-243750D01*
G01*
X130176500Y-92176750D01*
G75*
G02*
X129932750Y-92420500I-243750J0D01*
G01*
X129020250Y-92420500D01*
G75*
G02*
X128776500Y-92176750I0J243750D01*
G01*
X128776500Y-91689250D01*
G75*
G02*
X129020250Y-91445500I243750J0D01*
G01*
G37*
%TD.AperFunction*%
%TO.P,R7,1*%
%TO.N,Net-(R6-Pad2)*%
%TA.AperFunction,SMDPad,CuDef*%
G36*
G01*
X129020250Y-89570500D02*
X129932750Y-89570500D01*
G75*
G02*
X130176500Y-89814250I0J-243750D01*
G01*
X130176500Y-90301750D01*
G75*
G02*
X129932750Y-90545500I-243750J0D01*
G01*
X129020250Y-90545500D01*
G75*
G02*
X128776500Y-90301750I0J243750D01*
G01*
X128776500Y-89814250D01*
G75*
G02*
X129020250Y-89570500I243750J0D01*
G01*
G37*
%TD.AperFunction*%
%TD*%
%TO.P,R11,2*%
%TO.N,Net-(D3-Pad2)*%
%TA.AperFunction,SMDPad,CuDef*%
G36*
G01*
X133023000Y-95261750D02*
X133023000Y-94349250D01*
G75*
G02*
X133266750Y-94105500I243750J0D01*
G01*
X133754250Y-94105500D01*
G75*
G02*
X133998000Y-94349250I0J-243750D01*
G01*
X133998000Y-95261750D01*
G75*
G02*
X133754250Y-95505500I-243750J0D01*
G01*
X133266750Y-95505500D01*
G75*
G02*
X133023000Y-95261750I0J243750D01*
G01*
G37*
%TD.AperFunction*%
%TO.P,R11,1*%
%TO.N,+5V*%
%TA.AperFunction,SMDPad,CuDef*%
G36*
G01*
X131148000Y-95261750D02*
X131148000Y-94349250D01*
G75*
G02*
X131391750Y-94105500I243750J0D01*
G01*
X131879250Y-94105500D01*
G75*
G02*
X132123000Y-94349250I0J-243750D01*
G01*
X132123000Y-95261750D01*
G75*
G02*
X131879250Y-95505500I-243750J0D01*
G01*
X131391750Y-95505500D01*
G75*
G02*
X131148000Y-95261750I0J243750D01*
G01*
G37*
%TD.AperFunction*%
%TD*%
%TO.P,R2,2*%
%TO.N,Net-(C3-Pad1)*%
%TA.AperFunction,SMDPad,CuDef*%
G36*
G01*
X141631350Y-84539000D02*
X142543850Y-84539000D01*
G75*
G02*
X142787600Y-84782750I0J-243750D01*
G01*
X142787600Y-85270250D01*
G75*
G02*
X142543850Y-85514000I-243750J0D01*
G01*
X141631350Y-85514000D01*
G75*
G02*
X141387600Y-85270250I0J243750D01*
G01*
X141387600Y-84782750D01*
G75*
G02*
X141631350Y-84539000I243750J0D01*
G01*
G37*
%TD.AperFunction*%
%TO.P,R2,1*%
%TO.N,+5V*%
%TA.AperFunction,SMDPad,CuDef*%
G36*
G01*
X141631350Y-82664000D02*
X142543850Y-82664000D01*
G75*
G02*
X142787600Y-82907750I0J-243750D01*
G01*
X142787600Y-83395250D01*
G75*
G02*
X142543850Y-83639000I-243750J0D01*
G01*
X141631350Y-83639000D01*
G75*
G02*
X141387600Y-83395250I0J243750D01*
G01*
X141387600Y-82907750D01*
G75*
G02*
X141631350Y-82664000I243750J0D01*
G01*
G37*
%TD.AperFunction*%
%TD*%
%TO.P,R4,2*%
%TO.N,Net-(R4-Pad2)*%
%TA.AperFunction,SMDPad,CuDef*%
G36*
G01*
X135998800Y-86716550D02*
X135998800Y-87629050D01*
G75*
G02*
X135755050Y-87872800I-243750J0D01*
G01*
X135267550Y-87872800D01*
G75*
G02*
X135023800Y-87629050I0J243750D01*
G01*
X135023800Y-86716550D01*
G75*
G02*
X135267550Y-86472800I243750J0D01*
G01*
X135755050Y-86472800D01*
G75*
G02*
X135998800Y-86716550I0J-243750D01*
G01*
G37*
%TD.AperFunction*%
%TO.P,R4,1*%
%TO.N,Net-(C3-Pad1)*%
%TA.AperFunction,SMDPad,CuDef*%
G36*
G01*
X137873800Y-86716550D02*
X137873800Y-87629050D01*
G75*
G02*
X137630050Y-87872800I-243750J0D01*
G01*
X137142550Y-87872800D01*
G75*
G02*
X136898800Y-87629050I0J243750D01*
G01*
X136898800Y-86716550D01*
G75*
G02*
X137142550Y-86472800I243750J0D01*
G01*
X137630050Y-86472800D01*
G75*
G02*
X137873800Y-86716550I0J-243750D01*
G01*
G37*
%TD.AperFunction*%
%TD*%
%TO.P,R1,2*%
%TO.N,Net-(C1-Pad1)*%
%TA.AperFunction,SMDPad,CuDef*%
G36*
G01*
X127360500Y-85014750D02*
X127360500Y-85927250D01*
G75*
G02*
X127116750Y-86171000I-243750J0D01*
G01*
X126629250Y-86171000D01*
G75*
G02*
X126385500Y-85927250I0J243750D01*
G01*
X126385500Y-85014750D01*
G75*
G02*
X126629250Y-84771000I243750J0D01*
G01*
X127116750Y-84771000D01*
G75*
G02*
X127360500Y-85014750I0J-243750D01*
G01*
G37*
%TD.AperFunction*%
%TO.P,R1,1*%
%TO.N,Net-(R1-Pad1)*%
%TA.AperFunction,SMDPad,CuDef*%
G36*
G01*
X129235500Y-85014750D02*
X129235500Y-85927250D01*
G75*
G02*
X128991750Y-86171000I-243750J0D01*
G01*
X128504250Y-86171000D01*
G75*
G02*
X128260500Y-85927250I0J243750D01*
G01*
X128260500Y-85014750D01*
G75*
G02*
X128504250Y-84771000I243750J0D01*
G01*
X128991750Y-84771000D01*
G75*
G02*
X129235500Y-85014750I0J-243750D01*
G01*
G37*
%TD.AperFunction*%
%TD*%
D14*
%TO.P,Q1,3,E*%
%TO.N,GND*%
X141772000Y-97917000D03*
%TO.P,Q1,2,C*%
%TO.N,Net-(D3-Pad1)*%
X139152000Y-98867000D03*
%TO.P,Q1,1,B*%
%TO.N,Net-(Q1-Pad1)*%
X139152000Y-96967000D03*
%TD*%
D15*
%TO.P,J2,2,Pin_2*%
%TO.N,GND*%
X147256500Y-94250500D03*
%TO.P,J2,1,Pin_1*%
%TO.N,Net-(D3-Pad1)*%
%TA.AperFunction,ComponentPad*%
G36*
G01*
X148355400Y-100600500D02*
X146157600Y-100600500D01*
G75*
G02*
X145906500Y-100349400I0J251100D01*
G01*
X145906500Y-98151600D01*
G75*
G02*
X146157600Y-97900500I251100J0D01*
G01*
X148355400Y-97900500D01*
G75*
G02*
X148606500Y-98151600I0J-251100D01*
G01*
X148606500Y-100349400D01*
G75*
G02*
X148355400Y-100600500I-251100J0D01*
G01*
G37*
%TD.AperFunction*%
%TD*%
%TO.P,J1,2,Pin_2*%
%TO.N,+5V*%
X147129500Y-82439500D03*
%TO.P,J1,1,Pin_1*%
%TO.N,GND*%
%TA.AperFunction,ComponentPad*%
G36*
G01*
X148228400Y-88789500D02*
X146030600Y-88789500D01*
G75*
G02*
X145779500Y-88538400I0J251100D01*
G01*
X145779500Y-86340600D01*
G75*
G02*
X146030600Y-86089500I251100J0D01*
G01*
X148228400Y-86089500D01*
G75*
G02*
X148479500Y-86340600I0J-251100D01*
G01*
X148479500Y-88538400D01*
G75*
G02*
X148228400Y-88789500I-251100J0D01*
G01*
G37*
%TD.AperFunction*%
%TD*%
%TO.P,D3,2,A*%
%TO.N,Net-(D3-Pad2)*%
%TA.AperFunction,SMDPad,CuDef*%
G36*
G01*
X133996750Y-97848000D02*
X133084250Y-97848000D01*
G75*
G02*
X132840500Y-97604250I0J243750D01*
G01*
X132840500Y-97116750D01*
G75*
G02*
X133084250Y-96873000I243750J0D01*
G01*
X133996750Y-96873000D01*
G75*
G02*
X134240500Y-97116750I0J-243750D01*
G01*
X134240500Y-97604250D01*
G75*
G02*
X133996750Y-97848000I-243750J0D01*
G01*
G37*
%TD.AperFunction*%
%TO.P,D3,1,K*%
%TO.N,Net-(D3-Pad1)*%
%TA.AperFunction,SMDPad,CuDef*%
G36*
G01*
X133996750Y-99723000D02*
X133084250Y-99723000D01*
G75*
G02*
X132840500Y-99479250I0J243750D01*
G01*
X132840500Y-98991750D01*
G75*
G02*
X133084250Y-98748000I243750J0D01*
G01*
X133996750Y-98748000D01*
G75*
G02*
X134240500Y-98991750I0J-243750D01*
G01*
X134240500Y-99479250D01*
G75*
G02*
X133996750Y-99723000I-243750J0D01*
G01*
G37*
%TD.AperFunction*%
%TD*%
%TO.P,C2,2*%
%TO.N,+5V*%
%TA.AperFunction,SMDPad,CuDef*%
G36*
G01*
X129306500Y-95261750D02*
X129306500Y-94349250D01*
G75*
G02*
X129550250Y-94105500I243750J0D01*
G01*
X130037750Y-94105500D01*
G75*
G02*
X130281500Y-94349250I0J-243750D01*
G01*
X130281500Y-95261750D01*
G75*
G02*
X130037750Y-95505500I-243750J0D01*
G01*
X129550250Y-95505500D01*
G75*
G02*
X129306500Y-95261750I0J243750D01*
G01*
G37*
%TD.AperFunction*%
%TO.P,C2,1*%
%TO.N,GND*%
%TA.AperFunction,SMDPad,CuDef*%
G36*
G01*
X127431500Y-95261750D02*
X127431500Y-94349250D01*
G75*
G02*
X127675250Y-94105500I243750J0D01*
G01*
X128162750Y-94105500D01*
G75*
G02*
X128406500Y-94349250I0J-243750D01*
G01*
X128406500Y-95261750D01*
G75*
G02*
X128162750Y-95505500I-243750J0D01*
G01*
X127675250Y-95505500D01*
G75*
G02*
X127431500Y-95261750I0J243750D01*
G01*
G37*
%TD.AperFunction*%
%TD*%
%TO.P,C3,2*%
%TO.N,GND*%
%TA.AperFunction,SMDPad,CuDef*%
G36*
G01*
X138735750Y-88349000D02*
X139648250Y-88349000D01*
G75*
G02*
X139892000Y-88592750I0J-243750D01*
G01*
X139892000Y-89080250D01*
G75*
G02*
X139648250Y-89324000I-243750J0D01*
G01*
X138735750Y-89324000D01*
G75*
G02*
X138492000Y-89080250I0J243750D01*
G01*
X138492000Y-88592750D01*
G75*
G02*
X138735750Y-88349000I243750J0D01*
G01*
G37*
%TD.AperFunction*%
%TO.P,C3,1*%
%TO.N,Net-(C3-Pad1)*%
%TA.AperFunction,SMDPad,CuDef*%
G36*
G01*
X138735750Y-86474000D02*
X139648250Y-86474000D01*
G75*
G02*
X139892000Y-86717750I0J-243750D01*
G01*
X139892000Y-87205250D01*
G75*
G02*
X139648250Y-87449000I-243750J0D01*
G01*
X138735750Y-87449000D01*
G75*
G02*
X138492000Y-87205250I0J243750D01*
G01*
X138492000Y-86717750D01*
G75*
G02*
X138735750Y-86474000I243750J0D01*
G01*
G37*
%TD.AperFunction*%
%TD*%
D16*
%TO.N,Net-(R7-Pad2)*%
X129476500Y-93027500D03*
X139192000Y-93408500D03*
%TO.N,+5V*%
X130683000Y-94805500D03*
X142087600Y-81838800D03*
%TD*%
D17*
%TO.N,GND*%
X139192000Y-88836500D02*
X138239500Y-88836500D01*
X138239500Y-88836500D02*
X137985500Y-89090500D01*
X137985500Y-89090500D02*
X136864000Y-89090500D01*
%TO.N,Net-(R4-Pad2)*%
X138480800Y-85394800D02*
X138074400Y-85801200D01*
D18*
X138074400Y-85801200D02*
X135940800Y-85801200D01*
D17*
X138480800Y-81737200D02*
X138480800Y-85394800D01*
D18*
X135940800Y-85801200D02*
X135511300Y-86230700D01*
X135511300Y-86230700D02*
X135511300Y-87172800D01*
D17*
%TO.N,Net-(RV1-Pad2)*%
X134937500Y-91630500D02*
X135382000Y-91630500D01*
X134721600Y-88595200D02*
X134721600Y-91414600D01*
X134721600Y-91414600D02*
X134937500Y-91630500D01*
X134315200Y-88188800D02*
X134721600Y-88595200D01*
D18*
X134315200Y-86004400D02*
X134315200Y-88188800D01*
D17*
X134315200Y-85140800D02*
X134315200Y-86004400D01*
%TO.N,Net-(C3-Pad1)*%
X142087600Y-85026500D02*
X142087600Y-86194900D01*
X142087600Y-86194900D02*
X141287500Y-86995000D01*
X139192000Y-86961500D02*
X141254000Y-86961500D01*
D18*
X141254000Y-86961500D02*
X141287500Y-86995000D01*
D17*
X137386300Y-87172800D02*
X138980700Y-87172800D01*
D18*
X138980700Y-87172800D02*
X139192000Y-86961500D01*
D17*
%TO.N,+5V*%
X142087600Y-81838800D02*
X142087600Y-83151500D01*
%TO.N,Net-(RV1-Pad2)*%
X135178800Y-84277200D02*
X134315200Y-85140800D01*
X135940800Y-84277200D02*
X135178800Y-84277200D01*
%TO.N,Net-(R6-Pad2)*%
X133451600Y-88188800D02*
X133451600Y-90170000D01*
X133119100Y-87172800D02*
X133119100Y-87856300D01*
X133119100Y-87856300D02*
X133451600Y-88188800D01*
X133451600Y-90170000D02*
X133261100Y-90360500D01*
X133261100Y-90360500D02*
X131614000Y-90360500D01*
%TO.N,Net-(CT-ZHT103-Pad2)*%
X120650000Y-84201000D02*
X120706000Y-84257000D01*
X114640707Y-84201000D02*
X120650000Y-84201000D01*
%TO.N,Net-(CT-ZHT103-Pad1)*%
X114640707Y-96901000D02*
X120698500Y-96901000D01*
X120698500Y-96901000D02*
X120706000Y-96908500D01*
%TO.N,Net-(CT-ZHT103-Pad2)*%
X120706000Y-84257000D02*
X120706000Y-85463500D01*
X120706000Y-83058000D02*
X120706000Y-84257000D01*
%TO.N,Net-(CT-ZHT103-Pad1)*%
X120706000Y-96908500D02*
X120706000Y-98298000D01*
X120706000Y-95821500D02*
X120706000Y-96908500D01*
D18*
%TO.N,Net-(CT-ZHT103-Pad2)*%
X120586500Y-85598000D02*
X120713500Y-85471000D01*
D17*
%TO.N,Net-(RV1-Pad2)*%
X136864000Y-91630500D02*
X135382000Y-91630500D01*
D18*
%TO.N,GND*%
X141772000Y-97917000D02*
X135572500Y-97917000D01*
X135572500Y-97917000D02*
X135255000Y-97599500D01*
X135255000Y-97599500D02*
X135255000Y-94805500D01*
D17*
%TO.N,Net-(D3-Pad2)*%
X133510500Y-94805500D02*
X133510500Y-97330500D01*
X133510500Y-97330500D02*
X133540500Y-97360500D01*
%TO.N,Net-(R7-Pad2)*%
X129476500Y-93027500D02*
X129476500Y-91933000D01*
X139192000Y-92362500D02*
X139192000Y-93408500D01*
%TO.N,+5V*%
X131614000Y-93684000D02*
X131614000Y-94784000D01*
X131635500Y-94805500D02*
X129794000Y-94805500D01*
X131614000Y-92900500D02*
X131614000Y-93684000D01*
X131614000Y-94784000D02*
X131635500Y-94805500D01*
%TO.N,Net-(D3-Pad1)*%
X139001500Y-99250500D02*
X133555500Y-99250500D01*
X139152000Y-98867000D02*
X139152000Y-99100000D01*
X139152000Y-99100000D02*
X139001500Y-99250500D01*
X147256500Y-99250500D02*
X139001500Y-99250500D01*
%TO.N,Net-(R10-Pad1)*%
X138811000Y-94805500D02*
X137130000Y-94805500D01*
%TO.N,Net-(D3-Pad1)*%
X133555500Y-99250500D02*
X133540500Y-99235500D01*
%TO.N,Net-(Q1-Pad1)*%
X140686000Y-94805500D02*
X140686000Y-96613500D01*
X140686000Y-96613500D02*
X140332500Y-96967000D01*
X140332500Y-96967000D02*
X139152000Y-96967000D01*
%TO.N,Net-(D3-Pad2)*%
X133540500Y-94835500D02*
X133510500Y-94805500D01*
%TO.N,Net-(R1-Pad1)*%
X131614000Y-89090500D02*
X130746500Y-89090500D01*
X130746500Y-89090500D02*
X129222500Y-87566500D01*
X129222500Y-87566500D02*
X128748000Y-87566500D01*
%TO.N,Net-(R10-Pad1)*%
X137130000Y-94805500D02*
X137130000Y-93166500D01*
X137130000Y-93166500D02*
X136864000Y-92900500D01*
%TO.N,Net-(R9-Pad2)*%
X139192000Y-90487500D02*
X138176000Y-90487500D01*
X138176000Y-90487500D02*
X138049000Y-90360500D01*
X138049000Y-90360500D02*
X136864000Y-90360500D01*
%TO.N,Net-(R7-Pad2)*%
X131614000Y-91630500D02*
X130683000Y-91630500D01*
X130683000Y-91630500D02*
X130380500Y-91933000D01*
X130380500Y-91933000D02*
X129476500Y-91933000D01*
%TO.N,Net-(R6-Pad2)*%
X131614000Y-90360500D02*
X130556000Y-90360500D01*
X130556000Y-90360500D02*
X130253500Y-90058000D01*
X130253500Y-90058000D02*
X129476500Y-90058000D01*
%TO.N,Net-(R1-Pad1)*%
X128748000Y-85471000D02*
X128748000Y-87566500D01*
%TO.N,Net-(C1-Pad1)*%
X124213500Y-85471000D02*
X126873000Y-85471000D01*
X124213500Y-85471000D02*
X124213500Y-90480000D01*
X124213500Y-90480000D02*
X124142500Y-90551000D01*
X124142500Y-90551000D02*
X124142500Y-95758000D01*
X124142500Y-95758000D02*
X124206000Y-95821500D01*
%TO.N,Net-(CT-ZHT103-Pad1)*%
X120713500Y-91440000D02*
X120713500Y-95814000D01*
X120713500Y-95814000D02*
X120706000Y-95821500D01*
%TO.N,Net-(CT-ZHT103-Pad2)*%
X120713500Y-85471000D02*
X120713500Y-89565000D01*
X120706000Y-85463500D02*
X120713500Y-85471000D01*
%TD*%
%TO.N,GND*%
D19*
X153099500Y-102490000D02*
X110552500Y-102490000D01*
X110552500Y-84188898D01*
X113001839Y-84188898D01*
X113019473Y-84441071D01*
X113020986Y-84451078D01*
X113078711Y-84697187D01*
X113081805Y-84706824D01*
X113178135Y-84940538D01*
X113182730Y-84949556D01*
X113315187Y-85164862D01*
X113321165Y-85173030D01*
X113486341Y-85364390D01*
X113493548Y-85371497D01*
X113687196Y-85533986D01*
X113695446Y-85539849D01*
X113912580Y-85669287D01*
X113921662Y-85673756D01*
X114156698Y-85766813D01*
X114166377Y-85769772D01*
X114413268Y-85824054D01*
X114423296Y-85825428D01*
X114675690Y-85839539D01*
X114685808Y-85839292D01*
X114937211Y-85812869D01*
X114947160Y-85811007D01*
X115191105Y-85744728D01*
X115200627Y-85741300D01*
X115430838Y-85636873D01*
X115439690Y-85631966D01*
X115650243Y-85492074D01*
X115658196Y-85485815D01*
X115843675Y-85314061D01*
X115850526Y-85306610D01*
X116006158Y-85107411D01*
X116011730Y-85098961D01*
X116018306Y-85087000D01*
X119421663Y-85087000D01*
X119421663Y-86329258D01*
X119423819Y-86345634D01*
X119498637Y-86624859D01*
X119511380Y-86649339D01*
X119642490Y-86805590D01*
X119659379Y-86819761D01*
X119827500Y-86916826D01*
X119827501Y-88548979D01*
X119681587Y-88642752D01*
X119667966Y-88654555D01*
X119513145Y-88833226D01*
X119503401Y-88848389D01*
X119405191Y-89063441D01*
X119400113Y-89080734D01*
X119374918Y-89255966D01*
X119374276Y-89264944D01*
X119374276Y-89848896D01*
X119375720Y-89862326D01*
X119441081Y-90162788D01*
X119449711Y-90183622D01*
X119578752Y-90384413D01*
X119590555Y-90398034D01*
X119708646Y-90500362D01*
X119681587Y-90517752D01*
X119667966Y-90529555D01*
X119513145Y-90708226D01*
X119503401Y-90723389D01*
X119405191Y-90938441D01*
X119400113Y-90955734D01*
X119374918Y-91130966D01*
X119374276Y-91139944D01*
X119374276Y-91723896D01*
X119375720Y-91737326D01*
X119441081Y-92037788D01*
X119449711Y-92058622D01*
X119578752Y-92259413D01*
X119590555Y-92273034D01*
X119769226Y-92427855D01*
X119784388Y-92437599D01*
X119827500Y-92457288D01*
X119827501Y-94386445D01*
X119752142Y-94406637D01*
X119727662Y-94419380D01*
X119571410Y-94550490D01*
X119557239Y-94567379D01*
X119456641Y-94741620D01*
X119449100Y-94762337D01*
X119415122Y-94955038D01*
X119414163Y-94965999D01*
X119414163Y-96015000D01*
X116018569Y-96015000D01*
X115873415Y-95820969D01*
X115866721Y-95813377D01*
X115684881Y-95637776D01*
X115677060Y-95631351D01*
X115469482Y-95487081D01*
X115460735Y-95481990D01*
X115232763Y-95372764D01*
X115223314Y-95369137D01*
X114980810Y-95297765D01*
X114970903Y-95295695D01*
X114720109Y-95264011D01*
X114709997Y-95263552D01*
X114457363Y-95272374D01*
X114447308Y-95273538D01*
X114199335Y-95322639D01*
X114189596Y-95325394D01*
X113952663Y-95413508D01*
X113943490Y-95417786D01*
X113723691Y-95542649D01*
X113715320Y-95548338D01*
X113518313Y-95706737D01*
X113510959Y-95713691D01*
X113341811Y-95901548D01*
X113335663Y-95909589D01*
X113198726Y-96122075D01*
X113193943Y-96130994D01*
X113092739Y-96362639D01*
X113089444Y-96372209D01*
X113026578Y-96617056D01*
X113024855Y-96627030D01*
X113001945Y-96878777D01*
X113001839Y-96888898D01*
X113019473Y-97141071D01*
X113020986Y-97151078D01*
X113078711Y-97397187D01*
X113081805Y-97406824D01*
X113178135Y-97640538D01*
X113182730Y-97649556D01*
X113315187Y-97864862D01*
X113321165Y-97873030D01*
X113486341Y-98064390D01*
X113493548Y-98071497D01*
X113687196Y-98233986D01*
X113695446Y-98239849D01*
X113912580Y-98369287D01*
X113921662Y-98373756D01*
X114156698Y-98466813D01*
X114166377Y-98469772D01*
X114413268Y-98524054D01*
X114423296Y-98525428D01*
X114675690Y-98539539D01*
X114685808Y-98539292D01*
X114937211Y-98512869D01*
X114947160Y-98511007D01*
X115191105Y-98444728D01*
X115200627Y-98441300D01*
X115430838Y-98336873D01*
X115439690Y-98331966D01*
X115650243Y-98192074D01*
X115658196Y-98185815D01*
X115843675Y-98014061D01*
X115850526Y-98006610D01*
X116006158Y-97807411D01*
X116011730Y-97798961D01*
X116018306Y-97787000D01*
X119414163Y-97787000D01*
X119414163Y-99156258D01*
X119416319Y-99172634D01*
X119491137Y-99451859D01*
X119503880Y-99476339D01*
X119634990Y-99632590D01*
X119651879Y-99646761D01*
X119826120Y-99747359D01*
X119846837Y-99754900D01*
X120039538Y-99788878D01*
X120050499Y-99789837D01*
X121364258Y-99789837D01*
X121380634Y-99787681D01*
X121659859Y-99712863D01*
X121684339Y-99700120D01*
X121840590Y-99569010D01*
X121854761Y-99552121D01*
X121955359Y-99377880D01*
X121962900Y-99357163D01*
X121996878Y-99164462D01*
X121997837Y-99153501D01*
X121997837Y-98499809D01*
X122914163Y-98499809D01*
X122914163Y-99156258D01*
X122916319Y-99172634D01*
X122991137Y-99451859D01*
X123003880Y-99476339D01*
X123134990Y-99632590D01*
X123151879Y-99646761D01*
X123326120Y-99747359D01*
X123346837Y-99754900D01*
X123539538Y-99788878D01*
X123550499Y-99789837D01*
X124004191Y-99789837D01*
X124078000Y-99716028D01*
X124078000Y-98499809D01*
X124334000Y-98499809D01*
X124334000Y-99716028D01*
X124407809Y-99789837D01*
X124864258Y-99789837D01*
X124880634Y-99787681D01*
X125159859Y-99712863D01*
X125184339Y-99700120D01*
X125195684Y-99690600D01*
X126131097Y-99690600D01*
X126131097Y-99699400D01*
X126151300Y-99988320D01*
X126152525Y-99997035D01*
X126212741Y-100280332D01*
X126215167Y-100288791D01*
X126314226Y-100560950D01*
X126317805Y-100568989D01*
X126453775Y-100824714D01*
X126458439Y-100832177D01*
X126628677Y-101066490D01*
X126634334Y-101073231D01*
X126835525Y-101281570D01*
X126842064Y-101287458D01*
X127070293Y-101465770D01*
X127077588Y-101470691D01*
X127328411Y-101615504D01*
X127336321Y-101619362D01*
X127604858Y-101727858D01*
X127613228Y-101730578D01*
X127894250Y-101800644D01*
X127902916Y-101802172D01*
X128190956Y-101832447D01*
X128199751Y-101832754D01*
X128489201Y-101822646D01*
X128497953Y-101821726D01*
X128783178Y-101771433D01*
X128791716Y-101769304D01*
X129067168Y-101679804D01*
X129075327Y-101676508D01*
X129335641Y-101549544D01*
X129343263Y-101545144D01*
X129583373Y-101383187D01*
X129590308Y-101377769D01*
X129805541Y-101183972D01*
X129811654Y-101177642D01*
X129997823Y-100955776D01*
X130002995Y-100948656D01*
X130156474Y-100703039D01*
X130160605Y-100695269D01*
X130278406Y-100430682D01*
X130281416Y-100422413D01*
X130361248Y-100144007D01*
X130363077Y-100135399D01*
X130403386Y-99848592D01*
X130404000Y-99839813D01*
X130404000Y-99550187D01*
X130403386Y-99541408D01*
X130363077Y-99254601D01*
X130361248Y-99245993D01*
X130281416Y-98967587D01*
X130278406Y-98959318D01*
X130160605Y-98694731D01*
X130156474Y-98686961D01*
X130002995Y-98441344D01*
X129997823Y-98434224D01*
X129811654Y-98212358D01*
X129805541Y-98206028D01*
X129590308Y-98012231D01*
X129583373Y-98006813D01*
X129343263Y-97844856D01*
X129335641Y-97840456D01*
X129075327Y-97713492D01*
X129067168Y-97710196D01*
X128791716Y-97620696D01*
X128783178Y-97618567D01*
X128497953Y-97568274D01*
X128489201Y-97567354D01*
X128199751Y-97557246D01*
X128190956Y-97557553D01*
X127902916Y-97587828D01*
X127894250Y-97589356D01*
X127613228Y-97659422D01*
X127604858Y-97662142D01*
X127336321Y-97770638D01*
X127328411Y-97774496D01*
X127077588Y-97919309D01*
X127070293Y-97924230D01*
X126842064Y-98102542D01*
X126835525Y-98108430D01*
X126634334Y-98316769D01*
X126628677Y-98323510D01*
X126458439Y-98557823D01*
X126453775Y-98565286D01*
X126317805Y-98821011D01*
X126314226Y-98829050D01*
X126215167Y-99101209D01*
X126212741Y-99109668D01*
X126152525Y-99392965D01*
X126151300Y-99401680D01*
X126131097Y-99690600D01*
X125195684Y-99690600D01*
X125340590Y-99569010D01*
X125354761Y-99552121D01*
X125455359Y-99377880D01*
X125462900Y-99357163D01*
X125496878Y-99164462D01*
X125497837Y-99153501D01*
X125497837Y-98499809D01*
X125424028Y-98426000D01*
X124407809Y-98426000D01*
X124334000Y-98499809D01*
X124078000Y-98499809D01*
X124004191Y-98426000D01*
X122987972Y-98426000D01*
X122914163Y-98499809D01*
X121997837Y-98499809D01*
X121997837Y-97439742D01*
X121995681Y-97423366D01*
X121920863Y-97144142D01*
X121908120Y-97119662D01*
X121861448Y-97064040D01*
X121955359Y-96901380D01*
X121962900Y-96880663D01*
X121996878Y-96687962D01*
X121997837Y-96677001D01*
X121997837Y-94963242D01*
X121995681Y-94946866D01*
X121920863Y-94667642D01*
X121908120Y-94643162D01*
X121777010Y-94486910D01*
X121760121Y-94472739D01*
X121599500Y-94380005D01*
X121599500Y-92456021D01*
X121745413Y-92362248D01*
X121759034Y-92350445D01*
X121913855Y-92171774D01*
X121923599Y-92156611D01*
X122021809Y-91941559D01*
X122026887Y-91924266D01*
X122052082Y-91749034D01*
X122052724Y-91740056D01*
X122052724Y-91156104D01*
X122051280Y-91142674D01*
X121985919Y-90842212D01*
X121977289Y-90821378D01*
X121848248Y-90620587D01*
X121836445Y-90606966D01*
X121718354Y-90504638D01*
X121745413Y-90487248D01*
X121759034Y-90475445D01*
X121913855Y-90296774D01*
X121923599Y-90281611D01*
X122021809Y-90066559D01*
X122026887Y-90049266D01*
X122052082Y-89874034D01*
X122052724Y-89865056D01*
X122052724Y-89569304D01*
X122840776Y-89569304D01*
X122840776Y-91516381D01*
X122842220Y-91529811D01*
X122908093Y-91832625D01*
X122916723Y-91853459D01*
X123046744Y-92055777D01*
X123058547Y-92069398D01*
X123238591Y-92225407D01*
X123253754Y-92235151D01*
X123256500Y-92236405D01*
X123256500Y-92373773D01*
X123233145Y-92400726D01*
X123223401Y-92415889D01*
X123125191Y-92630941D01*
X123120113Y-92648234D01*
X123094918Y-92823466D01*
X123094276Y-92832444D01*
X123094276Y-93841396D01*
X123095720Y-93854826D01*
X123161081Y-94155288D01*
X123169711Y-94176122D01*
X123256501Y-94311169D01*
X123256501Y-94405469D01*
X123252142Y-94406637D01*
X123227662Y-94419380D01*
X123071410Y-94550490D01*
X123057239Y-94567379D01*
X122956641Y-94741620D01*
X122949100Y-94762337D01*
X122915122Y-94955038D01*
X122914163Y-94965999D01*
X122914163Y-96679758D01*
X122916319Y-96696134D01*
X122991137Y-96975359D01*
X123003880Y-96999839D01*
X123050552Y-97055461D01*
X122956641Y-97218120D01*
X122949100Y-97238837D01*
X122915122Y-97431538D01*
X122914163Y-97442499D01*
X122914163Y-98096191D01*
X122987972Y-98170000D01*
X125424028Y-98170000D01*
X125497837Y-98096191D01*
X125497837Y-97439742D01*
X125495681Y-97423366D01*
X125420863Y-97144142D01*
X125408120Y-97119662D01*
X125361448Y-97064040D01*
X125455359Y-96901380D01*
X125462900Y-96880663D01*
X125496878Y-96687962D01*
X125497837Y-96677001D01*
X125497837Y-95007309D01*
X126792276Y-95007309D01*
X126792276Y-95301896D01*
X126793720Y-95315326D01*
X126859081Y-95615788D01*
X126867711Y-95636622D01*
X126996752Y-95837413D01*
X127008555Y-95851034D01*
X127187226Y-96005855D01*
X127202389Y-96015599D01*
X127417441Y-96113809D01*
X127434734Y-96118887D01*
X127609966Y-96144082D01*
X127618944Y-96144724D01*
X127717191Y-96144724D01*
X127791000Y-96070915D01*
X127791000Y-95007309D01*
X127717191Y-94933500D01*
X126866085Y-94933500D01*
X126792276Y-95007309D01*
X125497837Y-95007309D01*
X125497837Y-94963242D01*
X125495681Y-94946866D01*
X125420863Y-94667642D01*
X125408120Y-94643162D01*
X125277010Y-94486910D01*
X125260121Y-94472739D01*
X125119987Y-94391832D01*
X125156362Y-94349854D01*
X125173752Y-94376913D01*
X125185555Y-94390534D01*
X125364226Y-94545355D01*
X125379389Y-94555099D01*
X125594441Y-94653309D01*
X125611734Y-94658387D01*
X125786966Y-94683582D01*
X125795944Y-94684224D01*
X125894191Y-94684224D01*
X125968000Y-94610415D01*
X125968000Y-93546809D01*
X126224000Y-93546809D01*
X126224000Y-94610415D01*
X126297809Y-94684224D01*
X126379896Y-94684224D01*
X126393326Y-94682780D01*
X126693788Y-94617419D01*
X126714622Y-94608789D01*
X126792276Y-94558884D01*
X126792276Y-94603691D01*
X126866085Y-94677500D01*
X127717191Y-94677500D01*
X127791000Y-94603691D01*
X127791000Y-93540085D01*
X127717191Y-93466276D01*
X127635104Y-93466276D01*
X127621674Y-93467720D01*
X127321212Y-93533081D01*
X127300378Y-93541711D01*
X127222724Y-93591616D01*
X127222724Y-93546809D01*
X127148915Y-93473000D01*
X126297809Y-93473000D01*
X126224000Y-93546809D01*
X125968000Y-93546809D01*
X125968000Y-92079585D01*
X125894191Y-92005776D01*
X125812104Y-92005776D01*
X125798674Y-92007220D01*
X125498212Y-92072581D01*
X125477378Y-92081211D01*
X125276587Y-92210252D01*
X125262966Y-92222055D01*
X125160638Y-92340146D01*
X125143248Y-92313087D01*
X125131445Y-92299466D01*
X125039958Y-92220192D01*
X125134777Y-92159256D01*
X125148398Y-92147453D01*
X125304407Y-91967409D01*
X125314151Y-91952247D01*
X125413116Y-91735543D01*
X125418194Y-91718250D01*
X125443582Y-91541673D01*
X125444224Y-91532696D01*
X125444224Y-90752809D01*
X125915776Y-90752809D01*
X125915776Y-91516381D01*
X125917220Y-91529811D01*
X125983093Y-91832625D01*
X125991723Y-91853459D01*
X126121744Y-92055777D01*
X126133547Y-92069398D01*
X126224000Y-92147776D01*
X126224000Y-93143191D01*
X126297809Y-93217000D01*
X127148915Y-93217000D01*
X127222724Y-93143191D01*
X127222724Y-92848604D01*
X127221280Y-92835174D01*
X127155919Y-92534712D01*
X127147289Y-92513878D01*
X127037645Y-92343270D01*
X127089500Y-92291415D01*
X127089500Y-90752809D01*
X127015691Y-90679000D01*
X125989585Y-90679000D01*
X125915776Y-90752809D01*
X125444224Y-90752809D01*
X125444224Y-89585619D01*
X125442780Y-89572189D01*
X125376907Y-89269375D01*
X125368277Y-89248541D01*
X125238256Y-89046223D01*
X125226453Y-89032602D01*
X125099500Y-88922597D01*
X125099500Y-86904046D01*
X125167359Y-86885863D01*
X125191839Y-86873120D01*
X125348090Y-86742010D01*
X125362261Y-86725121D01*
X125462859Y-86550880D01*
X125470400Y-86530163D01*
X125500933Y-86357000D01*
X125856979Y-86357000D01*
X125950752Y-86502913D01*
X125962555Y-86516534D01*
X125970650Y-86523549D01*
X125885145Y-86622226D01*
X125875401Y-86637389D01*
X125777191Y-86852441D01*
X125772113Y-86869734D01*
X125746918Y-87044966D01*
X125746276Y-87053944D01*
X125746276Y-87364691D01*
X125820085Y-87438500D01*
X127001000Y-87438500D01*
X127001000Y-87694500D01*
X125820085Y-87694500D01*
X125746276Y-87768309D01*
X125746276Y-88062896D01*
X125747720Y-88076326D01*
X125813081Y-88376788D01*
X125821711Y-88397622D01*
X125950752Y-88598413D01*
X125962555Y-88612034D01*
X126141226Y-88766855D01*
X126156389Y-88776599D01*
X126347760Y-88863995D01*
X126225223Y-88942744D01*
X126211602Y-88954547D01*
X126055593Y-89134591D01*
X126045849Y-89149753D01*
X125946884Y-89366457D01*
X125941806Y-89383750D01*
X125916418Y-89560327D01*
X125915776Y-89569304D01*
X125915776Y-90349191D01*
X125989585Y-90423000D01*
X127345500Y-90423000D01*
X127345500Y-92291415D01*
X127419309Y-92365224D01*
X127670381Y-92365224D01*
X127683811Y-92363780D01*
X127986625Y-92297907D01*
X128007459Y-92289277D01*
X128137276Y-92205849D01*
X128137276Y-92216896D01*
X128138720Y-92230326D01*
X128204081Y-92530788D01*
X128212711Y-92551622D01*
X128341752Y-92752413D01*
X128353555Y-92766034D01*
X128451315Y-92850744D01*
X128442656Y-92883062D01*
X128440500Y-92899437D01*
X128440500Y-93155562D01*
X128442656Y-93171938D01*
X128508946Y-93419335D01*
X128515267Y-93434595D01*
X128598260Y-93578344D01*
X128420559Y-93497191D01*
X128403266Y-93492113D01*
X128228034Y-93466918D01*
X128219056Y-93466276D01*
X128120809Y-93466276D01*
X128047000Y-93540085D01*
X128047000Y-96070915D01*
X128120809Y-96144724D01*
X128202896Y-96144724D01*
X128216326Y-96143280D01*
X128516788Y-96077919D01*
X128537622Y-96069289D01*
X128738413Y-95940248D01*
X128752034Y-95928445D01*
X128854362Y-95810354D01*
X128871752Y-95837413D01*
X128883555Y-95851034D01*
X129062226Y-96005855D01*
X129077389Y-96015599D01*
X129292441Y-96113809D01*
X129309734Y-96118887D01*
X129484966Y-96144082D01*
X129493944Y-96144724D01*
X130077896Y-96144724D01*
X130091326Y-96143280D01*
X130391788Y-96077919D01*
X130412622Y-96069289D01*
X130613413Y-95940248D01*
X130627034Y-95928445D01*
X130702373Y-95841500D01*
X130716794Y-95841500D01*
X130725055Y-95851034D01*
X130903726Y-96005855D01*
X130918889Y-96015599D01*
X131133941Y-96113809D01*
X131151234Y-96118887D01*
X131326466Y-96144082D01*
X131335444Y-96144724D01*
X131919396Y-96144724D01*
X131932826Y-96143280D01*
X132233288Y-96077919D01*
X132254122Y-96069289D01*
X132454913Y-95940248D01*
X132468534Y-95928445D01*
X132570862Y-95810354D01*
X132588252Y-95837413D01*
X132600055Y-95851034D01*
X132624500Y-95872216D01*
X132624501Y-96363759D01*
X132508587Y-96438252D01*
X132494966Y-96450055D01*
X132340145Y-96628726D01*
X132330401Y-96643889D01*
X132232191Y-96858941D01*
X132227113Y-96876234D01*
X132201918Y-97051466D01*
X132201276Y-97060444D01*
X132201276Y-97644396D01*
X132202720Y-97657826D01*
X132268081Y-97958288D01*
X132276711Y-97979122D01*
X132405752Y-98179913D01*
X132417555Y-98193534D01*
X132535646Y-98295862D01*
X132508587Y-98313252D01*
X132494966Y-98325055D01*
X132340145Y-98503726D01*
X132330401Y-98518889D01*
X132232191Y-98733941D01*
X132227113Y-98751234D01*
X132201918Y-98926466D01*
X132201276Y-98935444D01*
X132201276Y-99519396D01*
X132202720Y-99532826D01*
X132268081Y-99833288D01*
X132276711Y-99854122D01*
X132405752Y-100054913D01*
X132417555Y-100068534D01*
X132596226Y-100223355D01*
X132611389Y-100233099D01*
X132826441Y-100331309D01*
X132843734Y-100336387D01*
X133018966Y-100361582D01*
X133027944Y-100362224D01*
X134036896Y-100362224D01*
X134050326Y-100360780D01*
X134350788Y-100295419D01*
X134371622Y-100286789D01*
X134572413Y-100157748D01*
X134586034Y-100145945D01*
X134594218Y-100136500D01*
X138902242Y-100136500D01*
X138920870Y-100140715D01*
X138938765Y-100142155D01*
X139029913Y-100136500D01*
X145267276Y-100136500D01*
X145267276Y-100389824D01*
X145268720Y-100403254D01*
X145334682Y-100706479D01*
X145343312Y-100727313D01*
X145473507Y-100929901D01*
X145485310Y-100943522D01*
X145665596Y-101099741D01*
X145680759Y-101109485D01*
X145897753Y-101208582D01*
X145915046Y-101213660D01*
X146091857Y-101239082D01*
X146100835Y-101239724D01*
X148395824Y-101239724D01*
X148409254Y-101238280D01*
X148712479Y-101172318D01*
X148733313Y-101163688D01*
X148935901Y-101033493D01*
X148949522Y-101021690D01*
X149105741Y-100841404D01*
X149115485Y-100826241D01*
X149214582Y-100609247D01*
X149219660Y-100591954D01*
X149245082Y-100415143D01*
X149245724Y-100406165D01*
X149245724Y-98111176D01*
X149244280Y-98097746D01*
X149178318Y-97794521D01*
X149169688Y-97773687D01*
X149039493Y-97571099D01*
X149027690Y-97557478D01*
X148847404Y-97401259D01*
X148832241Y-97391515D01*
X148615247Y-97292418D01*
X148597954Y-97287340D01*
X148421143Y-97261918D01*
X148412165Y-97261276D01*
X146117176Y-97261276D01*
X146103746Y-97262720D01*
X145800521Y-97328682D01*
X145779687Y-97337312D01*
X145577099Y-97467507D01*
X145563478Y-97479310D01*
X145407259Y-97659596D01*
X145397515Y-97674759D01*
X145298418Y-97891753D01*
X145293340Y-97909046D01*
X145267918Y-98085857D01*
X145267276Y-98094835D01*
X145267276Y-98364500D01*
X143004181Y-98364500D01*
X143022878Y-98258462D01*
X143023837Y-98247501D01*
X143023837Y-98118809D01*
X142950028Y-98045000D01*
X140593972Y-98045000D01*
X140520163Y-98118809D01*
X140520163Y-98250258D01*
X140522319Y-98266634D01*
X140548542Y-98364500D01*
X140360721Y-98364500D01*
X140326863Y-98238142D01*
X140314120Y-98213662D01*
X140183010Y-98057410D01*
X140166121Y-98043239D01*
X139991880Y-97942641D01*
X139971163Y-97935100D01*
X139852175Y-97914119D01*
X140065859Y-97856863D01*
X140073280Y-97853000D01*
X140233242Y-97853000D01*
X140251870Y-97857215D01*
X140269765Y-97858655D01*
X140360913Y-97853000D01*
X140391553Y-97853000D01*
X140400495Y-97852363D01*
X140422894Y-97849155D01*
X140504963Y-97844063D01*
X140522543Y-97840423D01*
X140547976Y-97831242D01*
X140574748Y-97827408D01*
X140591979Y-97822369D01*
X140665372Y-97789000D01*
X141570191Y-97789000D01*
X141644000Y-97715191D01*
X141644000Y-97023972D01*
X141900000Y-97023972D01*
X141900000Y-97715191D01*
X141973809Y-97789000D01*
X142950028Y-97789000D01*
X143023837Y-97715191D01*
X143023837Y-97583742D01*
X143021681Y-97567366D01*
X142946863Y-97288142D01*
X142934120Y-97263662D01*
X142803010Y-97107410D01*
X142786121Y-97093239D01*
X142611880Y-96992641D01*
X142591163Y-96985100D01*
X142398462Y-96951122D01*
X142387501Y-96950163D01*
X141973809Y-96950163D01*
X141900000Y-97023972D01*
X141644000Y-97023972D01*
X141570191Y-96950163D01*
X141506795Y-96950163D01*
X141538217Y-96883235D01*
X141543526Y-96865679D01*
X141547362Y-96840008D01*
X141557036Y-96814203D01*
X141560891Y-96796668D01*
X141567866Y-96702818D01*
X141571307Y-96679792D01*
X141572000Y-96670466D01*
X141572000Y-96647185D01*
X141578355Y-96561664D01*
X141577134Y-96543752D01*
X141572000Y-96519702D01*
X141572000Y-95867320D01*
X141673855Y-95749774D01*
X141683599Y-95734611D01*
X141707213Y-95682903D01*
X146005116Y-95682903D01*
X146012475Y-95796713D01*
X146156354Y-95907514D01*
X146163972Y-95912547D01*
X146407077Y-96048971D01*
X146415342Y-96052851D01*
X146675594Y-96152753D01*
X146684333Y-96155400D01*
X146956281Y-96216686D01*
X146965310Y-96218043D01*
X147243256Y-96239430D01*
X147252386Y-96239470D01*
X147530509Y-96220510D01*
X147539550Y-96219231D01*
X147812023Y-96160321D01*
X147820784Y-96157750D01*
X148081898Y-96060123D01*
X148090196Y-96056315D01*
X148334484Y-95922017D01*
X148342146Y-95917051D01*
X148500175Y-95797533D01*
X148508077Y-95683096D01*
X147308691Y-94483710D01*
X147204309Y-94483710D01*
X146005116Y-95682903D01*
X141707213Y-95682903D01*
X141781809Y-95519559D01*
X141786887Y-95502266D01*
X141812082Y-95327034D01*
X141812724Y-95318056D01*
X141812724Y-94309104D01*
X141811280Y-94295674D01*
X141790743Y-94201263D01*
X145268136Y-94201263D01*
X145280781Y-94479745D01*
X145281854Y-94488812D01*
X145334569Y-94762551D01*
X145336939Y-94771368D01*
X145428617Y-95034630D01*
X145432236Y-95043013D01*
X145560957Y-95290284D01*
X145565747Y-95298056D01*
X145706861Y-95493716D01*
X145822926Y-95503054D01*
X147023290Y-94302691D01*
X147023290Y-94198309D01*
X147489710Y-94198309D01*
X147489710Y-94302691D01*
X148689616Y-95502597D01*
X148805056Y-95493815D01*
X148938047Y-95312770D01*
X148942905Y-95305040D01*
X149073780Y-95058903D01*
X149077471Y-95050552D01*
X149171443Y-94788099D01*
X149173891Y-94779303D01*
X149229159Y-94505198D01*
X149230381Y-94494430D01*
X149240684Y-94113673D01*
X149240046Y-94102854D01*
X149199681Y-93826161D01*
X149197713Y-93817245D01*
X149118072Y-93550096D01*
X149114838Y-93541557D01*
X148997466Y-93288702D01*
X148993033Y-93280720D01*
X148813410Y-93006229D01*
X148694117Y-92993902D01*
X147489710Y-94198309D01*
X147023290Y-94198309D01*
X145824125Y-92999144D01*
X145711955Y-93005121D01*
X145624872Y-93113043D01*
X145619667Y-93120545D01*
X145477763Y-93360493D01*
X145473696Y-93368668D01*
X145367915Y-93626586D01*
X145365071Y-93635262D01*
X145297631Y-93905751D01*
X145296069Y-93914746D01*
X145268383Y-94192136D01*
X145268136Y-94201263D01*
X141790743Y-94201263D01*
X141745919Y-93995212D01*
X141737289Y-93974378D01*
X141608248Y-93773587D01*
X141596445Y-93759966D01*
X141417774Y-93605145D01*
X141402611Y-93595401D01*
X141187559Y-93497191D01*
X141170266Y-93492113D01*
X140995034Y-93466918D01*
X140986056Y-93466276D01*
X140402104Y-93466276D01*
X140388674Y-93467720D01*
X140228000Y-93502672D01*
X140228000Y-93281206D01*
X140237534Y-93272945D01*
X140392355Y-93094274D01*
X140402099Y-93079111D01*
X140500309Y-92864059D01*
X140505387Y-92846766D01*
X140509917Y-92815256D01*
X146002275Y-92815256D01*
X147204309Y-94017290D01*
X147308691Y-94017290D01*
X148508506Y-92817475D01*
X148503875Y-92706952D01*
X148430683Y-92645099D01*
X148423300Y-92639725D01*
X148186633Y-92492412D01*
X148178552Y-92488161D01*
X147923100Y-92376557D01*
X147914490Y-92373516D01*
X147645603Y-92299957D01*
X147636645Y-92298192D01*
X147359953Y-92264218D01*
X147350834Y-92263764D01*
X147072138Y-92270089D01*
X147063049Y-92270956D01*
X146788185Y-92317446D01*
X146779316Y-92319616D01*
X146514041Y-92405297D01*
X146505578Y-92408725D01*
X146255451Y-92531803D01*
X146247572Y-92536416D01*
X146013088Y-92697572D01*
X146002275Y-92815256D01*
X140509917Y-92815256D01*
X140530582Y-92671534D01*
X140531224Y-92662556D01*
X140531224Y-92078604D01*
X140529780Y-92065174D01*
X140464419Y-91764712D01*
X140455789Y-91743878D01*
X140326748Y-91543087D01*
X140314945Y-91529466D01*
X140196854Y-91427138D01*
X140223913Y-91409748D01*
X140237534Y-91397945D01*
X140392355Y-91219274D01*
X140402099Y-91204111D01*
X140500309Y-90989059D01*
X140505387Y-90971766D01*
X140530582Y-90796534D01*
X140531224Y-90787556D01*
X140531224Y-90203604D01*
X140529780Y-90190174D01*
X140470773Y-89918923D01*
X140573441Y-89965809D01*
X140590734Y-89970887D01*
X140765966Y-89996082D01*
X140774944Y-89996724D01*
X141085691Y-89996724D01*
X141159500Y-89922915D01*
X141415499Y-89922915D01*
X141489308Y-89996724D01*
X141783896Y-89996724D01*
X141797326Y-89995280D01*
X142097788Y-89929919D01*
X142118622Y-89921289D01*
X142319413Y-89792248D01*
X142333034Y-89780445D01*
X142487855Y-89601774D01*
X142497599Y-89586611D01*
X142595809Y-89371559D01*
X142600887Y-89354266D01*
X142626082Y-89179034D01*
X142626724Y-89170056D01*
X142626724Y-89071809D01*
X142552915Y-88998000D01*
X141489309Y-88997999D01*
X141415500Y-89071808D01*
X141415499Y-89922915D01*
X141159500Y-89922915D01*
X141159501Y-89071809D01*
X141085692Y-88998000D01*
X140125190Y-88997999D01*
X140091691Y-88964500D01*
X139064000Y-88964499D01*
X139064001Y-88708500D01*
X140354310Y-88708501D01*
X140387809Y-88742000D01*
X141085692Y-88742001D01*
X141085693Y-88742000D01*
X142552915Y-88742001D01*
X142626724Y-88668192D01*
X142626724Y-88586104D01*
X142625280Y-88572674D01*
X142559919Y-88272212D01*
X142551289Y-88251378D01*
X142422248Y-88050587D01*
X142410445Y-88036966D01*
X142292354Y-87934638D01*
X142319413Y-87917248D01*
X142333034Y-87905445D01*
X142487855Y-87726774D01*
X142497599Y-87711611D01*
X142529704Y-87641308D01*
X145140276Y-87641308D01*
X145140276Y-88578824D01*
X145141720Y-88592254D01*
X145207682Y-88895479D01*
X145216312Y-88916313D01*
X145346507Y-89118901D01*
X145358310Y-89132522D01*
X145538596Y-89288741D01*
X145553759Y-89298485D01*
X145770753Y-89397582D01*
X145788046Y-89402660D01*
X145964857Y-89428082D01*
X145973835Y-89428724D01*
X146927691Y-89428724D01*
X147001500Y-89354915D01*
X147257499Y-89354915D01*
X147331308Y-89428724D01*
X148268824Y-89428724D01*
X148282254Y-89427280D01*
X148585479Y-89361318D01*
X148606313Y-89352688D01*
X148808901Y-89222493D01*
X148822522Y-89210690D01*
X148978741Y-89030404D01*
X148988485Y-89015241D01*
X149087582Y-88798247D01*
X149092660Y-88780954D01*
X149118082Y-88604143D01*
X149118724Y-88595165D01*
X149118724Y-87641309D01*
X149044915Y-87567500D01*
X147331309Y-87567499D01*
X147257500Y-87641308D01*
X147257499Y-89354915D01*
X147001500Y-89354915D01*
X147001501Y-87641309D01*
X146927692Y-87567500D01*
X145214085Y-87567499D01*
X145140276Y-87641308D01*
X142529704Y-87641308D01*
X142595809Y-87496559D01*
X142600887Y-87479266D01*
X142626082Y-87304034D01*
X142626724Y-87295056D01*
X142626724Y-86908768D01*
X142643904Y-86891588D01*
X142660064Y-86881392D01*
X142673735Y-86869757D01*
X142734208Y-86801284D01*
X142755852Y-86779641D01*
X142761725Y-86772867D01*
X142775292Y-86754764D01*
X142829728Y-86693127D01*
X142839585Y-86678123D01*
X142851078Y-86653644D01*
X142867295Y-86632006D01*
X142875916Y-86616258D01*
X142904782Y-86539256D01*
X142939817Y-86464635D01*
X142945126Y-86447079D01*
X142948962Y-86421408D01*
X142958636Y-86395603D01*
X142962491Y-86378068D01*
X142969466Y-86284218D01*
X142969523Y-86283835D01*
X145140276Y-86283835D01*
X145140276Y-87237691D01*
X145214085Y-87311500D01*
X146927691Y-87311501D01*
X147001500Y-87237692D01*
X147001500Y-87237691D01*
X147257499Y-87237691D01*
X147331308Y-87311500D01*
X149044915Y-87311501D01*
X149118724Y-87237692D01*
X149118724Y-86300176D01*
X149117280Y-86286746D01*
X149051318Y-85983521D01*
X149042688Y-85962687D01*
X148912493Y-85760099D01*
X148900690Y-85746478D01*
X148720404Y-85590259D01*
X148705241Y-85580515D01*
X148488247Y-85481418D01*
X148470954Y-85476340D01*
X148294143Y-85450918D01*
X148285165Y-85450276D01*
X147331309Y-85450276D01*
X147257500Y-85524085D01*
X147257499Y-87237691D01*
X147001500Y-87237691D01*
X147001501Y-85524085D01*
X146927692Y-85450276D01*
X145990176Y-85450276D01*
X145976746Y-85451720D01*
X145673521Y-85517682D01*
X145652687Y-85526312D01*
X145450099Y-85656507D01*
X145436478Y-85668310D01*
X145280259Y-85848596D01*
X145270515Y-85863759D01*
X145171418Y-86080753D01*
X145166340Y-86098046D01*
X145140918Y-86274857D01*
X145140276Y-86283835D01*
X142969523Y-86283835D01*
X142972907Y-86261192D01*
X142973600Y-86251866D01*
X142973600Y-86228585D01*
X142979955Y-86143064D01*
X142978734Y-86125152D01*
X142973600Y-86101102D01*
X142973600Y-86042521D01*
X143119513Y-85948748D01*
X143133134Y-85936945D01*
X143287955Y-85758274D01*
X143297699Y-85743111D01*
X143395909Y-85528059D01*
X143400987Y-85510766D01*
X143426182Y-85335534D01*
X143426824Y-85326556D01*
X143426824Y-84742604D01*
X143425380Y-84729174D01*
X143360019Y-84428712D01*
X143351389Y-84407878D01*
X143222348Y-84207087D01*
X143210545Y-84193466D01*
X143092454Y-84091138D01*
X143119513Y-84073748D01*
X143133134Y-84061945D01*
X143287955Y-83883274D01*
X143297699Y-83868111D01*
X143395909Y-83653059D01*
X143400987Y-83635766D01*
X143426182Y-83460534D01*
X143426824Y-83451556D01*
X143426824Y-82867604D01*
X143425380Y-82854174D01*
X143360019Y-82553712D01*
X143351389Y-82532878D01*
X143259736Y-82390263D01*
X145141136Y-82390263D01*
X145153781Y-82668745D01*
X145154854Y-82677812D01*
X145207569Y-82951551D01*
X145209939Y-82960368D01*
X145301617Y-83223630D01*
X145305236Y-83232013D01*
X145433957Y-83479284D01*
X145438747Y-83487056D01*
X145601814Y-83713155D01*
X145607677Y-83720155D01*
X145801676Y-83920346D01*
X145808488Y-83926425D01*
X146029354Y-84096514D01*
X146036972Y-84101547D01*
X146280077Y-84237971D01*
X146288342Y-84241851D01*
X146548594Y-84341753D01*
X146557333Y-84344400D01*
X146829281Y-84405686D01*
X146838310Y-84407043D01*
X147116256Y-84428430D01*
X147125386Y-84428470D01*
X147403509Y-84409510D01*
X147412550Y-84408231D01*
X147685023Y-84349321D01*
X147693784Y-84346750D01*
X147954898Y-84249123D01*
X147963196Y-84245315D01*
X148207483Y-84111017D01*
X148215145Y-84106051D01*
X148437486Y-83937896D01*
X148444351Y-83931876D01*
X148640089Y-83733386D01*
X148646012Y-83726438D01*
X148811047Y-83501770D01*
X148815905Y-83494040D01*
X148946780Y-83247903D01*
X148950471Y-83239552D01*
X149044443Y-82977099D01*
X149046891Y-82968303D01*
X149102159Y-82694198D01*
X149103381Y-82683430D01*
X149113684Y-82302673D01*
X149113046Y-82291854D01*
X149072681Y-82015161D01*
X149070713Y-82006245D01*
X148991072Y-81739096D01*
X148987838Y-81730557D01*
X148870467Y-81477702D01*
X148866033Y-81469720D01*
X148713389Y-81236457D01*
X148707850Y-81229199D01*
X148523132Y-81020414D01*
X148516604Y-81014031D01*
X148303682Y-80834098D01*
X148296300Y-80828725D01*
X148059633Y-80681412D01*
X148051552Y-80677161D01*
X147796100Y-80565557D01*
X147787490Y-80562516D01*
X147518603Y-80488957D01*
X147509645Y-80487192D01*
X147232953Y-80453218D01*
X147223834Y-80452764D01*
X146945138Y-80459089D01*
X146936049Y-80459956D01*
X146661185Y-80506446D01*
X146652316Y-80508616D01*
X146387041Y-80594297D01*
X146378578Y-80597725D01*
X146128451Y-80720803D01*
X146120572Y-80725416D01*
X145890833Y-80883312D01*
X145883702Y-80889014D01*
X145679161Y-81078422D01*
X145672928Y-81085094D01*
X145497872Y-81302043D01*
X145492667Y-81309545D01*
X145350763Y-81549493D01*
X145346696Y-81557668D01*
X145240915Y-81815586D01*
X145238071Y-81824262D01*
X145170631Y-82094751D01*
X145169069Y-82103746D01*
X145141383Y-82381136D01*
X145141136Y-82390263D01*
X143259736Y-82390263D01*
X143222348Y-82332087D01*
X143210545Y-82318466D01*
X143065335Y-82192639D01*
X143121444Y-81983238D01*
X143123600Y-81966862D01*
X143123600Y-81710738D01*
X143121444Y-81694362D01*
X143055154Y-81446965D01*
X143048833Y-81431705D01*
X142920771Y-81209895D01*
X142910716Y-81196791D01*
X142729609Y-81015684D01*
X142716505Y-81005629D01*
X142494695Y-80877567D01*
X142479435Y-80871246D01*
X142232038Y-80804956D01*
X142215662Y-80802800D01*
X141959538Y-80802800D01*
X141943162Y-80804956D01*
X141695765Y-80871246D01*
X141680505Y-80877567D01*
X141458695Y-81005629D01*
X141445591Y-81015684D01*
X141264484Y-81196791D01*
X141254429Y-81209895D01*
X141126367Y-81431705D01*
X141120046Y-81446965D01*
X141053756Y-81694362D01*
X141051600Y-81710738D01*
X141051600Y-81966862D01*
X141053756Y-81983238D01*
X141110275Y-82194170D01*
X141055687Y-82229252D01*
X141042066Y-82241055D01*
X140887245Y-82419726D01*
X140877501Y-82434889D01*
X140779291Y-82649941D01*
X140774213Y-82667234D01*
X140749018Y-82842466D01*
X140748376Y-82851444D01*
X140748376Y-83435396D01*
X140749820Y-83448826D01*
X140815181Y-83749288D01*
X140823811Y-83770122D01*
X140952852Y-83970913D01*
X140964655Y-83984534D01*
X141082746Y-84086862D01*
X141055687Y-84104252D01*
X141042066Y-84116055D01*
X140887245Y-84294726D01*
X140877501Y-84309889D01*
X140779291Y-84524941D01*
X140774213Y-84542234D01*
X140749018Y-84717466D01*
X140748376Y-84726444D01*
X140748376Y-85310396D01*
X140749820Y-85323826D01*
X140815181Y-85624288D01*
X140823811Y-85645122D01*
X140952852Y-85845913D01*
X140964655Y-85859534D01*
X140974744Y-85868276D01*
X140791104Y-85868276D01*
X140777674Y-85869720D01*
X140477212Y-85935081D01*
X140456378Y-85943711D01*
X140255587Y-86072752D01*
X140253118Y-86074892D01*
X140136274Y-85973645D01*
X140121111Y-85963901D01*
X139906059Y-85865691D01*
X139888766Y-85860613D01*
X139713534Y-85835418D01*
X139704556Y-85834776D01*
X139258344Y-85834776D01*
X139260495Y-85831906D01*
X139269116Y-85816158D01*
X139297982Y-85739156D01*
X139333017Y-85664535D01*
X139338326Y-85646979D01*
X139342162Y-85621308D01*
X139351836Y-85595503D01*
X139355691Y-85577968D01*
X139362666Y-85484118D01*
X139366107Y-85461092D01*
X139366800Y-85451766D01*
X139366800Y-85428485D01*
X139373155Y-85342964D01*
X139371934Y-85325052D01*
X139366800Y-85301002D01*
X139366800Y-82767220D01*
X139369919Y-82764954D01*
X139378377Y-82757576D01*
X139537868Y-82591261D01*
X139544885Y-82582502D01*
X139672402Y-82390572D01*
X139677758Y-82380709D01*
X139769272Y-82169232D01*
X139772795Y-82158577D01*
X139825604Y-81933431D01*
X139827251Y-81920660D01*
X139835007Y-81624459D01*
X139834031Y-81611621D01*
X139793079Y-81384019D01*
X139790117Y-81373193D01*
X139709795Y-81157216D01*
X139704964Y-81147087D01*
X139587666Y-80948746D01*
X139581117Y-80939632D01*
X139430550Y-80765198D01*
X139422490Y-80757388D01*
X139243412Y-80612374D01*
X139234097Y-80606115D01*
X139032171Y-80495104D01*
X139021894Y-80490593D01*
X138803499Y-80417095D01*
X138792587Y-80414475D01*
X138564629Y-80380813D01*
X138553425Y-80380167D01*
X138323109Y-80387405D01*
X138311968Y-80388754D01*
X138086573Y-80436663D01*
X138075847Y-80439963D01*
X137862499Y-80527029D01*
X137852526Y-80532176D01*
X137657968Y-80655646D01*
X137649064Y-80662478D01*
X137479445Y-80818450D01*
X137471892Y-80826751D01*
X137332574Y-81010295D01*
X137326611Y-81019802D01*
X137221998Y-81225117D01*
X137217812Y-81235530D01*
X137151211Y-81456125D01*
X137148935Y-81467115D01*
X137122450Y-81696017D01*
X137122156Y-81707236D01*
X137136625Y-81937211D01*
X137138323Y-81948305D01*
X137193288Y-82172083D01*
X137196923Y-82182700D01*
X137290647Y-82393209D01*
X137296105Y-82403016D01*
X137425626Y-82593599D01*
X137432734Y-82602284D01*
X137593958Y-82766919D01*
X137594800Y-82767638D01*
X137594801Y-85027808D01*
X137582409Y-85040200D01*
X137059566Y-85040200D01*
X137132402Y-84930572D01*
X137137758Y-84920709D01*
X137229272Y-84709232D01*
X137232795Y-84698577D01*
X137285604Y-84473431D01*
X137287251Y-84460660D01*
X137295007Y-84164459D01*
X137294031Y-84151621D01*
X137253079Y-83924019D01*
X137250117Y-83913193D01*
X137169795Y-83697216D01*
X137164964Y-83687087D01*
X137047666Y-83488746D01*
X137041117Y-83479632D01*
X136890550Y-83305198D01*
X136882490Y-83297388D01*
X136703412Y-83152374D01*
X136694097Y-83146115D01*
X136492171Y-83035104D01*
X136481894Y-83030593D01*
X136263499Y-82957095D01*
X136252587Y-82954475D01*
X136024629Y-82920813D01*
X136013425Y-82920167D01*
X135783109Y-82927405D01*
X135771968Y-82928754D01*
X135546573Y-82976663D01*
X135535847Y-82979963D01*
X135322499Y-83067029D01*
X135312526Y-83072176D01*
X135117968Y-83195646D01*
X135109064Y-83202478D01*
X134939445Y-83358450D01*
X134931892Y-83366751D01*
X134874677Y-83442129D01*
X134844456Y-83455870D01*
X134766922Y-83483860D01*
X134750756Y-83492520D01*
X134729890Y-83507959D01*
X134704801Y-83519367D01*
X134689676Y-83529039D01*
X134618371Y-83590480D01*
X134599669Y-83604319D01*
X134592585Y-83610422D01*
X134576134Y-83626874D01*
X134511154Y-83682864D01*
X134499352Y-83696394D01*
X134485972Y-83717037D01*
X133758900Y-84444109D01*
X133742737Y-84454307D01*
X133729065Y-84465943D01*
X133668586Y-84534422D01*
X133646948Y-84556060D01*
X133641076Y-84562833D01*
X133627517Y-84580924D01*
X133573071Y-84642574D01*
X133563215Y-84657578D01*
X133551720Y-84682061D01*
X133535505Y-84703697D01*
X133526884Y-84719444D01*
X133498019Y-84796441D01*
X133462983Y-84871066D01*
X133457674Y-84888622D01*
X133453838Y-84914293D01*
X133444164Y-84940098D01*
X133440309Y-84957633D01*
X133433335Y-85051479D01*
X133429893Y-85074510D01*
X133429200Y-85083835D01*
X133429200Y-85107119D01*
X133422844Y-85192636D01*
X133424065Y-85210548D01*
X133429200Y-85234603D01*
X133429200Y-85834371D01*
X133428133Y-85834218D01*
X133419156Y-85833576D01*
X132835204Y-85833576D01*
X132821774Y-85835020D01*
X132521312Y-85900381D01*
X132500478Y-85909011D01*
X132299687Y-86038052D01*
X132286066Y-86049855D01*
X132183738Y-86167946D01*
X132166348Y-86140887D01*
X132154545Y-86127266D01*
X131975874Y-85972445D01*
X131960711Y-85962701D01*
X131745659Y-85864491D01*
X131728366Y-85859413D01*
X131553134Y-85834218D01*
X131544156Y-85833576D01*
X131445909Y-85833576D01*
X131372100Y-85907385D01*
X131372100Y-87300800D01*
X130209793Y-87300800D01*
X129919189Y-87010197D01*
X129908993Y-86994037D01*
X129897357Y-86980365D01*
X129847007Y-86935898D01*
X129807919Y-86756212D01*
X129799289Y-86735378D01*
X129751004Y-86660244D01*
X130117376Y-86660244D01*
X130117376Y-86970991D01*
X130191185Y-87044800D01*
X131042291Y-87044800D01*
X131116100Y-86970991D01*
X131116100Y-85907385D01*
X131042291Y-85833576D01*
X130960204Y-85833576D01*
X130946774Y-85835020D01*
X130646312Y-85900381D01*
X130625478Y-85909011D01*
X130424687Y-86038052D01*
X130411066Y-86049855D01*
X130256245Y-86228526D01*
X130246501Y-86243689D01*
X130148291Y-86458741D01*
X130143213Y-86476034D01*
X130118018Y-86651266D01*
X130117376Y-86660244D01*
X129751004Y-86660244D01*
X129670248Y-86534587D01*
X129658445Y-86520966D01*
X129650350Y-86513951D01*
X129735855Y-86415274D01*
X129745599Y-86400111D01*
X129843809Y-86185059D01*
X129848887Y-86167766D01*
X129874082Y-85992534D01*
X129874724Y-85983556D01*
X129874724Y-84974604D01*
X129873280Y-84961174D01*
X129807919Y-84660712D01*
X129799289Y-84639878D01*
X129670248Y-84439087D01*
X129658445Y-84425466D01*
X129479774Y-84270645D01*
X129464611Y-84260901D01*
X129249559Y-84162691D01*
X129232266Y-84157613D01*
X129057034Y-84132418D01*
X129048056Y-84131776D01*
X128464104Y-84131776D01*
X128450674Y-84133220D01*
X128150212Y-84198581D01*
X128129378Y-84207211D01*
X127928587Y-84336252D01*
X127914966Y-84348055D01*
X127812638Y-84466146D01*
X127795248Y-84439087D01*
X127783445Y-84425466D01*
X127604774Y-84270645D01*
X127589611Y-84260901D01*
X127374559Y-84162691D01*
X127357266Y-84157613D01*
X127182034Y-84132418D01*
X127173056Y-84131776D01*
X126589104Y-84131776D01*
X126575674Y-84133220D01*
X126275212Y-84198581D01*
X126254378Y-84207211D01*
X126053587Y-84336252D01*
X126039966Y-84348055D01*
X125885145Y-84526726D01*
X125875401Y-84541888D01*
X125855712Y-84585000D01*
X125500135Y-84585000D01*
X125428363Y-84317142D01*
X125415620Y-84292662D01*
X125386223Y-84257628D01*
X125455359Y-84137880D01*
X125462900Y-84117163D01*
X125496878Y-83924462D01*
X125497837Y-83913501D01*
X125497837Y-83259809D01*
X125424028Y-83186000D01*
X122987972Y-83186000D01*
X122914163Y-83259809D01*
X122914163Y-83916258D01*
X122916319Y-83932634D01*
X122991137Y-84211859D01*
X123003880Y-84236339D01*
X123033277Y-84271373D01*
X122964141Y-84391120D01*
X122956600Y-84411837D01*
X122922622Y-84604538D01*
X122921663Y-84615499D01*
X122921663Y-86329258D01*
X122923819Y-86345634D01*
X122998637Y-86624859D01*
X123011380Y-86649339D01*
X123142490Y-86805590D01*
X123159379Y-86819761D01*
X123327500Y-86916826D01*
X123327501Y-88828815D01*
X123150223Y-88942744D01*
X123136602Y-88954547D01*
X122980593Y-89134591D01*
X122970849Y-89149753D01*
X122871884Y-89366457D01*
X122866806Y-89383750D01*
X122841418Y-89560327D01*
X122840776Y-89569304D01*
X122052724Y-89569304D01*
X122052724Y-89281104D01*
X122051280Y-89267674D01*
X121985919Y-88967212D01*
X121977289Y-88946378D01*
X121848248Y-88745587D01*
X121836445Y-88731966D01*
X121657774Y-88577145D01*
X121642612Y-88567401D01*
X121599500Y-88547712D01*
X121599500Y-86904046D01*
X121667359Y-86885863D01*
X121691839Y-86873120D01*
X121848090Y-86742010D01*
X121862261Y-86725121D01*
X121962859Y-86550880D01*
X121970400Y-86530163D01*
X122004378Y-86337462D01*
X122005337Y-86326501D01*
X122005337Y-84612742D01*
X122003181Y-84596366D01*
X121928363Y-84317142D01*
X121915620Y-84292662D01*
X121886223Y-84257628D01*
X121955359Y-84137880D01*
X121962900Y-84117163D01*
X121996878Y-83924462D01*
X121997837Y-83913501D01*
X121997837Y-82202499D01*
X122914163Y-82202499D01*
X122914163Y-82856191D01*
X122987972Y-82930000D01*
X124004191Y-82930000D01*
X124078000Y-82856191D01*
X124078000Y-81639972D01*
X124334000Y-81639972D01*
X124334000Y-82856191D01*
X124407809Y-82930000D01*
X125424028Y-82930000D01*
X125497837Y-82856191D01*
X125497837Y-82199742D01*
X125495681Y-82183366D01*
X125439609Y-81974100D01*
X126067597Y-81974100D01*
X126067597Y-81982900D01*
X126087800Y-82271820D01*
X126089025Y-82280535D01*
X126149241Y-82563832D01*
X126151667Y-82572291D01*
X126250726Y-82844450D01*
X126254305Y-82852489D01*
X126390275Y-83108214D01*
X126394939Y-83115677D01*
X126565177Y-83349990D01*
X126570834Y-83356731D01*
X126772025Y-83565070D01*
X126778564Y-83570958D01*
X127006793Y-83749270D01*
X127014088Y-83754191D01*
X127264911Y-83899004D01*
X127272821Y-83902862D01*
X127541358Y-84011358D01*
X127549728Y-84014078D01*
X127830750Y-84084144D01*
X127839416Y-84085672D01*
X128127456Y-84115947D01*
X128136251Y-84116254D01*
X128425701Y-84106146D01*
X128434453Y-84105226D01*
X128719678Y-84054933D01*
X128728216Y-84052804D01*
X129003668Y-83963304D01*
X129011827Y-83960008D01*
X129272141Y-83833044D01*
X129279763Y-83828644D01*
X129519873Y-83666687D01*
X129526808Y-83661269D01*
X129742041Y-83467472D01*
X129748154Y-83461142D01*
X129934323Y-83239276D01*
X129939495Y-83232156D01*
X130092974Y-82986539D01*
X130097105Y-82978769D01*
X130212579Y-82719407D01*
X132599612Y-82719407D01*
X132609400Y-82835972D01*
X132710321Y-82907692D01*
X132720011Y-82913354D01*
X132928509Y-83011466D01*
X132939049Y-83015322D01*
X133161627Y-83074962D01*
X133172683Y-83076892D01*
X133402304Y-83096174D01*
X133413527Y-83096115D01*
X133642934Y-83074430D01*
X133653969Y-83072385D01*
X133875910Y-83010417D01*
X133886408Y-83006450D01*
X134093868Y-82906160D01*
X134103497Y-82900397D01*
X134193012Y-82835363D01*
X134202127Y-82719546D01*
X133452991Y-81970410D01*
X133348609Y-81970410D01*
X132599612Y-82719407D01*
X130212579Y-82719407D01*
X130214906Y-82714182D01*
X130217916Y-82705913D01*
X130297748Y-82427507D01*
X130299577Y-82418899D01*
X130339886Y-82132092D01*
X130340500Y-82123313D01*
X130340500Y-81833687D01*
X130339886Y-81824908D01*
X130323348Y-81707236D01*
X132042156Y-81707236D01*
X132056625Y-81937211D01*
X132058323Y-81948305D01*
X132113288Y-82172083D01*
X132116923Y-82182700D01*
X132210647Y-82393209D01*
X132216105Y-82403016D01*
X132300528Y-82527238D01*
X132418584Y-82538397D01*
X133167590Y-81789391D01*
X133167590Y-81685009D01*
X133634010Y-81685009D01*
X133634010Y-81789391D01*
X134383167Y-82538548D01*
X134501965Y-82526690D01*
X134592402Y-82390573D01*
X134597758Y-82380709D01*
X134689272Y-82169232D01*
X134692795Y-82158577D01*
X134745604Y-81933431D01*
X134747251Y-81920660D01*
X134755007Y-81624459D01*
X134754031Y-81611621D01*
X134713079Y-81384019D01*
X134710117Y-81373193D01*
X134629795Y-81157216D01*
X134624964Y-81147087D01*
X134507874Y-80949098D01*
X134385394Y-80933625D01*
X133634010Y-81685009D01*
X133167590Y-81685009D01*
X132417889Y-80935308D01*
X132303575Y-80943102D01*
X132252574Y-81010297D01*
X132246610Y-81019803D01*
X132141998Y-81225117D01*
X132137812Y-81235530D01*
X132071211Y-81456125D01*
X132068935Y-81467115D01*
X132042450Y-81696017D01*
X132042156Y-81707236D01*
X130323348Y-81707236D01*
X130299577Y-81538101D01*
X130297748Y-81529493D01*
X130217916Y-81251087D01*
X130214906Y-81242818D01*
X130097105Y-80978231D01*
X130092974Y-80970461D01*
X129957864Y-80754239D01*
X132598859Y-80754239D01*
X133348609Y-81503990D01*
X133452991Y-81503990D01*
X134206920Y-80750061D01*
X134189178Y-80625400D01*
X133952171Y-80495104D01*
X133941894Y-80490593D01*
X133723499Y-80417095D01*
X133712587Y-80414475D01*
X133484629Y-80380813D01*
X133473425Y-80380167D01*
X133243109Y-80387405D01*
X133231968Y-80388754D01*
X133006573Y-80436663D01*
X132995847Y-80439963D01*
X132782499Y-80527029D01*
X132772526Y-80532176D01*
X132612137Y-80633962D01*
X132598859Y-80754239D01*
X129957864Y-80754239D01*
X129939495Y-80724844D01*
X129934323Y-80717724D01*
X129748154Y-80495858D01*
X129742041Y-80489528D01*
X129526808Y-80295731D01*
X129519873Y-80290313D01*
X129279763Y-80128356D01*
X129272141Y-80123956D01*
X129011827Y-79996992D01*
X129003668Y-79993696D01*
X128728216Y-79904196D01*
X128719678Y-79902067D01*
X128434453Y-79851774D01*
X128425701Y-79850854D01*
X128136251Y-79840746D01*
X128127456Y-79841053D01*
X127839416Y-79871328D01*
X127830750Y-79872856D01*
X127549728Y-79942922D01*
X127541358Y-79945642D01*
X127272821Y-80054138D01*
X127264911Y-80057996D01*
X127014088Y-80202809D01*
X127006793Y-80207730D01*
X126778564Y-80386042D01*
X126772025Y-80391930D01*
X126570834Y-80600269D01*
X126565177Y-80607010D01*
X126394939Y-80841323D01*
X126390275Y-80848786D01*
X126254305Y-81104511D01*
X126250726Y-81112550D01*
X126151667Y-81384709D01*
X126149241Y-81393168D01*
X126089025Y-81676465D01*
X126087800Y-81685180D01*
X126067597Y-81974100D01*
X125439609Y-81974100D01*
X125420863Y-81904142D01*
X125408120Y-81879662D01*
X125277010Y-81723410D01*
X125260121Y-81709239D01*
X125085880Y-81608641D01*
X125065163Y-81601100D01*
X124872462Y-81567122D01*
X124861501Y-81566163D01*
X124407809Y-81566163D01*
X124334000Y-81639972D01*
X124078000Y-81639972D01*
X124004191Y-81566163D01*
X123547742Y-81566163D01*
X123531366Y-81568319D01*
X123252142Y-81643137D01*
X123227662Y-81655880D01*
X123071410Y-81786990D01*
X123057239Y-81803879D01*
X122956641Y-81978120D01*
X122949100Y-81998837D01*
X122915122Y-82191538D01*
X122914163Y-82202499D01*
X121997837Y-82202499D01*
X121997837Y-82199742D01*
X121995681Y-82183366D01*
X121920863Y-81904142D01*
X121908120Y-81879662D01*
X121777010Y-81723410D01*
X121760121Y-81709239D01*
X121585880Y-81608641D01*
X121565163Y-81601100D01*
X121372462Y-81567122D01*
X121361501Y-81566163D01*
X120047742Y-81566163D01*
X120031366Y-81568319D01*
X119752142Y-81643137D01*
X119727662Y-81655880D01*
X119571410Y-81786990D01*
X119557239Y-81803879D01*
X119456641Y-81978120D01*
X119449100Y-81998837D01*
X119415122Y-82191538D01*
X119414163Y-82202499D01*
X119414163Y-83315000D01*
X116018569Y-83315000D01*
X115873415Y-83120969D01*
X115866721Y-83113377D01*
X115684881Y-82937776D01*
X115677060Y-82931351D01*
X115469482Y-82787081D01*
X115460735Y-82781990D01*
X115232763Y-82672764D01*
X115223314Y-82669137D01*
X114980810Y-82597765D01*
X114970903Y-82595695D01*
X114720109Y-82564011D01*
X114709997Y-82563552D01*
X114457363Y-82572374D01*
X114447308Y-82573538D01*
X114199335Y-82622639D01*
X114189596Y-82625394D01*
X113952663Y-82713508D01*
X113943490Y-82717786D01*
X113723691Y-82842649D01*
X113715320Y-82848338D01*
X113518313Y-83006737D01*
X113510959Y-83013691D01*
X113341811Y-83201548D01*
X113335663Y-83209589D01*
X113198726Y-83422075D01*
X113193943Y-83430994D01*
X113092739Y-83662639D01*
X113089444Y-83672209D01*
X113026578Y-83917056D01*
X113024855Y-83927030D01*
X113001945Y-84178777D01*
X113001839Y-84188898D01*
X110552500Y-84188898D01*
X110552500Y-79247000D01*
X153099501Y-79247000D01*
X153099500Y-102490000D01*
%TA.AperFunction,Conductor*%
G36*
X153099500Y-102490000D02*
G01*
X110552500Y-102490000D01*
X110552500Y-84188898D01*
X113001839Y-84188898D01*
X113019473Y-84441071D01*
X113020986Y-84451078D01*
X113078711Y-84697187D01*
X113081805Y-84706824D01*
X113178135Y-84940538D01*
X113182730Y-84949556D01*
X113315187Y-85164862D01*
X113321165Y-85173030D01*
X113486341Y-85364390D01*
X113493548Y-85371497D01*
X113687196Y-85533986D01*
X113695446Y-85539849D01*
X113912580Y-85669287D01*
X113921662Y-85673756D01*
X114156698Y-85766813D01*
X114166377Y-85769772D01*
X114413268Y-85824054D01*
X114423296Y-85825428D01*
X114675690Y-85839539D01*
X114685808Y-85839292D01*
X114937211Y-85812869D01*
X114947160Y-85811007D01*
X115191105Y-85744728D01*
X115200627Y-85741300D01*
X115430838Y-85636873D01*
X115439690Y-85631966D01*
X115650243Y-85492074D01*
X115658196Y-85485815D01*
X115843675Y-85314061D01*
X115850526Y-85306610D01*
X116006158Y-85107411D01*
X116011730Y-85098961D01*
X116018306Y-85087000D01*
X119421663Y-85087000D01*
X119421663Y-86329258D01*
X119423819Y-86345634D01*
X119498637Y-86624859D01*
X119511380Y-86649339D01*
X119642490Y-86805590D01*
X119659379Y-86819761D01*
X119827500Y-86916826D01*
X119827501Y-88548979D01*
X119681587Y-88642752D01*
X119667966Y-88654555D01*
X119513145Y-88833226D01*
X119503401Y-88848389D01*
X119405191Y-89063441D01*
X119400113Y-89080734D01*
X119374918Y-89255966D01*
X119374276Y-89264944D01*
X119374276Y-89848896D01*
X119375720Y-89862326D01*
X119441081Y-90162788D01*
X119449711Y-90183622D01*
X119578752Y-90384413D01*
X119590555Y-90398034D01*
X119708646Y-90500362D01*
X119681587Y-90517752D01*
X119667966Y-90529555D01*
X119513145Y-90708226D01*
X119503401Y-90723389D01*
X119405191Y-90938441D01*
X119400113Y-90955734D01*
X119374918Y-91130966D01*
X119374276Y-91139944D01*
X119374276Y-91723896D01*
X119375720Y-91737326D01*
X119441081Y-92037788D01*
X119449711Y-92058622D01*
X119578752Y-92259413D01*
X119590555Y-92273034D01*
X119769226Y-92427855D01*
X119784388Y-92437599D01*
X119827500Y-92457288D01*
X119827501Y-94386445D01*
X119752142Y-94406637D01*
X119727662Y-94419380D01*
X119571410Y-94550490D01*
X119557239Y-94567379D01*
X119456641Y-94741620D01*
X119449100Y-94762337D01*
X119415122Y-94955038D01*
X119414163Y-94965999D01*
X119414163Y-96015000D01*
X116018569Y-96015000D01*
X115873415Y-95820969D01*
X115866721Y-95813377D01*
X115684881Y-95637776D01*
X115677060Y-95631351D01*
X115469482Y-95487081D01*
X115460735Y-95481990D01*
X115232763Y-95372764D01*
X115223314Y-95369137D01*
X114980810Y-95297765D01*
X114970903Y-95295695D01*
X114720109Y-95264011D01*
X114709997Y-95263552D01*
X114457363Y-95272374D01*
X114447308Y-95273538D01*
X114199335Y-95322639D01*
X114189596Y-95325394D01*
X113952663Y-95413508D01*
X113943490Y-95417786D01*
X113723691Y-95542649D01*
X113715320Y-95548338D01*
X113518313Y-95706737D01*
X113510959Y-95713691D01*
X113341811Y-95901548D01*
X113335663Y-95909589D01*
X113198726Y-96122075D01*
X113193943Y-96130994D01*
X113092739Y-96362639D01*
X113089444Y-96372209D01*
X113026578Y-96617056D01*
X113024855Y-96627030D01*
X113001945Y-96878777D01*
X113001839Y-96888898D01*
X113019473Y-97141071D01*
X113020986Y-97151078D01*
X113078711Y-97397187D01*
X113081805Y-97406824D01*
X113178135Y-97640538D01*
X113182730Y-97649556D01*
X113315187Y-97864862D01*
X113321165Y-97873030D01*
X113486341Y-98064390D01*
X113493548Y-98071497D01*
X113687196Y-98233986D01*
X113695446Y-98239849D01*
X113912580Y-98369287D01*
X113921662Y-98373756D01*
X114156698Y-98466813D01*
X114166377Y-98469772D01*
X114413268Y-98524054D01*
X114423296Y-98525428D01*
X114675690Y-98539539D01*
X114685808Y-98539292D01*
X114937211Y-98512869D01*
X114947160Y-98511007D01*
X115191105Y-98444728D01*
X115200627Y-98441300D01*
X115430838Y-98336873D01*
X115439690Y-98331966D01*
X115650243Y-98192074D01*
X115658196Y-98185815D01*
X115843675Y-98014061D01*
X115850526Y-98006610D01*
X116006158Y-97807411D01*
X116011730Y-97798961D01*
X116018306Y-97787000D01*
X119414163Y-97787000D01*
X119414163Y-99156258D01*
X119416319Y-99172634D01*
X119491137Y-99451859D01*
X119503880Y-99476339D01*
X119634990Y-99632590D01*
X119651879Y-99646761D01*
X119826120Y-99747359D01*
X119846837Y-99754900D01*
X120039538Y-99788878D01*
X120050499Y-99789837D01*
X121364258Y-99789837D01*
X121380634Y-99787681D01*
X121659859Y-99712863D01*
X121684339Y-99700120D01*
X121840590Y-99569010D01*
X121854761Y-99552121D01*
X121955359Y-99377880D01*
X121962900Y-99357163D01*
X121996878Y-99164462D01*
X121997837Y-99153501D01*
X121997837Y-98499809D01*
X122914163Y-98499809D01*
X122914163Y-99156258D01*
X122916319Y-99172634D01*
X122991137Y-99451859D01*
X123003880Y-99476339D01*
X123134990Y-99632590D01*
X123151879Y-99646761D01*
X123326120Y-99747359D01*
X123346837Y-99754900D01*
X123539538Y-99788878D01*
X123550499Y-99789837D01*
X124004191Y-99789837D01*
X124078000Y-99716028D01*
X124078000Y-98499809D01*
X124334000Y-98499809D01*
X124334000Y-99716028D01*
X124407809Y-99789837D01*
X124864258Y-99789837D01*
X124880634Y-99787681D01*
X125159859Y-99712863D01*
X125184339Y-99700120D01*
X125195684Y-99690600D01*
X126131097Y-99690600D01*
X126131097Y-99699400D01*
X126151300Y-99988320D01*
X126152525Y-99997035D01*
X126212741Y-100280332D01*
X126215167Y-100288791D01*
X126314226Y-100560950D01*
X126317805Y-100568989D01*
X126453775Y-100824714D01*
X126458439Y-100832177D01*
X126628677Y-101066490D01*
X126634334Y-101073231D01*
X126835525Y-101281570D01*
X126842064Y-101287458D01*
X127070293Y-101465770D01*
X127077588Y-101470691D01*
X127328411Y-101615504D01*
X127336321Y-101619362D01*
X127604858Y-101727858D01*
X127613228Y-101730578D01*
X127894250Y-101800644D01*
X127902916Y-101802172D01*
X128190956Y-101832447D01*
X128199751Y-101832754D01*
X128489201Y-101822646D01*
X128497953Y-101821726D01*
X128783178Y-101771433D01*
X128791716Y-101769304D01*
X129067168Y-101679804D01*
X129075327Y-101676508D01*
X129335641Y-101549544D01*
X129343263Y-101545144D01*
X129583373Y-101383187D01*
X129590308Y-101377769D01*
X129805541Y-101183972D01*
X129811654Y-101177642D01*
X129997823Y-100955776D01*
X130002995Y-100948656D01*
X130156474Y-100703039D01*
X130160605Y-100695269D01*
X130278406Y-100430682D01*
X130281416Y-100422413D01*
X130361248Y-100144007D01*
X130363077Y-100135399D01*
X130403386Y-99848592D01*
X130404000Y-99839813D01*
X130404000Y-99550187D01*
X130403386Y-99541408D01*
X130363077Y-99254601D01*
X130361248Y-99245993D01*
X130281416Y-98967587D01*
X130278406Y-98959318D01*
X130160605Y-98694731D01*
X130156474Y-98686961D01*
X130002995Y-98441344D01*
X129997823Y-98434224D01*
X129811654Y-98212358D01*
X129805541Y-98206028D01*
X129590308Y-98012231D01*
X129583373Y-98006813D01*
X129343263Y-97844856D01*
X129335641Y-97840456D01*
X129075327Y-97713492D01*
X129067168Y-97710196D01*
X128791716Y-97620696D01*
X128783178Y-97618567D01*
X128497953Y-97568274D01*
X128489201Y-97567354D01*
X128199751Y-97557246D01*
X128190956Y-97557553D01*
X127902916Y-97587828D01*
X127894250Y-97589356D01*
X127613228Y-97659422D01*
X127604858Y-97662142D01*
X127336321Y-97770638D01*
X127328411Y-97774496D01*
X127077588Y-97919309D01*
X127070293Y-97924230D01*
X126842064Y-98102542D01*
X126835525Y-98108430D01*
X126634334Y-98316769D01*
X126628677Y-98323510D01*
X126458439Y-98557823D01*
X126453775Y-98565286D01*
X126317805Y-98821011D01*
X126314226Y-98829050D01*
X126215167Y-99101209D01*
X126212741Y-99109668D01*
X126152525Y-99392965D01*
X126151300Y-99401680D01*
X126131097Y-99690600D01*
X125195684Y-99690600D01*
X125340590Y-99569010D01*
X125354761Y-99552121D01*
X125455359Y-99377880D01*
X125462900Y-99357163D01*
X125496878Y-99164462D01*
X125497837Y-99153501D01*
X125497837Y-98499809D01*
X125424028Y-98426000D01*
X124407809Y-98426000D01*
X124334000Y-98499809D01*
X124078000Y-98499809D01*
X124004191Y-98426000D01*
X122987972Y-98426000D01*
X122914163Y-98499809D01*
X121997837Y-98499809D01*
X121997837Y-97439742D01*
X121995681Y-97423366D01*
X121920863Y-97144142D01*
X121908120Y-97119662D01*
X121861448Y-97064040D01*
X121955359Y-96901380D01*
X121962900Y-96880663D01*
X121996878Y-96687962D01*
X121997837Y-96677001D01*
X121997837Y-94963242D01*
X121995681Y-94946866D01*
X121920863Y-94667642D01*
X121908120Y-94643162D01*
X121777010Y-94486910D01*
X121760121Y-94472739D01*
X121599500Y-94380005D01*
X121599500Y-92456021D01*
X121745413Y-92362248D01*
X121759034Y-92350445D01*
X121913855Y-92171774D01*
X121923599Y-92156611D01*
X122021809Y-91941559D01*
X122026887Y-91924266D01*
X122052082Y-91749034D01*
X122052724Y-91740056D01*
X122052724Y-91156104D01*
X122051280Y-91142674D01*
X121985919Y-90842212D01*
X121977289Y-90821378D01*
X121848248Y-90620587D01*
X121836445Y-90606966D01*
X121718354Y-90504638D01*
X121745413Y-90487248D01*
X121759034Y-90475445D01*
X121913855Y-90296774D01*
X121923599Y-90281611D01*
X122021809Y-90066559D01*
X122026887Y-90049266D01*
X122052082Y-89874034D01*
X122052724Y-89865056D01*
X122052724Y-89569304D01*
X122840776Y-89569304D01*
X122840776Y-91516381D01*
X122842220Y-91529811D01*
X122908093Y-91832625D01*
X122916723Y-91853459D01*
X123046744Y-92055777D01*
X123058547Y-92069398D01*
X123238591Y-92225407D01*
X123253754Y-92235151D01*
X123256500Y-92236405D01*
X123256500Y-92373773D01*
X123233145Y-92400726D01*
X123223401Y-92415889D01*
X123125191Y-92630941D01*
X123120113Y-92648234D01*
X123094918Y-92823466D01*
X123094276Y-92832444D01*
X123094276Y-93841396D01*
X123095720Y-93854826D01*
X123161081Y-94155288D01*
X123169711Y-94176122D01*
X123256501Y-94311169D01*
X123256501Y-94405469D01*
X123252142Y-94406637D01*
X123227662Y-94419380D01*
X123071410Y-94550490D01*
X123057239Y-94567379D01*
X122956641Y-94741620D01*
X122949100Y-94762337D01*
X122915122Y-94955038D01*
X122914163Y-94965999D01*
X122914163Y-96679758D01*
X122916319Y-96696134D01*
X122991137Y-96975359D01*
X123003880Y-96999839D01*
X123050552Y-97055461D01*
X122956641Y-97218120D01*
X122949100Y-97238837D01*
X122915122Y-97431538D01*
X122914163Y-97442499D01*
X122914163Y-98096191D01*
X122987972Y-98170000D01*
X125424028Y-98170000D01*
X125497837Y-98096191D01*
X125497837Y-97439742D01*
X125495681Y-97423366D01*
X125420863Y-97144142D01*
X125408120Y-97119662D01*
X125361448Y-97064040D01*
X125455359Y-96901380D01*
X125462900Y-96880663D01*
X125496878Y-96687962D01*
X125497837Y-96677001D01*
X125497837Y-95007309D01*
X126792276Y-95007309D01*
X126792276Y-95301896D01*
X126793720Y-95315326D01*
X126859081Y-95615788D01*
X126867711Y-95636622D01*
X126996752Y-95837413D01*
X127008555Y-95851034D01*
X127187226Y-96005855D01*
X127202389Y-96015599D01*
X127417441Y-96113809D01*
X127434734Y-96118887D01*
X127609966Y-96144082D01*
X127618944Y-96144724D01*
X127717191Y-96144724D01*
X127791000Y-96070915D01*
X127791000Y-95007309D01*
X127717191Y-94933500D01*
X126866085Y-94933500D01*
X126792276Y-95007309D01*
X125497837Y-95007309D01*
X125497837Y-94963242D01*
X125495681Y-94946866D01*
X125420863Y-94667642D01*
X125408120Y-94643162D01*
X125277010Y-94486910D01*
X125260121Y-94472739D01*
X125119987Y-94391832D01*
X125156362Y-94349854D01*
X125173752Y-94376913D01*
X125185555Y-94390534D01*
X125364226Y-94545355D01*
X125379389Y-94555099D01*
X125594441Y-94653309D01*
X125611734Y-94658387D01*
X125786966Y-94683582D01*
X125795944Y-94684224D01*
X125894191Y-94684224D01*
X125968000Y-94610415D01*
X125968000Y-93546809D01*
X126224000Y-93546809D01*
X126224000Y-94610415D01*
X126297809Y-94684224D01*
X126379896Y-94684224D01*
X126393326Y-94682780D01*
X126693788Y-94617419D01*
X126714622Y-94608789D01*
X126792276Y-94558884D01*
X126792276Y-94603691D01*
X126866085Y-94677500D01*
X127717191Y-94677500D01*
X127791000Y-94603691D01*
X127791000Y-93540085D01*
X127717191Y-93466276D01*
X127635104Y-93466276D01*
X127621674Y-93467720D01*
X127321212Y-93533081D01*
X127300378Y-93541711D01*
X127222724Y-93591616D01*
X127222724Y-93546809D01*
X127148915Y-93473000D01*
X126297809Y-93473000D01*
X126224000Y-93546809D01*
X125968000Y-93546809D01*
X125968000Y-92079585D01*
X125894191Y-92005776D01*
X125812104Y-92005776D01*
X125798674Y-92007220D01*
X125498212Y-92072581D01*
X125477378Y-92081211D01*
X125276587Y-92210252D01*
X125262966Y-92222055D01*
X125160638Y-92340146D01*
X125143248Y-92313087D01*
X125131445Y-92299466D01*
X125039958Y-92220192D01*
X125134777Y-92159256D01*
X125148398Y-92147453D01*
X125304407Y-91967409D01*
X125314151Y-91952247D01*
X125413116Y-91735543D01*
X125418194Y-91718250D01*
X125443582Y-91541673D01*
X125444224Y-91532696D01*
X125444224Y-90752809D01*
X125915776Y-90752809D01*
X125915776Y-91516381D01*
X125917220Y-91529811D01*
X125983093Y-91832625D01*
X125991723Y-91853459D01*
X126121744Y-92055777D01*
X126133547Y-92069398D01*
X126224000Y-92147776D01*
X126224000Y-93143191D01*
X126297809Y-93217000D01*
X127148915Y-93217000D01*
X127222724Y-93143191D01*
X127222724Y-92848604D01*
X127221280Y-92835174D01*
X127155919Y-92534712D01*
X127147289Y-92513878D01*
X127037645Y-92343270D01*
X127089500Y-92291415D01*
X127089500Y-90752809D01*
X127015691Y-90679000D01*
X125989585Y-90679000D01*
X125915776Y-90752809D01*
X125444224Y-90752809D01*
X125444224Y-89585619D01*
X125442780Y-89572189D01*
X125376907Y-89269375D01*
X125368277Y-89248541D01*
X125238256Y-89046223D01*
X125226453Y-89032602D01*
X125099500Y-88922597D01*
X125099500Y-86904046D01*
X125167359Y-86885863D01*
X125191839Y-86873120D01*
X125348090Y-86742010D01*
X125362261Y-86725121D01*
X125462859Y-86550880D01*
X125470400Y-86530163D01*
X125500933Y-86357000D01*
X125856979Y-86357000D01*
X125950752Y-86502913D01*
X125962555Y-86516534D01*
X125970650Y-86523549D01*
X125885145Y-86622226D01*
X125875401Y-86637389D01*
X125777191Y-86852441D01*
X125772113Y-86869734D01*
X125746918Y-87044966D01*
X125746276Y-87053944D01*
X125746276Y-87364691D01*
X125820085Y-87438500D01*
X127001000Y-87438500D01*
X127001000Y-87694500D01*
X125820085Y-87694500D01*
X125746276Y-87768309D01*
X125746276Y-88062896D01*
X125747720Y-88076326D01*
X125813081Y-88376788D01*
X125821711Y-88397622D01*
X125950752Y-88598413D01*
X125962555Y-88612034D01*
X126141226Y-88766855D01*
X126156389Y-88776599D01*
X126347760Y-88863995D01*
X126225223Y-88942744D01*
X126211602Y-88954547D01*
X126055593Y-89134591D01*
X126045849Y-89149753D01*
X125946884Y-89366457D01*
X125941806Y-89383750D01*
X125916418Y-89560327D01*
X125915776Y-89569304D01*
X125915776Y-90349191D01*
X125989585Y-90423000D01*
X127345500Y-90423000D01*
X127345500Y-92291415D01*
X127419309Y-92365224D01*
X127670381Y-92365224D01*
X127683811Y-92363780D01*
X127986625Y-92297907D01*
X128007459Y-92289277D01*
X128137276Y-92205849D01*
X128137276Y-92216896D01*
X128138720Y-92230326D01*
X128204081Y-92530788D01*
X128212711Y-92551622D01*
X128341752Y-92752413D01*
X128353555Y-92766034D01*
X128451315Y-92850744D01*
X128442656Y-92883062D01*
X128440500Y-92899437D01*
X128440500Y-93155562D01*
X128442656Y-93171938D01*
X128508946Y-93419335D01*
X128515267Y-93434595D01*
X128598260Y-93578344D01*
X128420559Y-93497191D01*
X128403266Y-93492113D01*
X128228034Y-93466918D01*
X128219056Y-93466276D01*
X128120809Y-93466276D01*
X128047000Y-93540085D01*
X128047000Y-96070915D01*
X128120809Y-96144724D01*
X128202896Y-96144724D01*
X128216326Y-96143280D01*
X128516788Y-96077919D01*
X128537622Y-96069289D01*
X128738413Y-95940248D01*
X128752034Y-95928445D01*
X128854362Y-95810354D01*
X128871752Y-95837413D01*
X128883555Y-95851034D01*
X129062226Y-96005855D01*
X129077389Y-96015599D01*
X129292441Y-96113809D01*
X129309734Y-96118887D01*
X129484966Y-96144082D01*
X129493944Y-96144724D01*
X130077896Y-96144724D01*
X130091326Y-96143280D01*
X130391788Y-96077919D01*
X130412622Y-96069289D01*
X130613413Y-95940248D01*
X130627034Y-95928445D01*
X130702373Y-95841500D01*
X130716794Y-95841500D01*
X130725055Y-95851034D01*
X130903726Y-96005855D01*
X130918889Y-96015599D01*
X131133941Y-96113809D01*
X131151234Y-96118887D01*
X131326466Y-96144082D01*
X131335444Y-96144724D01*
X131919396Y-96144724D01*
X131932826Y-96143280D01*
X132233288Y-96077919D01*
X132254122Y-96069289D01*
X132454913Y-95940248D01*
X132468534Y-95928445D01*
X132570862Y-95810354D01*
X132588252Y-95837413D01*
X132600055Y-95851034D01*
X132624500Y-95872216D01*
X132624501Y-96363759D01*
X132508587Y-96438252D01*
X132494966Y-96450055D01*
X132340145Y-96628726D01*
X132330401Y-96643889D01*
X132232191Y-96858941D01*
X132227113Y-96876234D01*
X132201918Y-97051466D01*
X132201276Y-97060444D01*
X132201276Y-97644396D01*
X132202720Y-97657826D01*
X132268081Y-97958288D01*
X132276711Y-97979122D01*
X132405752Y-98179913D01*
X132417555Y-98193534D01*
X132535646Y-98295862D01*
X132508587Y-98313252D01*
X132494966Y-98325055D01*
X132340145Y-98503726D01*
X132330401Y-98518889D01*
X132232191Y-98733941D01*
X132227113Y-98751234D01*
X132201918Y-98926466D01*
X132201276Y-98935444D01*
X132201276Y-99519396D01*
X132202720Y-99532826D01*
X132268081Y-99833288D01*
X132276711Y-99854122D01*
X132405752Y-100054913D01*
X132417555Y-100068534D01*
X132596226Y-100223355D01*
X132611389Y-100233099D01*
X132826441Y-100331309D01*
X132843734Y-100336387D01*
X133018966Y-100361582D01*
X133027944Y-100362224D01*
X134036896Y-100362224D01*
X134050326Y-100360780D01*
X134350788Y-100295419D01*
X134371622Y-100286789D01*
X134572413Y-100157748D01*
X134586034Y-100145945D01*
X134594218Y-100136500D01*
X138902242Y-100136500D01*
X138920870Y-100140715D01*
X138938765Y-100142155D01*
X139029913Y-100136500D01*
X145267276Y-100136500D01*
X145267276Y-100389824D01*
X145268720Y-100403254D01*
X145334682Y-100706479D01*
X145343312Y-100727313D01*
X145473507Y-100929901D01*
X145485310Y-100943522D01*
X145665596Y-101099741D01*
X145680759Y-101109485D01*
X145897753Y-101208582D01*
X145915046Y-101213660D01*
X146091857Y-101239082D01*
X146100835Y-101239724D01*
X148395824Y-101239724D01*
X148409254Y-101238280D01*
X148712479Y-101172318D01*
X148733313Y-101163688D01*
X148935901Y-101033493D01*
X148949522Y-101021690D01*
X149105741Y-100841404D01*
X149115485Y-100826241D01*
X149214582Y-100609247D01*
X149219660Y-100591954D01*
X149245082Y-100415143D01*
X149245724Y-100406165D01*
X149245724Y-98111176D01*
X149244280Y-98097746D01*
X149178318Y-97794521D01*
X149169688Y-97773687D01*
X149039493Y-97571099D01*
X149027690Y-97557478D01*
X148847404Y-97401259D01*
X148832241Y-97391515D01*
X148615247Y-97292418D01*
X148597954Y-97287340D01*
X148421143Y-97261918D01*
X148412165Y-97261276D01*
X146117176Y-97261276D01*
X146103746Y-97262720D01*
X145800521Y-97328682D01*
X145779687Y-97337312D01*
X145577099Y-97467507D01*
X145563478Y-97479310D01*
X145407259Y-97659596D01*
X145397515Y-97674759D01*
X145298418Y-97891753D01*
X145293340Y-97909046D01*
X145267918Y-98085857D01*
X145267276Y-98094835D01*
X145267276Y-98364500D01*
X143004181Y-98364500D01*
X143022878Y-98258462D01*
X143023837Y-98247501D01*
X143023837Y-98118809D01*
X142950028Y-98045000D01*
X140593972Y-98045000D01*
X140520163Y-98118809D01*
X140520163Y-98250258D01*
X140522319Y-98266634D01*
X140548542Y-98364500D01*
X140360721Y-98364500D01*
X140326863Y-98238142D01*
X140314120Y-98213662D01*
X140183010Y-98057410D01*
X140166121Y-98043239D01*
X139991880Y-97942641D01*
X139971163Y-97935100D01*
X139852175Y-97914119D01*
X140065859Y-97856863D01*
X140073280Y-97853000D01*
X140233242Y-97853000D01*
X140251870Y-97857215D01*
X140269765Y-97858655D01*
X140360913Y-97853000D01*
X140391553Y-97853000D01*
X140400495Y-97852363D01*
X140422894Y-97849155D01*
X140504963Y-97844063D01*
X140522543Y-97840423D01*
X140547976Y-97831242D01*
X140574748Y-97827408D01*
X140591979Y-97822369D01*
X140665372Y-97789000D01*
X141570191Y-97789000D01*
X141644000Y-97715191D01*
X141644000Y-97023972D01*
X141900000Y-97023972D01*
X141900000Y-97715191D01*
X141973809Y-97789000D01*
X142950028Y-97789000D01*
X143023837Y-97715191D01*
X143023837Y-97583742D01*
X143021681Y-97567366D01*
X142946863Y-97288142D01*
X142934120Y-97263662D01*
X142803010Y-97107410D01*
X142786121Y-97093239D01*
X142611880Y-96992641D01*
X142591163Y-96985100D01*
X142398462Y-96951122D01*
X142387501Y-96950163D01*
X141973809Y-96950163D01*
X141900000Y-97023972D01*
X141644000Y-97023972D01*
X141570191Y-96950163D01*
X141506795Y-96950163D01*
X141538217Y-96883235D01*
X141543526Y-96865679D01*
X141547362Y-96840008D01*
X141557036Y-96814203D01*
X141560891Y-96796668D01*
X141567866Y-96702818D01*
X141571307Y-96679792D01*
X141572000Y-96670466D01*
X141572000Y-96647185D01*
X141578355Y-96561664D01*
X141577134Y-96543752D01*
X141572000Y-96519702D01*
X141572000Y-95867320D01*
X141673855Y-95749774D01*
X141683599Y-95734611D01*
X141707213Y-95682903D01*
X146005116Y-95682903D01*
X146012475Y-95796713D01*
X146156354Y-95907514D01*
X146163972Y-95912547D01*
X146407077Y-96048971D01*
X146415342Y-96052851D01*
X146675594Y-96152753D01*
X146684333Y-96155400D01*
X146956281Y-96216686D01*
X146965310Y-96218043D01*
X147243256Y-96239430D01*
X147252386Y-96239470D01*
X147530509Y-96220510D01*
X147539550Y-96219231D01*
X147812023Y-96160321D01*
X147820784Y-96157750D01*
X148081898Y-96060123D01*
X148090196Y-96056315D01*
X148334484Y-95922017D01*
X148342146Y-95917051D01*
X148500175Y-95797533D01*
X148508077Y-95683096D01*
X147308691Y-94483710D01*
X147204309Y-94483710D01*
X146005116Y-95682903D01*
X141707213Y-95682903D01*
X141781809Y-95519559D01*
X141786887Y-95502266D01*
X141812082Y-95327034D01*
X141812724Y-95318056D01*
X141812724Y-94309104D01*
X141811280Y-94295674D01*
X141790743Y-94201263D01*
X145268136Y-94201263D01*
X145280781Y-94479745D01*
X145281854Y-94488812D01*
X145334569Y-94762551D01*
X145336939Y-94771368D01*
X145428617Y-95034630D01*
X145432236Y-95043013D01*
X145560957Y-95290284D01*
X145565747Y-95298056D01*
X145706861Y-95493716D01*
X145822926Y-95503054D01*
X147023290Y-94302691D01*
X147023290Y-94198309D01*
X147489710Y-94198309D01*
X147489710Y-94302691D01*
X148689616Y-95502597D01*
X148805056Y-95493815D01*
X148938047Y-95312770D01*
X148942905Y-95305040D01*
X149073780Y-95058903D01*
X149077471Y-95050552D01*
X149171443Y-94788099D01*
X149173891Y-94779303D01*
X149229159Y-94505198D01*
X149230381Y-94494430D01*
X149240684Y-94113673D01*
X149240046Y-94102854D01*
X149199681Y-93826161D01*
X149197713Y-93817245D01*
X149118072Y-93550096D01*
X149114838Y-93541557D01*
X148997466Y-93288702D01*
X148993033Y-93280720D01*
X148813410Y-93006229D01*
X148694117Y-92993902D01*
X147489710Y-94198309D01*
X147023290Y-94198309D01*
X145824125Y-92999144D01*
X145711955Y-93005121D01*
X145624872Y-93113043D01*
X145619667Y-93120545D01*
X145477763Y-93360493D01*
X145473696Y-93368668D01*
X145367915Y-93626586D01*
X145365071Y-93635262D01*
X145297631Y-93905751D01*
X145296069Y-93914746D01*
X145268383Y-94192136D01*
X145268136Y-94201263D01*
X141790743Y-94201263D01*
X141745919Y-93995212D01*
X141737289Y-93974378D01*
X141608248Y-93773587D01*
X141596445Y-93759966D01*
X141417774Y-93605145D01*
X141402611Y-93595401D01*
X141187559Y-93497191D01*
X141170266Y-93492113D01*
X140995034Y-93466918D01*
X140986056Y-93466276D01*
X140402104Y-93466276D01*
X140388674Y-93467720D01*
X140228000Y-93502672D01*
X140228000Y-93281206D01*
X140237534Y-93272945D01*
X140392355Y-93094274D01*
X140402099Y-93079111D01*
X140500309Y-92864059D01*
X140505387Y-92846766D01*
X140509917Y-92815256D01*
X146002275Y-92815256D01*
X147204309Y-94017290D01*
X147308691Y-94017290D01*
X148508506Y-92817475D01*
X148503875Y-92706952D01*
X148430683Y-92645099D01*
X148423300Y-92639725D01*
X148186633Y-92492412D01*
X148178552Y-92488161D01*
X147923100Y-92376557D01*
X147914490Y-92373516D01*
X147645603Y-92299957D01*
X147636645Y-92298192D01*
X147359953Y-92264218D01*
X147350834Y-92263764D01*
X147072138Y-92270089D01*
X147063049Y-92270956D01*
X146788185Y-92317446D01*
X146779316Y-92319616D01*
X146514041Y-92405297D01*
X146505578Y-92408725D01*
X146255451Y-92531803D01*
X146247572Y-92536416D01*
X146013088Y-92697572D01*
X146002275Y-92815256D01*
X140509917Y-92815256D01*
X140530582Y-92671534D01*
X140531224Y-92662556D01*
X140531224Y-92078604D01*
X140529780Y-92065174D01*
X140464419Y-91764712D01*
X140455789Y-91743878D01*
X140326748Y-91543087D01*
X140314945Y-91529466D01*
X140196854Y-91427138D01*
X140223913Y-91409748D01*
X140237534Y-91397945D01*
X140392355Y-91219274D01*
X140402099Y-91204111D01*
X140500309Y-90989059D01*
X140505387Y-90971766D01*
X140530582Y-90796534D01*
X140531224Y-90787556D01*
X140531224Y-90203604D01*
X140529780Y-90190174D01*
X140470773Y-89918923D01*
X140573441Y-89965809D01*
X140590734Y-89970887D01*
X140765966Y-89996082D01*
X140774944Y-89996724D01*
X141085691Y-89996724D01*
X141159500Y-89922915D01*
X141415499Y-89922915D01*
X141489308Y-89996724D01*
X141783896Y-89996724D01*
X141797326Y-89995280D01*
X142097788Y-89929919D01*
X142118622Y-89921289D01*
X142319413Y-89792248D01*
X142333034Y-89780445D01*
X142487855Y-89601774D01*
X142497599Y-89586611D01*
X142595809Y-89371559D01*
X142600887Y-89354266D01*
X142626082Y-89179034D01*
X142626724Y-89170056D01*
X142626724Y-89071809D01*
X142552915Y-88998000D01*
X141489309Y-88997999D01*
X141415500Y-89071808D01*
X141415499Y-89922915D01*
X141159500Y-89922915D01*
X141159501Y-89071809D01*
X141085692Y-88998000D01*
X140125190Y-88997999D01*
X140091691Y-88964500D01*
X139064000Y-88964499D01*
X139064001Y-88708500D01*
X140354310Y-88708501D01*
X140387809Y-88742000D01*
X141085692Y-88742001D01*
X141085693Y-88742000D01*
X142552915Y-88742001D01*
X142626724Y-88668192D01*
X142626724Y-88586104D01*
X142625280Y-88572674D01*
X142559919Y-88272212D01*
X142551289Y-88251378D01*
X142422248Y-88050587D01*
X142410445Y-88036966D01*
X142292354Y-87934638D01*
X142319413Y-87917248D01*
X142333034Y-87905445D01*
X142487855Y-87726774D01*
X142497599Y-87711611D01*
X142529704Y-87641308D01*
X145140276Y-87641308D01*
X145140276Y-88578824D01*
X145141720Y-88592254D01*
X145207682Y-88895479D01*
X145216312Y-88916313D01*
X145346507Y-89118901D01*
X145358310Y-89132522D01*
X145538596Y-89288741D01*
X145553759Y-89298485D01*
X145770753Y-89397582D01*
X145788046Y-89402660D01*
X145964857Y-89428082D01*
X145973835Y-89428724D01*
X146927691Y-89428724D01*
X147001500Y-89354915D01*
X147257499Y-89354915D01*
X147331308Y-89428724D01*
X148268824Y-89428724D01*
X148282254Y-89427280D01*
X148585479Y-89361318D01*
X148606313Y-89352688D01*
X148808901Y-89222493D01*
X148822522Y-89210690D01*
X148978741Y-89030404D01*
X148988485Y-89015241D01*
X149087582Y-88798247D01*
X149092660Y-88780954D01*
X149118082Y-88604143D01*
X149118724Y-88595165D01*
X149118724Y-87641309D01*
X149044915Y-87567500D01*
X147331309Y-87567499D01*
X147257500Y-87641308D01*
X147257499Y-89354915D01*
X147001500Y-89354915D01*
X147001501Y-87641309D01*
X146927692Y-87567500D01*
X145214085Y-87567499D01*
X145140276Y-87641308D01*
X142529704Y-87641308D01*
X142595809Y-87496559D01*
X142600887Y-87479266D01*
X142626082Y-87304034D01*
X142626724Y-87295056D01*
X142626724Y-86908768D01*
X142643904Y-86891588D01*
X142660064Y-86881392D01*
X142673735Y-86869757D01*
X142734208Y-86801284D01*
X142755852Y-86779641D01*
X142761725Y-86772867D01*
X142775292Y-86754764D01*
X142829728Y-86693127D01*
X142839585Y-86678123D01*
X142851078Y-86653644D01*
X142867295Y-86632006D01*
X142875916Y-86616258D01*
X142904782Y-86539256D01*
X142939817Y-86464635D01*
X142945126Y-86447079D01*
X142948962Y-86421408D01*
X142958636Y-86395603D01*
X142962491Y-86378068D01*
X142969466Y-86284218D01*
X142969523Y-86283835D01*
X145140276Y-86283835D01*
X145140276Y-87237691D01*
X145214085Y-87311500D01*
X146927691Y-87311501D01*
X147001500Y-87237692D01*
X147001500Y-87237691D01*
X147257499Y-87237691D01*
X147331308Y-87311500D01*
X149044915Y-87311501D01*
X149118724Y-87237692D01*
X149118724Y-86300176D01*
X149117280Y-86286746D01*
X149051318Y-85983521D01*
X149042688Y-85962687D01*
X148912493Y-85760099D01*
X148900690Y-85746478D01*
X148720404Y-85590259D01*
X148705241Y-85580515D01*
X148488247Y-85481418D01*
X148470954Y-85476340D01*
X148294143Y-85450918D01*
X148285165Y-85450276D01*
X147331309Y-85450276D01*
X147257500Y-85524085D01*
X147257499Y-87237691D01*
X147001500Y-87237691D01*
X147001501Y-85524085D01*
X146927692Y-85450276D01*
X145990176Y-85450276D01*
X145976746Y-85451720D01*
X145673521Y-85517682D01*
X145652687Y-85526312D01*
X145450099Y-85656507D01*
X145436478Y-85668310D01*
X145280259Y-85848596D01*
X145270515Y-85863759D01*
X145171418Y-86080753D01*
X145166340Y-86098046D01*
X145140918Y-86274857D01*
X145140276Y-86283835D01*
X142969523Y-86283835D01*
X142972907Y-86261192D01*
X142973600Y-86251866D01*
X142973600Y-86228585D01*
X142979955Y-86143064D01*
X142978734Y-86125152D01*
X142973600Y-86101102D01*
X142973600Y-86042521D01*
X143119513Y-85948748D01*
X143133134Y-85936945D01*
X143287955Y-85758274D01*
X143297699Y-85743111D01*
X143395909Y-85528059D01*
X143400987Y-85510766D01*
X143426182Y-85335534D01*
X143426824Y-85326556D01*
X143426824Y-84742604D01*
X143425380Y-84729174D01*
X143360019Y-84428712D01*
X143351389Y-84407878D01*
X143222348Y-84207087D01*
X143210545Y-84193466D01*
X143092454Y-84091138D01*
X143119513Y-84073748D01*
X143133134Y-84061945D01*
X143287955Y-83883274D01*
X143297699Y-83868111D01*
X143395909Y-83653059D01*
X143400987Y-83635766D01*
X143426182Y-83460534D01*
X143426824Y-83451556D01*
X143426824Y-82867604D01*
X143425380Y-82854174D01*
X143360019Y-82553712D01*
X143351389Y-82532878D01*
X143259736Y-82390263D01*
X145141136Y-82390263D01*
X145153781Y-82668745D01*
X145154854Y-82677812D01*
X145207569Y-82951551D01*
X145209939Y-82960368D01*
X145301617Y-83223630D01*
X145305236Y-83232013D01*
X145433957Y-83479284D01*
X145438747Y-83487056D01*
X145601814Y-83713155D01*
X145607677Y-83720155D01*
X145801676Y-83920346D01*
X145808488Y-83926425D01*
X146029354Y-84096514D01*
X146036972Y-84101547D01*
X146280077Y-84237971D01*
X146288342Y-84241851D01*
X146548594Y-84341753D01*
X146557333Y-84344400D01*
X146829281Y-84405686D01*
X146838310Y-84407043D01*
X147116256Y-84428430D01*
X147125386Y-84428470D01*
X147403509Y-84409510D01*
X147412550Y-84408231D01*
X147685023Y-84349321D01*
X147693784Y-84346750D01*
X147954898Y-84249123D01*
X147963196Y-84245315D01*
X148207483Y-84111017D01*
X148215145Y-84106051D01*
X148437486Y-83937896D01*
X148444351Y-83931876D01*
X148640089Y-83733386D01*
X148646012Y-83726438D01*
X148811047Y-83501770D01*
X148815905Y-83494040D01*
X148946780Y-83247903D01*
X148950471Y-83239552D01*
X149044443Y-82977099D01*
X149046891Y-82968303D01*
X149102159Y-82694198D01*
X149103381Y-82683430D01*
X149113684Y-82302673D01*
X149113046Y-82291854D01*
X149072681Y-82015161D01*
X149070713Y-82006245D01*
X148991072Y-81739096D01*
X148987838Y-81730557D01*
X148870467Y-81477702D01*
X148866033Y-81469720D01*
X148713389Y-81236457D01*
X148707850Y-81229199D01*
X148523132Y-81020414D01*
X148516604Y-81014031D01*
X148303682Y-80834098D01*
X148296300Y-80828725D01*
X148059633Y-80681412D01*
X148051552Y-80677161D01*
X147796100Y-80565557D01*
X147787490Y-80562516D01*
X147518603Y-80488957D01*
X147509645Y-80487192D01*
X147232953Y-80453218D01*
X147223834Y-80452764D01*
X146945138Y-80459089D01*
X146936049Y-80459956D01*
X146661185Y-80506446D01*
X146652316Y-80508616D01*
X146387041Y-80594297D01*
X146378578Y-80597725D01*
X146128451Y-80720803D01*
X146120572Y-80725416D01*
X145890833Y-80883312D01*
X145883702Y-80889014D01*
X145679161Y-81078422D01*
X145672928Y-81085094D01*
X145497872Y-81302043D01*
X145492667Y-81309545D01*
X145350763Y-81549493D01*
X145346696Y-81557668D01*
X145240915Y-81815586D01*
X145238071Y-81824262D01*
X145170631Y-82094751D01*
X145169069Y-82103746D01*
X145141383Y-82381136D01*
X145141136Y-82390263D01*
X143259736Y-82390263D01*
X143222348Y-82332087D01*
X143210545Y-82318466D01*
X143065335Y-82192639D01*
X143121444Y-81983238D01*
X143123600Y-81966862D01*
X143123600Y-81710738D01*
X143121444Y-81694362D01*
X143055154Y-81446965D01*
X143048833Y-81431705D01*
X142920771Y-81209895D01*
X142910716Y-81196791D01*
X142729609Y-81015684D01*
X142716505Y-81005629D01*
X142494695Y-80877567D01*
X142479435Y-80871246D01*
X142232038Y-80804956D01*
X142215662Y-80802800D01*
X141959538Y-80802800D01*
X141943162Y-80804956D01*
X141695765Y-80871246D01*
X141680505Y-80877567D01*
X141458695Y-81005629D01*
X141445591Y-81015684D01*
X141264484Y-81196791D01*
X141254429Y-81209895D01*
X141126367Y-81431705D01*
X141120046Y-81446965D01*
X141053756Y-81694362D01*
X141051600Y-81710738D01*
X141051600Y-81966862D01*
X141053756Y-81983238D01*
X141110275Y-82194170D01*
X141055687Y-82229252D01*
X141042066Y-82241055D01*
X140887245Y-82419726D01*
X140877501Y-82434889D01*
X140779291Y-82649941D01*
X140774213Y-82667234D01*
X140749018Y-82842466D01*
X140748376Y-82851444D01*
X140748376Y-83435396D01*
X140749820Y-83448826D01*
X140815181Y-83749288D01*
X140823811Y-83770122D01*
X140952852Y-83970913D01*
X140964655Y-83984534D01*
X141082746Y-84086862D01*
X141055687Y-84104252D01*
X141042066Y-84116055D01*
X140887245Y-84294726D01*
X140877501Y-84309889D01*
X140779291Y-84524941D01*
X140774213Y-84542234D01*
X140749018Y-84717466D01*
X140748376Y-84726444D01*
X140748376Y-85310396D01*
X140749820Y-85323826D01*
X140815181Y-85624288D01*
X140823811Y-85645122D01*
X140952852Y-85845913D01*
X140964655Y-85859534D01*
X140974744Y-85868276D01*
X140791104Y-85868276D01*
X140777674Y-85869720D01*
X140477212Y-85935081D01*
X140456378Y-85943711D01*
X140255587Y-86072752D01*
X140253118Y-86074892D01*
X140136274Y-85973645D01*
X140121111Y-85963901D01*
X139906059Y-85865691D01*
X139888766Y-85860613D01*
X139713534Y-85835418D01*
X139704556Y-85834776D01*
X139258344Y-85834776D01*
X139260495Y-85831906D01*
X139269116Y-85816158D01*
X139297982Y-85739156D01*
X139333017Y-85664535D01*
X139338326Y-85646979D01*
X139342162Y-85621308D01*
X139351836Y-85595503D01*
X139355691Y-85577968D01*
X139362666Y-85484118D01*
X139366107Y-85461092D01*
X139366800Y-85451766D01*
X139366800Y-85428485D01*
X139373155Y-85342964D01*
X139371934Y-85325052D01*
X139366800Y-85301002D01*
X139366800Y-82767220D01*
X139369919Y-82764954D01*
X139378377Y-82757576D01*
X139537868Y-82591261D01*
X139544885Y-82582502D01*
X139672402Y-82390572D01*
X139677758Y-82380709D01*
X139769272Y-82169232D01*
X139772795Y-82158577D01*
X139825604Y-81933431D01*
X139827251Y-81920660D01*
X139835007Y-81624459D01*
X139834031Y-81611621D01*
X139793079Y-81384019D01*
X139790117Y-81373193D01*
X139709795Y-81157216D01*
X139704964Y-81147087D01*
X139587666Y-80948746D01*
X139581117Y-80939632D01*
X139430550Y-80765198D01*
X139422490Y-80757388D01*
X139243412Y-80612374D01*
X139234097Y-80606115D01*
X139032171Y-80495104D01*
X139021894Y-80490593D01*
X138803499Y-80417095D01*
X138792587Y-80414475D01*
X138564629Y-80380813D01*
X138553425Y-80380167D01*
X138323109Y-80387405D01*
X138311968Y-80388754D01*
X138086573Y-80436663D01*
X138075847Y-80439963D01*
X137862499Y-80527029D01*
X137852526Y-80532176D01*
X137657968Y-80655646D01*
X137649064Y-80662478D01*
X137479445Y-80818450D01*
X137471892Y-80826751D01*
X137332574Y-81010295D01*
X137326611Y-81019802D01*
X137221998Y-81225117D01*
X137217812Y-81235530D01*
X137151211Y-81456125D01*
X137148935Y-81467115D01*
X137122450Y-81696017D01*
X137122156Y-81707236D01*
X137136625Y-81937211D01*
X137138323Y-81948305D01*
X137193288Y-82172083D01*
X137196923Y-82182700D01*
X137290647Y-82393209D01*
X137296105Y-82403016D01*
X137425626Y-82593599D01*
X137432734Y-82602284D01*
X137593958Y-82766919D01*
X137594800Y-82767638D01*
X137594801Y-85027808D01*
X137582409Y-85040200D01*
X137059566Y-85040200D01*
X137132402Y-84930572D01*
X137137758Y-84920709D01*
X137229272Y-84709232D01*
X137232795Y-84698577D01*
X137285604Y-84473431D01*
X137287251Y-84460660D01*
X137295007Y-84164459D01*
X137294031Y-84151621D01*
X137253079Y-83924019D01*
X137250117Y-83913193D01*
X137169795Y-83697216D01*
X137164964Y-83687087D01*
X137047666Y-83488746D01*
X137041117Y-83479632D01*
X136890550Y-83305198D01*
X136882490Y-83297388D01*
X136703412Y-83152374D01*
X136694097Y-83146115D01*
X136492171Y-83035104D01*
X136481894Y-83030593D01*
X136263499Y-82957095D01*
X136252587Y-82954475D01*
X136024629Y-82920813D01*
X136013425Y-82920167D01*
X135783109Y-82927405D01*
X135771968Y-82928754D01*
X135546573Y-82976663D01*
X135535847Y-82979963D01*
X135322499Y-83067029D01*
X135312526Y-83072176D01*
X135117968Y-83195646D01*
X135109064Y-83202478D01*
X134939445Y-83358450D01*
X134931892Y-83366751D01*
X134874677Y-83442129D01*
X134844456Y-83455870D01*
X134766922Y-83483860D01*
X134750756Y-83492520D01*
X134729890Y-83507959D01*
X134704801Y-83519367D01*
X134689676Y-83529039D01*
X134618371Y-83590480D01*
X134599669Y-83604319D01*
X134592585Y-83610422D01*
X134576134Y-83626874D01*
X134511154Y-83682864D01*
X134499352Y-83696394D01*
X134485972Y-83717037D01*
X133758900Y-84444109D01*
X133742737Y-84454307D01*
X133729065Y-84465943D01*
X133668586Y-84534422D01*
X133646948Y-84556060D01*
X133641076Y-84562833D01*
X133627517Y-84580924D01*
X133573071Y-84642574D01*
X133563215Y-84657578D01*
X133551720Y-84682061D01*
X133535505Y-84703697D01*
X133526884Y-84719444D01*
X133498019Y-84796441D01*
X133462983Y-84871066D01*
X133457674Y-84888622D01*
X133453838Y-84914293D01*
X133444164Y-84940098D01*
X133440309Y-84957633D01*
X133433335Y-85051479D01*
X133429893Y-85074510D01*
X133429200Y-85083835D01*
X133429200Y-85107119D01*
X133422844Y-85192636D01*
X133424065Y-85210548D01*
X133429200Y-85234603D01*
X133429200Y-85834371D01*
X133428133Y-85834218D01*
X133419156Y-85833576D01*
X132835204Y-85833576D01*
X132821774Y-85835020D01*
X132521312Y-85900381D01*
X132500478Y-85909011D01*
X132299687Y-86038052D01*
X132286066Y-86049855D01*
X132183738Y-86167946D01*
X132166348Y-86140887D01*
X132154545Y-86127266D01*
X131975874Y-85972445D01*
X131960711Y-85962701D01*
X131745659Y-85864491D01*
X131728366Y-85859413D01*
X131553134Y-85834218D01*
X131544156Y-85833576D01*
X131445909Y-85833576D01*
X131372100Y-85907385D01*
X131372100Y-87300800D01*
X130209793Y-87300800D01*
X129919189Y-87010197D01*
X129908993Y-86994037D01*
X129897357Y-86980365D01*
X129847007Y-86935898D01*
X129807919Y-86756212D01*
X129799289Y-86735378D01*
X129751004Y-86660244D01*
X130117376Y-86660244D01*
X130117376Y-86970991D01*
X130191185Y-87044800D01*
X131042291Y-87044800D01*
X131116100Y-86970991D01*
X131116100Y-85907385D01*
X131042291Y-85833576D01*
X130960204Y-85833576D01*
X130946774Y-85835020D01*
X130646312Y-85900381D01*
X130625478Y-85909011D01*
X130424687Y-86038052D01*
X130411066Y-86049855D01*
X130256245Y-86228526D01*
X130246501Y-86243689D01*
X130148291Y-86458741D01*
X130143213Y-86476034D01*
X130118018Y-86651266D01*
X130117376Y-86660244D01*
X129751004Y-86660244D01*
X129670248Y-86534587D01*
X129658445Y-86520966D01*
X129650350Y-86513951D01*
X129735855Y-86415274D01*
X129745599Y-86400111D01*
X129843809Y-86185059D01*
X129848887Y-86167766D01*
X129874082Y-85992534D01*
X129874724Y-85983556D01*
X129874724Y-84974604D01*
X129873280Y-84961174D01*
X129807919Y-84660712D01*
X129799289Y-84639878D01*
X129670248Y-84439087D01*
X129658445Y-84425466D01*
X129479774Y-84270645D01*
X129464611Y-84260901D01*
X129249559Y-84162691D01*
X129232266Y-84157613D01*
X129057034Y-84132418D01*
X129048056Y-84131776D01*
X128464104Y-84131776D01*
X128450674Y-84133220D01*
X128150212Y-84198581D01*
X128129378Y-84207211D01*
X127928587Y-84336252D01*
X127914966Y-84348055D01*
X127812638Y-84466146D01*
X127795248Y-84439087D01*
X127783445Y-84425466D01*
X127604774Y-84270645D01*
X127589611Y-84260901D01*
X127374559Y-84162691D01*
X127357266Y-84157613D01*
X127182034Y-84132418D01*
X127173056Y-84131776D01*
X126589104Y-84131776D01*
X126575674Y-84133220D01*
X126275212Y-84198581D01*
X126254378Y-84207211D01*
X126053587Y-84336252D01*
X126039966Y-84348055D01*
X125885145Y-84526726D01*
X125875401Y-84541888D01*
X125855712Y-84585000D01*
X125500135Y-84585000D01*
X125428363Y-84317142D01*
X125415620Y-84292662D01*
X125386223Y-84257628D01*
X125455359Y-84137880D01*
X125462900Y-84117163D01*
X125496878Y-83924462D01*
X125497837Y-83913501D01*
X125497837Y-83259809D01*
X125424028Y-83186000D01*
X122987972Y-83186000D01*
X122914163Y-83259809D01*
X122914163Y-83916258D01*
X122916319Y-83932634D01*
X122991137Y-84211859D01*
X123003880Y-84236339D01*
X123033277Y-84271373D01*
X122964141Y-84391120D01*
X122956600Y-84411837D01*
X122922622Y-84604538D01*
X122921663Y-84615499D01*
X122921663Y-86329258D01*
X122923819Y-86345634D01*
X122998637Y-86624859D01*
X123011380Y-86649339D01*
X123142490Y-86805590D01*
X123159379Y-86819761D01*
X123327500Y-86916826D01*
X123327501Y-88828815D01*
X123150223Y-88942744D01*
X123136602Y-88954547D01*
X122980593Y-89134591D01*
X122970849Y-89149753D01*
X122871884Y-89366457D01*
X122866806Y-89383750D01*
X122841418Y-89560327D01*
X122840776Y-89569304D01*
X122052724Y-89569304D01*
X122052724Y-89281104D01*
X122051280Y-89267674D01*
X121985919Y-88967212D01*
X121977289Y-88946378D01*
X121848248Y-88745587D01*
X121836445Y-88731966D01*
X121657774Y-88577145D01*
X121642612Y-88567401D01*
X121599500Y-88547712D01*
X121599500Y-86904046D01*
X121667359Y-86885863D01*
X121691839Y-86873120D01*
X121848090Y-86742010D01*
X121862261Y-86725121D01*
X121962859Y-86550880D01*
X121970400Y-86530163D01*
X122004378Y-86337462D01*
X122005337Y-86326501D01*
X122005337Y-84612742D01*
X122003181Y-84596366D01*
X121928363Y-84317142D01*
X121915620Y-84292662D01*
X121886223Y-84257628D01*
X121955359Y-84137880D01*
X121962900Y-84117163D01*
X121996878Y-83924462D01*
X121997837Y-83913501D01*
X121997837Y-82202499D01*
X122914163Y-82202499D01*
X122914163Y-82856191D01*
X122987972Y-82930000D01*
X124004191Y-82930000D01*
X124078000Y-82856191D01*
X124078000Y-81639972D01*
X124334000Y-81639972D01*
X124334000Y-82856191D01*
X124407809Y-82930000D01*
X125424028Y-82930000D01*
X125497837Y-82856191D01*
X125497837Y-82199742D01*
X125495681Y-82183366D01*
X125439609Y-81974100D01*
X126067597Y-81974100D01*
X126067597Y-81982900D01*
X126087800Y-82271820D01*
X126089025Y-82280535D01*
X126149241Y-82563832D01*
X126151667Y-82572291D01*
X126250726Y-82844450D01*
X126254305Y-82852489D01*
X126390275Y-83108214D01*
X126394939Y-83115677D01*
X126565177Y-83349990D01*
X126570834Y-83356731D01*
X126772025Y-83565070D01*
X126778564Y-83570958D01*
X127006793Y-83749270D01*
X127014088Y-83754191D01*
X127264911Y-83899004D01*
X127272821Y-83902862D01*
X127541358Y-84011358D01*
X127549728Y-84014078D01*
X127830750Y-84084144D01*
X127839416Y-84085672D01*
X128127456Y-84115947D01*
X128136251Y-84116254D01*
X128425701Y-84106146D01*
X128434453Y-84105226D01*
X128719678Y-84054933D01*
X128728216Y-84052804D01*
X129003668Y-83963304D01*
X129011827Y-83960008D01*
X129272141Y-83833044D01*
X129279763Y-83828644D01*
X129519873Y-83666687D01*
X129526808Y-83661269D01*
X129742041Y-83467472D01*
X129748154Y-83461142D01*
X129934323Y-83239276D01*
X129939495Y-83232156D01*
X130092974Y-82986539D01*
X130097105Y-82978769D01*
X130212579Y-82719407D01*
X132599612Y-82719407D01*
X132609400Y-82835972D01*
X132710321Y-82907692D01*
X132720011Y-82913354D01*
X132928509Y-83011466D01*
X132939049Y-83015322D01*
X133161627Y-83074962D01*
X133172683Y-83076892D01*
X133402304Y-83096174D01*
X133413527Y-83096115D01*
X133642934Y-83074430D01*
X133653969Y-83072385D01*
X133875910Y-83010417D01*
X133886408Y-83006450D01*
X134093868Y-82906160D01*
X134103497Y-82900397D01*
X134193012Y-82835363D01*
X134202127Y-82719546D01*
X133452991Y-81970410D01*
X133348609Y-81970410D01*
X132599612Y-82719407D01*
X130212579Y-82719407D01*
X130214906Y-82714182D01*
X130217916Y-82705913D01*
X130297748Y-82427507D01*
X130299577Y-82418899D01*
X130339886Y-82132092D01*
X130340500Y-82123313D01*
X130340500Y-81833687D01*
X130339886Y-81824908D01*
X130323348Y-81707236D01*
X132042156Y-81707236D01*
X132056625Y-81937211D01*
X132058323Y-81948305D01*
X132113288Y-82172083D01*
X132116923Y-82182700D01*
X132210647Y-82393209D01*
X132216105Y-82403016D01*
X132300528Y-82527238D01*
X132418584Y-82538397D01*
X133167590Y-81789391D01*
X133167590Y-81685009D01*
X133634010Y-81685009D01*
X133634010Y-81789391D01*
X134383167Y-82538548D01*
X134501965Y-82526690D01*
X134592402Y-82390573D01*
X134597758Y-82380709D01*
X134689272Y-82169232D01*
X134692795Y-82158577D01*
X134745604Y-81933431D01*
X134747251Y-81920660D01*
X134755007Y-81624459D01*
X134754031Y-81611621D01*
X134713079Y-81384019D01*
X134710117Y-81373193D01*
X134629795Y-81157216D01*
X134624964Y-81147087D01*
X134507874Y-80949098D01*
X134385394Y-80933625D01*
X133634010Y-81685009D01*
X133167590Y-81685009D01*
X132417889Y-80935308D01*
X132303575Y-80943102D01*
X132252574Y-81010297D01*
X132246610Y-81019803D01*
X132141998Y-81225117D01*
X132137812Y-81235530D01*
X132071211Y-81456125D01*
X132068935Y-81467115D01*
X132042450Y-81696017D01*
X132042156Y-81707236D01*
X130323348Y-81707236D01*
X130299577Y-81538101D01*
X130297748Y-81529493D01*
X130217916Y-81251087D01*
X130214906Y-81242818D01*
X130097105Y-80978231D01*
X130092974Y-80970461D01*
X129957864Y-80754239D01*
X132598859Y-80754239D01*
X133348609Y-81503990D01*
X133452991Y-81503990D01*
X134206920Y-80750061D01*
X134189178Y-80625400D01*
X133952171Y-80495104D01*
X133941894Y-80490593D01*
X133723499Y-80417095D01*
X133712587Y-80414475D01*
X133484629Y-80380813D01*
X133473425Y-80380167D01*
X133243109Y-80387405D01*
X133231968Y-80388754D01*
X133006573Y-80436663D01*
X132995847Y-80439963D01*
X132782499Y-80527029D01*
X132772526Y-80532176D01*
X132612137Y-80633962D01*
X132598859Y-80754239D01*
X129957864Y-80754239D01*
X129939495Y-80724844D01*
X129934323Y-80717724D01*
X129748154Y-80495858D01*
X129742041Y-80489528D01*
X129526808Y-80295731D01*
X129519873Y-80290313D01*
X129279763Y-80128356D01*
X129272141Y-80123956D01*
X129011827Y-79996992D01*
X129003668Y-79993696D01*
X128728216Y-79904196D01*
X128719678Y-79902067D01*
X128434453Y-79851774D01*
X128425701Y-79850854D01*
X128136251Y-79840746D01*
X128127456Y-79841053D01*
X127839416Y-79871328D01*
X127830750Y-79872856D01*
X127549728Y-79942922D01*
X127541358Y-79945642D01*
X127272821Y-80054138D01*
X127264911Y-80057996D01*
X127014088Y-80202809D01*
X127006793Y-80207730D01*
X126778564Y-80386042D01*
X126772025Y-80391930D01*
X126570834Y-80600269D01*
X126565177Y-80607010D01*
X126394939Y-80841323D01*
X126390275Y-80848786D01*
X126254305Y-81104511D01*
X126250726Y-81112550D01*
X126151667Y-81384709D01*
X126149241Y-81393168D01*
X126089025Y-81676465D01*
X126087800Y-81685180D01*
X126067597Y-81974100D01*
X125439609Y-81974100D01*
X125420863Y-81904142D01*
X125408120Y-81879662D01*
X125277010Y-81723410D01*
X125260121Y-81709239D01*
X125085880Y-81608641D01*
X125065163Y-81601100D01*
X124872462Y-81567122D01*
X124861501Y-81566163D01*
X124407809Y-81566163D01*
X124334000Y-81639972D01*
X124078000Y-81639972D01*
X124004191Y-81566163D01*
X123547742Y-81566163D01*
X123531366Y-81568319D01*
X123252142Y-81643137D01*
X123227662Y-81655880D01*
X123071410Y-81786990D01*
X123057239Y-81803879D01*
X122956641Y-81978120D01*
X122949100Y-81998837D01*
X122915122Y-82191538D01*
X122914163Y-82202499D01*
X121997837Y-82202499D01*
X121997837Y-82199742D01*
X121995681Y-82183366D01*
X121920863Y-81904142D01*
X121908120Y-81879662D01*
X121777010Y-81723410D01*
X121760121Y-81709239D01*
X121585880Y-81608641D01*
X121565163Y-81601100D01*
X121372462Y-81567122D01*
X121361501Y-81566163D01*
X120047742Y-81566163D01*
X120031366Y-81568319D01*
X119752142Y-81643137D01*
X119727662Y-81655880D01*
X119571410Y-81786990D01*
X119557239Y-81803879D01*
X119456641Y-81978120D01*
X119449100Y-81998837D01*
X119415122Y-82191538D01*
X119414163Y-82202499D01*
X119414163Y-83315000D01*
X116018569Y-83315000D01*
X115873415Y-83120969D01*
X115866721Y-83113377D01*
X115684881Y-82937776D01*
X115677060Y-82931351D01*
X115469482Y-82787081D01*
X115460735Y-82781990D01*
X115232763Y-82672764D01*
X115223314Y-82669137D01*
X114980810Y-82597765D01*
X114970903Y-82595695D01*
X114720109Y-82564011D01*
X114709997Y-82563552D01*
X114457363Y-82572374D01*
X114447308Y-82573538D01*
X114199335Y-82622639D01*
X114189596Y-82625394D01*
X113952663Y-82713508D01*
X113943490Y-82717786D01*
X113723691Y-82842649D01*
X113715320Y-82848338D01*
X113518313Y-83006737D01*
X113510959Y-83013691D01*
X113341811Y-83201548D01*
X113335663Y-83209589D01*
X113198726Y-83422075D01*
X113193943Y-83430994D01*
X113092739Y-83662639D01*
X113089444Y-83672209D01*
X113026578Y-83917056D01*
X113024855Y-83927030D01*
X113001945Y-84178777D01*
X113001839Y-84188898D01*
X110552500Y-84188898D01*
X110552500Y-79247000D01*
X153099501Y-79247000D01*
X153099500Y-102490000D01*
G37*
%TD.AperFunction*%
X133835601Y-91315337D02*
X133831385Y-91333969D01*
X133829945Y-91351865D01*
X133835601Y-91443029D01*
X133835601Y-91473652D01*
X133836238Y-91482594D01*
X133839445Y-91504990D01*
X133844537Y-91587064D01*
X133848178Y-91604644D01*
X133857359Y-91630076D01*
X133861193Y-91656847D01*
X133866232Y-91674079D01*
X133900269Y-91748942D01*
X133928260Y-91826477D01*
X133936920Y-91842645D01*
X133952362Y-91863513D01*
X133963767Y-91888598D01*
X133973440Y-91903723D01*
X134034874Y-91975020D01*
X134048719Y-91993731D01*
X134054823Y-92000815D01*
X134071275Y-92017266D01*
X134127264Y-92082245D01*
X134140792Y-92094046D01*
X134161434Y-92107426D01*
X134240812Y-92186804D01*
X134251008Y-92202964D01*
X134262644Y-92216636D01*
X134331110Y-92277102D01*
X134352759Y-92298752D01*
X134359535Y-92304627D01*
X134377635Y-92318192D01*
X134439272Y-92372628D01*
X134454278Y-92382485D01*
X134478755Y-92393977D01*
X134500396Y-92410195D01*
X134516143Y-92418817D01*
X134593145Y-92447683D01*
X134667765Y-92482717D01*
X134685321Y-92488026D01*
X134710992Y-92491862D01*
X134736797Y-92501536D01*
X134754332Y-92505391D01*
X134848179Y-92512365D01*
X134871209Y-92515807D01*
X134880534Y-92516500D01*
X134903819Y-92516500D01*
X134989336Y-92522856D01*
X135007248Y-92521635D01*
X135031303Y-92516500D01*
X135427303Y-92516500D01*
X135424458Y-92525723D01*
X135399967Y-92688211D01*
X135399262Y-92697613D01*
X135399262Y-93094424D01*
X135400363Y-93106162D01*
X135442436Y-93328529D01*
X135449831Y-93348458D01*
X135517853Y-93466276D01*
X135456809Y-93466276D01*
X135383000Y-93540085D01*
X135382999Y-94603692D01*
X135383000Y-94603693D01*
X135382999Y-96070915D01*
X135456808Y-96144724D01*
X135538896Y-96144724D01*
X135552326Y-96143280D01*
X135852788Y-96077919D01*
X135873622Y-96069289D01*
X136074413Y-95940248D01*
X136088034Y-95928445D01*
X136190362Y-95810354D01*
X136207752Y-95837413D01*
X136219555Y-95851034D01*
X136398226Y-96005855D01*
X136413389Y-96015599D01*
X136628441Y-96113809D01*
X136645734Y-96118887D01*
X136820966Y-96144082D01*
X136829944Y-96144724D01*
X137413896Y-96144724D01*
X137427326Y-96143280D01*
X137727788Y-96077919D01*
X137748622Y-96069289D01*
X137949413Y-95940248D01*
X137963034Y-95928445D01*
X137974552Y-95915153D01*
X138079226Y-96005855D01*
X138094389Y-96015599D01*
X138233935Y-96079327D01*
X138213662Y-96089880D01*
X138057410Y-96220990D01*
X138043239Y-96237879D01*
X137942641Y-96412120D01*
X137935100Y-96432837D01*
X137901122Y-96625538D01*
X137900163Y-96636499D01*
X137900163Y-97300258D01*
X137902319Y-97316634D01*
X137977137Y-97595859D01*
X137989880Y-97620339D01*
X138120990Y-97776590D01*
X138137879Y-97790761D01*
X138312120Y-97891359D01*
X138332837Y-97898900D01*
X138451825Y-97919881D01*
X138238142Y-97977137D01*
X138213662Y-97989880D01*
X138057410Y-98120990D01*
X138043239Y-98137879D01*
X137942641Y-98312120D01*
X137935100Y-98332837D01*
X137929517Y-98364500D01*
X134619630Y-98364500D01*
X134545354Y-98300138D01*
X134572413Y-98282748D01*
X134586034Y-98270945D01*
X134740855Y-98092274D01*
X134750599Y-98077111D01*
X134848809Y-97862059D01*
X134853887Y-97844766D01*
X134879082Y-97669534D01*
X134879724Y-97660556D01*
X134879724Y-97076604D01*
X134878280Y-97063174D01*
X134812919Y-96762712D01*
X134804289Y-96741878D01*
X134675248Y-96541087D01*
X134663445Y-96527466D01*
X134484774Y-96372645D01*
X134469611Y-96362901D01*
X134396500Y-96329512D01*
X134396500Y-95896045D01*
X134523226Y-96005855D01*
X134538389Y-96015599D01*
X134753441Y-96113809D01*
X134770734Y-96118887D01*
X134945966Y-96144082D01*
X134954944Y-96144724D01*
X135053191Y-96144724D01*
X135127000Y-96070915D01*
X135127001Y-95007308D01*
X135127000Y-95007307D01*
X135127001Y-93540085D01*
X135053192Y-93466276D01*
X134971104Y-93466276D01*
X134957674Y-93467720D01*
X134657212Y-93533081D01*
X134636378Y-93541711D01*
X134435587Y-93670752D01*
X134421966Y-93682555D01*
X134383217Y-93727274D01*
X134242274Y-93605145D01*
X134227111Y-93595401D01*
X134012059Y-93497191D01*
X133994766Y-93492113D01*
X133819534Y-93466918D01*
X133810556Y-93466276D01*
X133226604Y-93466276D01*
X133213174Y-93467720D01*
X132918841Y-93531748D01*
X132942109Y-93506671D01*
X132952747Y-93491068D01*
X133047976Y-93293323D01*
X133053542Y-93275277D01*
X133078033Y-93112789D01*
X133078738Y-93103387D01*
X133078738Y-92706576D01*
X133077637Y-92694838D01*
X133035564Y-92472471D01*
X133028169Y-92452542D01*
X132918331Y-92262297D01*
X132942109Y-92236671D01*
X132952747Y-92221068D01*
X133047976Y-92023323D01*
X133053542Y-92005277D01*
X133078033Y-91842789D01*
X133078738Y-91833387D01*
X133078738Y-91436576D01*
X133077637Y-91424838D01*
X133043895Y-91246500D01*
X133161842Y-91246500D01*
X133180470Y-91250715D01*
X133198365Y-91252155D01*
X133289513Y-91246500D01*
X133320153Y-91246500D01*
X133329095Y-91245863D01*
X133351494Y-91242655D01*
X133433563Y-91237563D01*
X133451143Y-91233923D01*
X133476576Y-91224742D01*
X133503348Y-91220908D01*
X133520579Y-91215869D01*
X133595453Y-91181827D01*
X133672977Y-91153840D01*
X133689144Y-91145180D01*
X133710008Y-91129741D01*
X133735098Y-91118334D01*
X133750223Y-91108661D01*
X133821528Y-91047220D01*
X133835601Y-91036807D01*
X133835601Y-91315337D01*
%TA.AperFunction,Conductor*%
G36*
X133835601Y-91315337D02*
G01*
X133831385Y-91333969D01*
X133829945Y-91351865D01*
X133835601Y-91443029D01*
X133835601Y-91473652D01*
X133836238Y-91482594D01*
X133839445Y-91504990D01*
X133844537Y-91587064D01*
X133848178Y-91604644D01*
X133857359Y-91630076D01*
X133861193Y-91656847D01*
X133866232Y-91674079D01*
X133900269Y-91748942D01*
X133928260Y-91826477D01*
X133936920Y-91842645D01*
X133952362Y-91863513D01*
X133963767Y-91888598D01*
X133973440Y-91903723D01*
X134034874Y-91975020D01*
X134048719Y-91993731D01*
X134054823Y-92000815D01*
X134071275Y-92017266D01*
X134127264Y-92082245D01*
X134140792Y-92094046D01*
X134161434Y-92107426D01*
X134240812Y-92186804D01*
X134251008Y-92202964D01*
X134262644Y-92216636D01*
X134331110Y-92277102D01*
X134352759Y-92298752D01*
X134359535Y-92304627D01*
X134377635Y-92318192D01*
X134439272Y-92372628D01*
X134454278Y-92382485D01*
X134478755Y-92393977D01*
X134500396Y-92410195D01*
X134516143Y-92418817D01*
X134593145Y-92447683D01*
X134667765Y-92482717D01*
X134685321Y-92488026D01*
X134710992Y-92491862D01*
X134736797Y-92501536D01*
X134754332Y-92505391D01*
X134848179Y-92512365D01*
X134871209Y-92515807D01*
X134880534Y-92516500D01*
X134903819Y-92516500D01*
X134989336Y-92522856D01*
X135007248Y-92521635D01*
X135031303Y-92516500D01*
X135427303Y-92516500D01*
X135424458Y-92525723D01*
X135399967Y-92688211D01*
X135399262Y-92697613D01*
X135399262Y-93094424D01*
X135400363Y-93106162D01*
X135442436Y-93328529D01*
X135449831Y-93348458D01*
X135517853Y-93466276D01*
X135456809Y-93466276D01*
X135383000Y-93540085D01*
X135382999Y-94603692D01*
X135383000Y-94603693D01*
X135382999Y-96070915D01*
X135456808Y-96144724D01*
X135538896Y-96144724D01*
X135552326Y-96143280D01*
X135852788Y-96077919D01*
X135873622Y-96069289D01*
X136074413Y-95940248D01*
X136088034Y-95928445D01*
X136190362Y-95810354D01*
X136207752Y-95837413D01*
X136219555Y-95851034D01*
X136398226Y-96005855D01*
X136413389Y-96015599D01*
X136628441Y-96113809D01*
X136645734Y-96118887D01*
X136820966Y-96144082D01*
X136829944Y-96144724D01*
X137413896Y-96144724D01*
X137427326Y-96143280D01*
X137727788Y-96077919D01*
X137748622Y-96069289D01*
X137949413Y-95940248D01*
X137963034Y-95928445D01*
X137974552Y-95915153D01*
X138079226Y-96005855D01*
X138094389Y-96015599D01*
X138233935Y-96079327D01*
X138213662Y-96089880D01*
X138057410Y-96220990D01*
X138043239Y-96237879D01*
X137942641Y-96412120D01*
X137935100Y-96432837D01*
X137901122Y-96625538D01*
X137900163Y-96636499D01*
X137900163Y-97300258D01*
X137902319Y-97316634D01*
X137977137Y-97595859D01*
X137989880Y-97620339D01*
X138120990Y-97776590D01*
X138137879Y-97790761D01*
X138312120Y-97891359D01*
X138332837Y-97898900D01*
X138451825Y-97919881D01*
X138238142Y-97977137D01*
X138213662Y-97989880D01*
X138057410Y-98120990D01*
X138043239Y-98137879D01*
X137942641Y-98312120D01*
X137935100Y-98332837D01*
X137929517Y-98364500D01*
X134619630Y-98364500D01*
X134545354Y-98300138D01*
X134572413Y-98282748D01*
X134586034Y-98270945D01*
X134740855Y-98092274D01*
X134750599Y-98077111D01*
X134848809Y-97862059D01*
X134853887Y-97844766D01*
X134879082Y-97669534D01*
X134879724Y-97660556D01*
X134879724Y-97076604D01*
X134878280Y-97063174D01*
X134812919Y-96762712D01*
X134804289Y-96741878D01*
X134675248Y-96541087D01*
X134663445Y-96527466D01*
X134484774Y-96372645D01*
X134469611Y-96362901D01*
X134396500Y-96329512D01*
X134396500Y-95896045D01*
X134523226Y-96005855D01*
X134538389Y-96015599D01*
X134753441Y-96113809D01*
X134770734Y-96118887D01*
X134945966Y-96144082D01*
X134954944Y-96144724D01*
X135053191Y-96144724D01*
X135127000Y-96070915D01*
X135127001Y-95007308D01*
X135127000Y-95007307D01*
X135127001Y-93540085D01*
X135053192Y-93466276D01*
X134971104Y-93466276D01*
X134957674Y-93467720D01*
X134657212Y-93533081D01*
X134636378Y-93541711D01*
X134435587Y-93670752D01*
X134421966Y-93682555D01*
X134383217Y-93727274D01*
X134242274Y-93605145D01*
X134227111Y-93595401D01*
X134012059Y-93497191D01*
X133994766Y-93492113D01*
X133819534Y-93466918D01*
X133810556Y-93466276D01*
X133226604Y-93466276D01*
X133213174Y-93467720D01*
X132918841Y-93531748D01*
X132942109Y-93506671D01*
X132952747Y-93491068D01*
X133047976Y-93293323D01*
X133053542Y-93275277D01*
X133078033Y-93112789D01*
X133078738Y-93103387D01*
X133078738Y-92706576D01*
X133077637Y-92694838D01*
X133035564Y-92472471D01*
X133028169Y-92452542D01*
X132918331Y-92262297D01*
X132942109Y-92236671D01*
X132952747Y-92221068D01*
X133047976Y-92023323D01*
X133053542Y-92005277D01*
X133078033Y-91842789D01*
X133078738Y-91833387D01*
X133078738Y-91436576D01*
X133077637Y-91424838D01*
X133043895Y-91246500D01*
X133161842Y-91246500D01*
X133180470Y-91250715D01*
X133198365Y-91252155D01*
X133289513Y-91246500D01*
X133320153Y-91246500D01*
X133329095Y-91245863D01*
X133351494Y-91242655D01*
X133433563Y-91237563D01*
X133451143Y-91233923D01*
X133476576Y-91224742D01*
X133503348Y-91220908D01*
X133520579Y-91215869D01*
X133595453Y-91181827D01*
X133672977Y-91153840D01*
X133689144Y-91145180D01*
X133710008Y-91129741D01*
X133735098Y-91118334D01*
X133750223Y-91108661D01*
X133821528Y-91047220D01*
X133835601Y-91036807D01*
X133835601Y-91315337D01*
G37*
%TD.AperFunction*%
%TD*%
M02*
