%TF.GenerationSoftware,KiCad,Pcbnew,5.99.0-unknown-20c1492~102~ubuntu18.04.1*%
%TF.CreationDate,2020-07-21T10:29:21+02:00*%
%TF.ProjectId,detect_current,64657465-6374-45f6-9375-7272656e742e,rev?*%
%TF.SameCoordinates,Original*%
%TF.FileFunction,Soldermask,Top*%
%TF.FilePolarity,Negative*%
%FSLAX46Y46*%
G04 Gerber Fmt 4.6, Leading zero omitted, Abs format (unit mm)*
G04 Created by KiCad (PCBNEW 5.99.0-unknown-20c1492~102~ubuntu18.04.1) date 2020-07-21 10:29:21*
%MOMM*%
%LPD*%
G01*
G04 APERTURE LIST*
%ADD10C,1.540000*%
%ADD11C,3.100000*%
%ADD12O,2.100000X2.100000*%
%ADD13C,2.100000*%
%ADD14C,2.800000*%
G04 APERTURE END LIST*
D10*
%TO.C,RV1*%
X133400800Y-81737200D03*
X135940800Y-84277200D03*
X138480800Y-81737200D03*
%TD*%
%TO.C,R13*%
G36*
G01*
X125558500Y-93826250D02*
X125558500Y-92863750D01*
G75*
G02*
X125827250Y-92595000I268750J0D01*
G01*
X126364750Y-92595000D01*
G75*
G02*
X126633500Y-92863750I0J-268750D01*
G01*
X126633500Y-93826250D01*
G75*
G02*
X126364750Y-94095000I-268750J0D01*
G01*
X125827250Y-94095000D01*
G75*
G02*
X125558500Y-93826250I0J268750D01*
G01*
G37*
G36*
G01*
X123683500Y-93826250D02*
X123683500Y-92863750D01*
G75*
G02*
X123952250Y-92595000I268750J0D01*
G01*
X124489750Y-92595000D01*
G75*
G02*
X124758500Y-92863750I0J-268750D01*
G01*
X124758500Y-93826250D01*
G75*
G02*
X124489750Y-94095000I-268750J0D01*
G01*
X123952250Y-94095000D01*
G75*
G02*
X123683500Y-93826250I0J268750D01*
G01*
G37*
%TD*%
D11*
%TO.C,REF\u002A\u002A*%
X128270000Y-99695000D03*
%TD*%
%TO.C,REF\u002A\u002A*%
X128206500Y-81978500D03*
%TD*%
D12*
%TO.C,CT-ZHT103*%
X114640707Y-84201000D03*
D13*
X114640707Y-96901000D03*
%TD*%
%TO.C,D5*%
G36*
G01*
X121413500Y-84624846D02*
X121413500Y-86317154D01*
G75*
G02*
X121359654Y-86371000I-53846J0D01*
G01*
X120067346Y-86371000D01*
G75*
G02*
X120013500Y-86317154I0J53846D01*
G01*
X120013500Y-84624846D01*
G75*
G02*
X120067346Y-84571000I53846J0D01*
G01*
X121359654Y-84571000D01*
G75*
G02*
X121413500Y-84624846I0J-53846D01*
G01*
G37*
G36*
G01*
X124913500Y-84624846D02*
X124913500Y-86317154D01*
G75*
G02*
X124859654Y-86371000I-53846J0D01*
G01*
X123567346Y-86371000D01*
G75*
G02*
X123513500Y-86317154I0J53846D01*
G01*
X123513500Y-84624846D01*
G75*
G02*
X123567346Y-84571000I53846J0D01*
G01*
X124859654Y-84571000D01*
G75*
G02*
X124913500Y-84624846I0J-53846D01*
G01*
G37*
%TD*%
%TO.C,D4*%
G36*
G01*
X123506000Y-83904154D02*
X123506000Y-82211846D01*
G75*
G02*
X123559846Y-82158000I53846J0D01*
G01*
X124852154Y-82158000D01*
G75*
G02*
X124906000Y-82211846I0J-53846D01*
G01*
X124906000Y-83904154D01*
G75*
G02*
X124852154Y-83958000I-53846J0D01*
G01*
X123559846Y-83958000D01*
G75*
G02*
X123506000Y-83904154I0J53846D01*
G01*
G37*
G36*
G01*
X120006000Y-83904154D02*
X120006000Y-82211846D01*
G75*
G02*
X120059846Y-82158000I53846J0D01*
G01*
X121352154Y-82158000D01*
G75*
G02*
X121406000Y-82211846I0J-53846D01*
G01*
X121406000Y-83904154D01*
G75*
G02*
X121352154Y-83958000I-53846J0D01*
G01*
X120059846Y-83958000D01*
G75*
G02*
X120006000Y-83904154I0J53846D01*
G01*
G37*
%TD*%
%TO.C,D2*%
G36*
G01*
X123506000Y-99144154D02*
X123506000Y-97451846D01*
G75*
G02*
X123559846Y-97398000I53846J0D01*
G01*
X124852154Y-97398000D01*
G75*
G02*
X124906000Y-97451846I0J-53846D01*
G01*
X124906000Y-99144154D01*
G75*
G02*
X124852154Y-99198000I-53846J0D01*
G01*
X123559846Y-99198000D01*
G75*
G02*
X123506000Y-99144154I0J53846D01*
G01*
G37*
G36*
G01*
X120006000Y-99144154D02*
X120006000Y-97451846D01*
G75*
G02*
X120059846Y-97398000I53846J0D01*
G01*
X121352154Y-97398000D01*
G75*
G02*
X121406000Y-97451846I0J-53846D01*
G01*
X121406000Y-99144154D01*
G75*
G02*
X121352154Y-99198000I-53846J0D01*
G01*
X120059846Y-99198000D01*
G75*
G02*
X120006000Y-99144154I0J53846D01*
G01*
G37*
%TD*%
%TO.C,D1*%
G36*
G01*
X121406000Y-94975346D02*
X121406000Y-96667654D01*
G75*
G02*
X121352154Y-96721500I-53846J0D01*
G01*
X120059846Y-96721500D01*
G75*
G02*
X120006000Y-96667654I0J53846D01*
G01*
X120006000Y-94975346D01*
G75*
G02*
X120059846Y-94921500I53846J0D01*
G01*
X121352154Y-94921500D01*
G75*
G02*
X121406000Y-94975346I0J-53846D01*
G01*
G37*
G36*
G01*
X124906000Y-94975346D02*
X124906000Y-96667654D01*
G75*
G02*
X124852154Y-96721500I-53846J0D01*
G01*
X123559846Y-96721500D01*
G75*
G02*
X123506000Y-96667654I0J53846D01*
G01*
X123506000Y-94975346D01*
G75*
G02*
X123559846Y-94921500I53846J0D01*
G01*
X124852154Y-94921500D01*
G75*
G02*
X124906000Y-94975346I0J-53846D01*
G01*
G37*
%TD*%
%TO.C,C1*%
G36*
G01*
X126505000Y-91507134D02*
X126505000Y-89594866D01*
G75*
G02*
X126773866Y-89326000I268866J0D01*
G01*
X127661134Y-89326000D01*
G75*
G02*
X127930000Y-89594866I0J-268866D01*
G01*
X127930000Y-91507134D01*
G75*
G02*
X127661134Y-91776000I-268866J0D01*
G01*
X126773866Y-91776000D01*
G75*
G02*
X126505000Y-91507134I0J268866D01*
G01*
G37*
G36*
G01*
X123430000Y-91507134D02*
X123430000Y-89594866D01*
G75*
G02*
X123698866Y-89326000I268866J0D01*
G01*
X124586134Y-89326000D01*
G75*
G02*
X124855000Y-89594866I0J-268866D01*
G01*
X124855000Y-91507134D01*
G75*
G02*
X124586134Y-91776000I-268866J0D01*
G01*
X123698866Y-91776000D01*
G75*
G02*
X123430000Y-91507134I0J268866D01*
G01*
G37*
%TD*%
%TO.C,U1*%
G36*
G01*
X132489000Y-92725500D02*
X132489000Y-93075500D01*
G75*
G02*
X132314000Y-93250500I-175000J0D01*
G01*
X130914000Y-93250500D01*
G75*
G02*
X130739000Y-93075500I0J175000D01*
G01*
X130739000Y-92725500D01*
G75*
G02*
X130914000Y-92550500I175000J0D01*
G01*
X132314000Y-92550500D01*
G75*
G02*
X132489000Y-92725500I0J-175000D01*
G01*
G37*
G36*
G01*
X132489000Y-91455500D02*
X132489000Y-91805500D01*
G75*
G02*
X132314000Y-91980500I-175000J0D01*
G01*
X130914000Y-91980500D01*
G75*
G02*
X130739000Y-91805500I0J175000D01*
G01*
X130739000Y-91455500D01*
G75*
G02*
X130914000Y-91280500I175000J0D01*
G01*
X132314000Y-91280500D01*
G75*
G02*
X132489000Y-91455500I0J-175000D01*
G01*
G37*
G36*
G01*
X132489000Y-90185500D02*
X132489000Y-90535500D01*
G75*
G02*
X132314000Y-90710500I-175000J0D01*
G01*
X130914000Y-90710500D01*
G75*
G02*
X130739000Y-90535500I0J175000D01*
G01*
X130739000Y-90185500D01*
G75*
G02*
X130914000Y-90010500I175000J0D01*
G01*
X132314000Y-90010500D01*
G75*
G02*
X132489000Y-90185500I0J-175000D01*
G01*
G37*
G36*
G01*
X132489000Y-88915500D02*
X132489000Y-89265500D01*
G75*
G02*
X132314000Y-89440500I-175000J0D01*
G01*
X130914000Y-89440500D01*
G75*
G02*
X130739000Y-89265500I0J175000D01*
G01*
X130739000Y-88915500D01*
G75*
G02*
X130914000Y-88740500I175000J0D01*
G01*
X132314000Y-88740500D01*
G75*
G02*
X132489000Y-88915500I0J-175000D01*
G01*
G37*
G36*
G01*
X137739000Y-88915500D02*
X137739000Y-89265500D01*
G75*
G02*
X137564000Y-89440500I-175000J0D01*
G01*
X136164000Y-89440500D01*
G75*
G02*
X135989000Y-89265500I0J175000D01*
G01*
X135989000Y-88915500D01*
G75*
G02*
X136164000Y-88740500I175000J0D01*
G01*
X137564000Y-88740500D01*
G75*
G02*
X137739000Y-88915500I0J-175000D01*
G01*
G37*
G36*
G01*
X137739000Y-90185500D02*
X137739000Y-90535500D01*
G75*
G02*
X137564000Y-90710500I-175000J0D01*
G01*
X136164000Y-90710500D01*
G75*
G02*
X135989000Y-90535500I0J175000D01*
G01*
X135989000Y-90185500D01*
G75*
G02*
X136164000Y-90010500I175000J0D01*
G01*
X137564000Y-90010500D01*
G75*
G02*
X137739000Y-90185500I0J-175000D01*
G01*
G37*
G36*
G01*
X137739000Y-91455500D02*
X137739000Y-91805500D01*
G75*
G02*
X137564000Y-91980500I-175000J0D01*
G01*
X136164000Y-91980500D01*
G75*
G02*
X135989000Y-91805500I0J175000D01*
G01*
X135989000Y-91455500D01*
G75*
G02*
X136164000Y-91280500I175000J0D01*
G01*
X137564000Y-91280500D01*
G75*
G02*
X137739000Y-91455500I0J-175000D01*
G01*
G37*
G36*
G01*
X137739000Y-92725500D02*
X137739000Y-93075500D01*
G75*
G02*
X137564000Y-93250500I-175000J0D01*
G01*
X136164000Y-93250500D01*
G75*
G02*
X135989000Y-93075500I0J175000D01*
G01*
X135989000Y-92725500D01*
G75*
G02*
X136164000Y-92550500I175000J0D01*
G01*
X137564000Y-92550500D01*
G75*
G02*
X137739000Y-92725500I0J-175000D01*
G01*
G37*
%TD*%
%TO.C,R8*%
G36*
G01*
X135792500Y-94324250D02*
X135792500Y-95286750D01*
G75*
G02*
X135523750Y-95555500I-268750J0D01*
G01*
X134986250Y-95555500D01*
G75*
G02*
X134717500Y-95286750I0J268750D01*
G01*
X134717500Y-94324250D01*
G75*
G02*
X134986250Y-94055500I268750J0D01*
G01*
X135523750Y-94055500D01*
G75*
G02*
X135792500Y-94324250I0J-268750D01*
G01*
G37*
G36*
G01*
X137667500Y-94324250D02*
X137667500Y-95286750D01*
G75*
G02*
X137398750Y-95555500I-268750J0D01*
G01*
X136861250Y-95555500D01*
G75*
G02*
X136592500Y-95286750I0J268750D01*
G01*
X136592500Y-94324250D01*
G75*
G02*
X136861250Y-94055500I268750J0D01*
G01*
X137398750Y-94055500D01*
G75*
G02*
X137667500Y-94324250I0J-268750D01*
G01*
G37*
%TD*%
%TO.C,R10*%
G36*
G01*
X140148500Y-95286750D02*
X140148500Y-94324250D01*
G75*
G02*
X140417250Y-94055500I268750J0D01*
G01*
X140954750Y-94055500D01*
G75*
G02*
X141223500Y-94324250I0J-268750D01*
G01*
X141223500Y-95286750D01*
G75*
G02*
X140954750Y-95555500I-268750J0D01*
G01*
X140417250Y-95555500D01*
G75*
G02*
X140148500Y-95286750I0J268750D01*
G01*
G37*
G36*
G01*
X138273500Y-95286750D02*
X138273500Y-94324250D01*
G75*
G02*
X138542250Y-94055500I268750J0D01*
G01*
X139079750Y-94055500D01*
G75*
G02*
X139348500Y-94324250I0J-268750D01*
G01*
X139348500Y-95286750D01*
G75*
G02*
X139079750Y-95555500I-268750J0D01*
G01*
X138542250Y-95555500D01*
G75*
G02*
X138273500Y-95286750I0J268750D01*
G01*
G37*
%TD*%
%TO.C,R9*%
G36*
G01*
X139673250Y-91025000D02*
X138710750Y-91025000D01*
G75*
G02*
X138442000Y-90756250I0J268750D01*
G01*
X138442000Y-90218750D01*
G75*
G02*
X138710750Y-89950000I268750J0D01*
G01*
X139673250Y-89950000D01*
G75*
G02*
X139942000Y-90218750I0J-268750D01*
G01*
X139942000Y-90756250D01*
G75*
G02*
X139673250Y-91025000I-268750J0D01*
G01*
G37*
G36*
G01*
X139673250Y-92900000D02*
X138710750Y-92900000D01*
G75*
G02*
X138442000Y-92631250I0J268750D01*
G01*
X138442000Y-92093750D01*
G75*
G02*
X138710750Y-91825000I268750J0D01*
G01*
X139673250Y-91825000D01*
G75*
G02*
X139942000Y-92093750I0J-268750D01*
G01*
X139942000Y-92631250D01*
G75*
G02*
X139673250Y-92900000I-268750J0D01*
G01*
G37*
%TD*%
%TO.C,R6*%
G36*
G01*
X132581600Y-87654050D02*
X132581600Y-86691550D01*
G75*
G02*
X132850350Y-86422800I268750J0D01*
G01*
X133387850Y-86422800D01*
G75*
G02*
X133656600Y-86691550I0J-268750D01*
G01*
X133656600Y-87654050D01*
G75*
G02*
X133387850Y-87922800I-268750J0D01*
G01*
X132850350Y-87922800D01*
G75*
G02*
X132581600Y-87654050I0J268750D01*
G01*
G37*
G36*
G01*
X130706600Y-87654050D02*
X130706600Y-86691550D01*
G75*
G02*
X130975350Y-86422800I268750J0D01*
G01*
X131512850Y-86422800D01*
G75*
G02*
X131781600Y-86691550I0J-268750D01*
G01*
X131781600Y-87654050D01*
G75*
G02*
X131512850Y-87922800I-268750J0D01*
G01*
X130975350Y-87922800D01*
G75*
G02*
X130706600Y-87654050I0J268750D01*
G01*
G37*
%TD*%
%TO.C,R3*%
G36*
G01*
X141768750Y-87532500D02*
X140806250Y-87532500D01*
G75*
G02*
X140537500Y-87263750I0J268750D01*
G01*
X140537500Y-86726250D01*
G75*
G02*
X140806250Y-86457500I268750J0D01*
G01*
X141768750Y-86457500D01*
G75*
G02*
X142037500Y-86726250I0J-268750D01*
G01*
X142037500Y-87263750D01*
G75*
G02*
X141768750Y-87532500I-268750J0D01*
G01*
G37*
G36*
G01*
X141768750Y-89407500D02*
X140806250Y-89407500D01*
G75*
G02*
X140537500Y-89138750I0J268750D01*
G01*
X140537500Y-88601250D01*
G75*
G02*
X140806250Y-88332500I268750J0D01*
G01*
X141768750Y-88332500D01*
G75*
G02*
X142037500Y-88601250I0J-268750D01*
G01*
X142037500Y-89138750D01*
G75*
G02*
X141768750Y-89407500I-268750J0D01*
G01*
G37*
%TD*%
%TO.C,R5*%
G36*
G01*
X128210500Y-88047750D02*
X128210500Y-87085250D01*
G75*
G02*
X128479250Y-86816500I268750J0D01*
G01*
X129016750Y-86816500D01*
G75*
G02*
X129285500Y-87085250I0J-268750D01*
G01*
X129285500Y-88047750D01*
G75*
G02*
X129016750Y-88316500I-268750J0D01*
G01*
X128479250Y-88316500D01*
G75*
G02*
X128210500Y-88047750I0J268750D01*
G01*
G37*
G36*
G01*
X126335500Y-88047750D02*
X126335500Y-87085250D01*
G75*
G02*
X126604250Y-86816500I268750J0D01*
G01*
X127141750Y-86816500D01*
G75*
G02*
X127410500Y-87085250I0J-268750D01*
G01*
X127410500Y-88047750D01*
G75*
G02*
X127141750Y-88316500I-268750J0D01*
G01*
X126604250Y-88316500D01*
G75*
G02*
X126335500Y-88047750I0J268750D01*
G01*
G37*
%TD*%
%TO.C,R12*%
G36*
G01*
X120232250Y-90902500D02*
X121194750Y-90902500D01*
G75*
G02*
X121463500Y-91171250I0J-268750D01*
G01*
X121463500Y-91708750D01*
G75*
G02*
X121194750Y-91977500I-268750J0D01*
G01*
X120232250Y-91977500D01*
G75*
G02*
X119963500Y-91708750I0J268750D01*
G01*
X119963500Y-91171250D01*
G75*
G02*
X120232250Y-90902500I268750J0D01*
G01*
G37*
G36*
G01*
X120232250Y-89027500D02*
X121194750Y-89027500D01*
G75*
G02*
X121463500Y-89296250I0J-268750D01*
G01*
X121463500Y-89833750D01*
G75*
G02*
X121194750Y-90102500I-268750J0D01*
G01*
X120232250Y-90102500D01*
G75*
G02*
X119963500Y-89833750I0J268750D01*
G01*
X119963500Y-89296250D01*
G75*
G02*
X120232250Y-89027500I268750J0D01*
G01*
G37*
%TD*%
%TO.C,R7*%
G36*
G01*
X128995250Y-91395500D02*
X129957750Y-91395500D01*
G75*
G02*
X130226500Y-91664250I0J-268750D01*
G01*
X130226500Y-92201750D01*
G75*
G02*
X129957750Y-92470500I-268750J0D01*
G01*
X128995250Y-92470500D01*
G75*
G02*
X128726500Y-92201750I0J268750D01*
G01*
X128726500Y-91664250D01*
G75*
G02*
X128995250Y-91395500I268750J0D01*
G01*
G37*
G36*
G01*
X128995250Y-89520500D02*
X129957750Y-89520500D01*
G75*
G02*
X130226500Y-89789250I0J-268750D01*
G01*
X130226500Y-90326750D01*
G75*
G02*
X129957750Y-90595500I-268750J0D01*
G01*
X128995250Y-90595500D01*
G75*
G02*
X128726500Y-90326750I0J268750D01*
G01*
X128726500Y-89789250D01*
G75*
G02*
X128995250Y-89520500I268750J0D01*
G01*
G37*
%TD*%
%TO.C,R11*%
G36*
G01*
X132973000Y-95286750D02*
X132973000Y-94324250D01*
G75*
G02*
X133241750Y-94055500I268750J0D01*
G01*
X133779250Y-94055500D01*
G75*
G02*
X134048000Y-94324250I0J-268750D01*
G01*
X134048000Y-95286750D01*
G75*
G02*
X133779250Y-95555500I-268750J0D01*
G01*
X133241750Y-95555500D01*
G75*
G02*
X132973000Y-95286750I0J268750D01*
G01*
G37*
G36*
G01*
X131098000Y-95286750D02*
X131098000Y-94324250D01*
G75*
G02*
X131366750Y-94055500I268750J0D01*
G01*
X131904250Y-94055500D01*
G75*
G02*
X132173000Y-94324250I0J-268750D01*
G01*
X132173000Y-95286750D01*
G75*
G02*
X131904250Y-95555500I-268750J0D01*
G01*
X131366750Y-95555500D01*
G75*
G02*
X131098000Y-95286750I0J268750D01*
G01*
G37*
%TD*%
%TO.C,R2*%
G36*
G01*
X141606350Y-84489000D02*
X142568850Y-84489000D01*
G75*
G02*
X142837600Y-84757750I0J-268750D01*
G01*
X142837600Y-85295250D01*
G75*
G02*
X142568850Y-85564000I-268750J0D01*
G01*
X141606350Y-85564000D01*
G75*
G02*
X141337600Y-85295250I0J268750D01*
G01*
X141337600Y-84757750D01*
G75*
G02*
X141606350Y-84489000I268750J0D01*
G01*
G37*
G36*
G01*
X141606350Y-82614000D02*
X142568850Y-82614000D01*
G75*
G02*
X142837600Y-82882750I0J-268750D01*
G01*
X142837600Y-83420250D01*
G75*
G02*
X142568850Y-83689000I-268750J0D01*
G01*
X141606350Y-83689000D01*
G75*
G02*
X141337600Y-83420250I0J268750D01*
G01*
X141337600Y-82882750D01*
G75*
G02*
X141606350Y-82614000I268750J0D01*
G01*
G37*
%TD*%
%TO.C,R4*%
G36*
G01*
X136048800Y-86691550D02*
X136048800Y-87654050D01*
G75*
G02*
X135780050Y-87922800I-268750J0D01*
G01*
X135242550Y-87922800D01*
G75*
G02*
X134973800Y-87654050I0J268750D01*
G01*
X134973800Y-86691550D01*
G75*
G02*
X135242550Y-86422800I268750J0D01*
G01*
X135780050Y-86422800D01*
G75*
G02*
X136048800Y-86691550I0J-268750D01*
G01*
G37*
G36*
G01*
X137923800Y-86691550D02*
X137923800Y-87654050D01*
G75*
G02*
X137655050Y-87922800I-268750J0D01*
G01*
X137117550Y-87922800D01*
G75*
G02*
X136848800Y-87654050I0J268750D01*
G01*
X136848800Y-86691550D01*
G75*
G02*
X137117550Y-86422800I268750J0D01*
G01*
X137655050Y-86422800D01*
G75*
G02*
X137923800Y-86691550I0J-268750D01*
G01*
G37*
%TD*%
%TO.C,R1*%
G36*
G01*
X127410500Y-84989750D02*
X127410500Y-85952250D01*
G75*
G02*
X127141750Y-86221000I-268750J0D01*
G01*
X126604250Y-86221000D01*
G75*
G02*
X126335500Y-85952250I0J268750D01*
G01*
X126335500Y-84989750D01*
G75*
G02*
X126604250Y-84721000I268750J0D01*
G01*
X127141750Y-84721000D01*
G75*
G02*
X127410500Y-84989750I0J-268750D01*
G01*
G37*
G36*
G01*
X129285500Y-84989750D02*
X129285500Y-85952250D01*
G75*
G02*
X129016750Y-86221000I-268750J0D01*
G01*
X128479250Y-86221000D01*
G75*
G02*
X128210500Y-85952250I0J268750D01*
G01*
X128210500Y-84989750D01*
G75*
G02*
X128479250Y-84721000I268750J0D01*
G01*
X129016750Y-84721000D01*
G75*
G02*
X129285500Y-84989750I0J-268750D01*
G01*
G37*
%TD*%
%TO.C,Q1*%
G36*
G01*
X141112000Y-98234308D02*
X141112000Y-97599692D01*
G75*
G02*
X141169692Y-97542000I57692J0D01*
G01*
X142374308Y-97542000D01*
G75*
G02*
X142432000Y-97599692I0J-57692D01*
G01*
X142432000Y-98234308D01*
G75*
G02*
X142374308Y-98292000I-57692J0D01*
G01*
X141169692Y-98292000D01*
G75*
G02*
X141112000Y-98234308I0J57692D01*
G01*
G37*
G36*
G01*
X138492000Y-99184308D02*
X138492000Y-98549692D01*
G75*
G02*
X138549692Y-98492000I57692J0D01*
G01*
X139754308Y-98492000D01*
G75*
G02*
X139812000Y-98549692I0J-57692D01*
G01*
X139812000Y-99184308D01*
G75*
G02*
X139754308Y-99242000I-57692J0D01*
G01*
X138549692Y-99242000D01*
G75*
G02*
X138492000Y-99184308I0J57692D01*
G01*
G37*
G36*
G01*
X138492000Y-97284308D02*
X138492000Y-96649692D01*
G75*
G02*
X138549692Y-96592000I57692J0D01*
G01*
X139754308Y-96592000D01*
G75*
G02*
X139812000Y-96649692I0J-57692D01*
G01*
X139812000Y-97284308D01*
G75*
G02*
X139754308Y-97342000I-57692J0D01*
G01*
X138549692Y-97342000D01*
G75*
G02*
X138492000Y-97284308I0J57692D01*
G01*
G37*
%TD*%
D14*
%TO.C,J2*%
X147256500Y-94250500D03*
G36*
G01*
X148396100Y-100650500D02*
X146116900Y-100650500D01*
G75*
G02*
X145856500Y-100390100I0J260400D01*
G01*
X145856500Y-98110900D01*
G75*
G02*
X146116900Y-97850500I260400J0D01*
G01*
X148396100Y-97850500D01*
G75*
G02*
X148656500Y-98110900I0J-260400D01*
G01*
X148656500Y-100390100D01*
G75*
G02*
X148396100Y-100650500I-260400J0D01*
G01*
G37*
%TD*%
%TO.C,J1*%
X147129500Y-82439500D03*
G36*
G01*
X148269100Y-88839500D02*
X145989900Y-88839500D01*
G75*
G02*
X145729500Y-88579100I0J260400D01*
G01*
X145729500Y-86299900D01*
G75*
G02*
X145989900Y-86039500I260400J0D01*
G01*
X148269100Y-86039500D01*
G75*
G02*
X148529500Y-86299900I0J-260400D01*
G01*
X148529500Y-88579100D01*
G75*
G02*
X148269100Y-88839500I-260400J0D01*
G01*
G37*
%TD*%
%TO.C,D3*%
G36*
G01*
X134021750Y-97898000D02*
X133059250Y-97898000D01*
G75*
G02*
X132790500Y-97629250I0J268750D01*
G01*
X132790500Y-97091750D01*
G75*
G02*
X133059250Y-96823000I268750J0D01*
G01*
X134021750Y-96823000D01*
G75*
G02*
X134290500Y-97091750I0J-268750D01*
G01*
X134290500Y-97629250D01*
G75*
G02*
X134021750Y-97898000I-268750J0D01*
G01*
G37*
G36*
G01*
X134021750Y-99773000D02*
X133059250Y-99773000D01*
G75*
G02*
X132790500Y-99504250I0J268750D01*
G01*
X132790500Y-98966750D01*
G75*
G02*
X133059250Y-98698000I268750J0D01*
G01*
X134021750Y-98698000D01*
G75*
G02*
X134290500Y-98966750I0J-268750D01*
G01*
X134290500Y-99504250D01*
G75*
G02*
X134021750Y-99773000I-268750J0D01*
G01*
G37*
%TD*%
%TO.C,C2*%
G36*
G01*
X129256500Y-95286750D02*
X129256500Y-94324250D01*
G75*
G02*
X129525250Y-94055500I268750J0D01*
G01*
X130062750Y-94055500D01*
G75*
G02*
X130331500Y-94324250I0J-268750D01*
G01*
X130331500Y-95286750D01*
G75*
G02*
X130062750Y-95555500I-268750J0D01*
G01*
X129525250Y-95555500D01*
G75*
G02*
X129256500Y-95286750I0J268750D01*
G01*
G37*
G36*
G01*
X127381500Y-95286750D02*
X127381500Y-94324250D01*
G75*
G02*
X127650250Y-94055500I268750J0D01*
G01*
X128187750Y-94055500D01*
G75*
G02*
X128456500Y-94324250I0J-268750D01*
G01*
X128456500Y-95286750D01*
G75*
G02*
X128187750Y-95555500I-268750J0D01*
G01*
X127650250Y-95555500D01*
G75*
G02*
X127381500Y-95286750I0J268750D01*
G01*
G37*
%TD*%
%TO.C,C3*%
G36*
G01*
X138710750Y-88299000D02*
X139673250Y-88299000D01*
G75*
G02*
X139942000Y-88567750I0J-268750D01*
G01*
X139942000Y-89105250D01*
G75*
G02*
X139673250Y-89374000I-268750J0D01*
G01*
X138710750Y-89374000D01*
G75*
G02*
X138442000Y-89105250I0J268750D01*
G01*
X138442000Y-88567750D01*
G75*
G02*
X138710750Y-88299000I268750J0D01*
G01*
G37*
G36*
G01*
X138710750Y-86424000D02*
X139673250Y-86424000D01*
G75*
G02*
X139942000Y-86692750I0J-268750D01*
G01*
X139942000Y-87230250D01*
G75*
G02*
X139673250Y-87499000I-268750J0D01*
G01*
X138710750Y-87499000D01*
G75*
G02*
X138442000Y-87230250I0J268750D01*
G01*
X138442000Y-86692750D01*
G75*
G02*
X138710750Y-86424000I268750J0D01*
G01*
G37*
%TD*%
M02*
