%TF.GenerationSoftware,KiCad,Pcbnew,5.99.0-unknown-20c1492~102~ubuntu18.04.1*%
%TF.CreationDate,2020-07-21T10:29:21+02:00*%
%TF.ProjectId,detect_current,64657465-6374-45f6-9375-7272656e742e,rev?*%
%TF.SameCoordinates,Original*%
%TF.FileFunction,Copper,L2,Bot*%
%TF.FilePolarity,Positive*%
%FSLAX46Y46*%
G04 Gerber Fmt 4.6, Leading zero omitted, Abs format (unit mm)*
G04 Created by KiCad (PCBNEW 5.99.0-unknown-20c1492~102~ubuntu18.04.1) date 2020-07-21 10:29:21*
%MOMM*%
%LPD*%
G01*
G04 APERTURE LIST*
%TA.AperFunction,ComponentPad*%
%ADD10C,1.440000*%
%TD*%
%TA.AperFunction,ComponentPad*%
%ADD11O,2.000000X2.000000*%
%TD*%
%TA.AperFunction,ComponentPad*%
%ADD12C,2.000000*%
%TD*%
%TA.AperFunction,ComponentPad*%
%ADD13C,2.700000*%
%TD*%
%TA.AperFunction,ViaPad*%
%ADD14C,0.800000*%
%TD*%
%TA.AperFunction,Conductor*%
%ADD15C,0.500000*%
%TD*%
%TA.AperFunction,Conductor*%
%ADD16C,0.254000*%
%TD*%
G04 APERTURE END LIST*
D10*
%TO.P,RV1,3,3*%
%TO.N,GND*%
X133400800Y-81737200D03*
%TO.P,RV1,2,2*%
%TO.N,Net-(RV1-Pad2)*%
X135940800Y-84277200D03*
%TO.P,RV1,1,1*%
%TO.N,Net-(R4-Pad2)*%
X138480800Y-81737200D03*
%TD*%
D11*
%TO.P,CT-ZHT103,2,2*%
%TO.N,Net-(CT-ZHT103-Pad2)*%
X114640707Y-84201000D03*
D12*
%TO.P,CT-ZHT103,1,1*%
%TO.N,Net-(CT-ZHT103-Pad1)*%
X114640707Y-96901000D03*
%TD*%
D13*
%TO.P,J2,2,Pin_2*%
%TO.N,GND*%
X147256500Y-94250500D03*
%TO.P,J2,1,Pin_1*%
%TO.N,Net-(D3-Pad1)*%
%TA.AperFunction,ComponentPad*%
G36*
G01*
X148355400Y-100600500D02*
X146157600Y-100600500D01*
G75*
G02*
X145906500Y-100349400I0J251100D01*
G01*
X145906500Y-98151600D01*
G75*
G02*
X146157600Y-97900500I251100J0D01*
G01*
X148355400Y-97900500D01*
G75*
G02*
X148606500Y-98151600I0J-251100D01*
G01*
X148606500Y-100349400D01*
G75*
G02*
X148355400Y-100600500I-251100J0D01*
G01*
G37*
%TD.AperFunction*%
%TD*%
%TO.P,J1,2,Pin_2*%
%TO.N,+5V*%
X147129500Y-82439500D03*
%TO.P,J1,1,Pin_1*%
%TO.N,GND*%
%TA.AperFunction,ComponentPad*%
G36*
G01*
X148228400Y-88789500D02*
X146030600Y-88789500D01*
G75*
G02*
X145779500Y-88538400I0J251100D01*
G01*
X145779500Y-86340600D01*
G75*
G02*
X146030600Y-86089500I251100J0D01*
G01*
X148228400Y-86089500D01*
G75*
G02*
X148479500Y-86340600I0J-251100D01*
G01*
X148479500Y-88538400D01*
G75*
G02*
X148228400Y-88789500I-251100J0D01*
G01*
G37*
%TD.AperFunction*%
%TD*%
D14*
%TO.N,Net-(R7-Pad2)*%
X129476500Y-93027500D03*
X139192000Y-93408500D03*
%TO.N,+5V*%
X130683000Y-94805500D03*
X142087600Y-81838800D03*
%TD*%
D15*
%TO.N,Net-(R7-Pad2)*%
X134239000Y-93408500D02*
X129857500Y-93408500D01*
X129857500Y-93408500D02*
X129476500Y-93027500D01*
X139192000Y-93408500D02*
X134239000Y-93408500D01*
%TD*%
%TO.N,+5V*%
D16*
X153099500Y-102490000D02*
X110552500Y-102490000D01*
X110552500Y-99690600D01*
X126131097Y-99690600D01*
X126131097Y-99699400D01*
X126151300Y-99988320D01*
X126152525Y-99997035D01*
X126212741Y-100280332D01*
X126215167Y-100288791D01*
X126314226Y-100560950D01*
X126317805Y-100568989D01*
X126453775Y-100824714D01*
X126458439Y-100832177D01*
X126628677Y-101066490D01*
X126634334Y-101073231D01*
X126835525Y-101281570D01*
X126842064Y-101287458D01*
X127070293Y-101465770D01*
X127077588Y-101470691D01*
X127328411Y-101615504D01*
X127336321Y-101619362D01*
X127604858Y-101727858D01*
X127613228Y-101730578D01*
X127894250Y-101800644D01*
X127902916Y-101802172D01*
X128190956Y-101832447D01*
X128199751Y-101832754D01*
X128489201Y-101822646D01*
X128497953Y-101821726D01*
X128783178Y-101771433D01*
X128791716Y-101769304D01*
X129067168Y-101679804D01*
X129075327Y-101676508D01*
X129335641Y-101549544D01*
X129343263Y-101545144D01*
X129583373Y-101383187D01*
X129590308Y-101377769D01*
X129805541Y-101183972D01*
X129811654Y-101177642D01*
X129997823Y-100955776D01*
X130002995Y-100948656D01*
X130156474Y-100703039D01*
X130160605Y-100695269D01*
X130278406Y-100430682D01*
X130281416Y-100422413D01*
X130361248Y-100144007D01*
X130363077Y-100135399D01*
X130403386Y-99848592D01*
X130404000Y-99839813D01*
X130404000Y-99550187D01*
X130403386Y-99541408D01*
X130363077Y-99254601D01*
X130361248Y-99245993D01*
X130281416Y-98967587D01*
X130278406Y-98959318D01*
X130160605Y-98694731D01*
X130156474Y-98686961D01*
X130002995Y-98441344D01*
X129997823Y-98434224D01*
X129811654Y-98212358D01*
X129805541Y-98206028D01*
X129682049Y-98094835D01*
X145267276Y-98094835D01*
X145267276Y-100389824D01*
X145268720Y-100403254D01*
X145334682Y-100706479D01*
X145343312Y-100727313D01*
X145473507Y-100929901D01*
X145485310Y-100943522D01*
X145665596Y-101099741D01*
X145680759Y-101109485D01*
X145897753Y-101208582D01*
X145915046Y-101213660D01*
X146091857Y-101239082D01*
X146100835Y-101239724D01*
X148395824Y-101239724D01*
X148409254Y-101238280D01*
X148712479Y-101172318D01*
X148733313Y-101163688D01*
X148935901Y-101033493D01*
X148949522Y-101021690D01*
X149105741Y-100841404D01*
X149115485Y-100826241D01*
X149214582Y-100609247D01*
X149219660Y-100591954D01*
X149245082Y-100415143D01*
X149245724Y-100406165D01*
X149245724Y-98111176D01*
X149244280Y-98097746D01*
X149178318Y-97794521D01*
X149169688Y-97773687D01*
X149039493Y-97571099D01*
X149027690Y-97557478D01*
X148847404Y-97401259D01*
X148832241Y-97391515D01*
X148615247Y-97292418D01*
X148597954Y-97287340D01*
X148421143Y-97261918D01*
X148412165Y-97261276D01*
X146117176Y-97261276D01*
X146103746Y-97262720D01*
X145800521Y-97328682D01*
X145779687Y-97337312D01*
X145577099Y-97467507D01*
X145563478Y-97479310D01*
X145407259Y-97659596D01*
X145397515Y-97674759D01*
X145298418Y-97891753D01*
X145293340Y-97909046D01*
X145267918Y-98085857D01*
X145267276Y-98094835D01*
X129682049Y-98094835D01*
X129590308Y-98012231D01*
X129583373Y-98006813D01*
X129343263Y-97844856D01*
X129335641Y-97840456D01*
X129075327Y-97713492D01*
X129067168Y-97710196D01*
X128791716Y-97620696D01*
X128783178Y-97618567D01*
X128497953Y-97568274D01*
X128489201Y-97567354D01*
X128199751Y-97557246D01*
X128190956Y-97557553D01*
X127902916Y-97587828D01*
X127894250Y-97589356D01*
X127613228Y-97659422D01*
X127604858Y-97662142D01*
X127336321Y-97770638D01*
X127328411Y-97774496D01*
X127077588Y-97919309D01*
X127070293Y-97924230D01*
X126842064Y-98102542D01*
X126835525Y-98108430D01*
X126634334Y-98316769D01*
X126628677Y-98323510D01*
X126458439Y-98557823D01*
X126453775Y-98565286D01*
X126317805Y-98821011D01*
X126314226Y-98829050D01*
X126215167Y-99101209D01*
X126212741Y-99109668D01*
X126152525Y-99392965D01*
X126151300Y-99401680D01*
X126131097Y-99690600D01*
X110552500Y-99690600D01*
X110552500Y-96888898D01*
X113001839Y-96888898D01*
X113019473Y-97141071D01*
X113020986Y-97151078D01*
X113078711Y-97397187D01*
X113081805Y-97406824D01*
X113178135Y-97640538D01*
X113182730Y-97649556D01*
X113315187Y-97864862D01*
X113321165Y-97873030D01*
X113486341Y-98064390D01*
X113493548Y-98071497D01*
X113687196Y-98233986D01*
X113695446Y-98239849D01*
X113912580Y-98369287D01*
X113921662Y-98373756D01*
X114156698Y-98466813D01*
X114166377Y-98469772D01*
X114413268Y-98524054D01*
X114423296Y-98525428D01*
X114675690Y-98539539D01*
X114685808Y-98539292D01*
X114937211Y-98512869D01*
X114947160Y-98511007D01*
X115191105Y-98444728D01*
X115200627Y-98441300D01*
X115430838Y-98336873D01*
X115439690Y-98331966D01*
X115650243Y-98192074D01*
X115658196Y-98185815D01*
X115843675Y-98014061D01*
X115850526Y-98006610D01*
X116006158Y-97807411D01*
X116011730Y-97798961D01*
X116133511Y-97577441D01*
X116137660Y-97568209D01*
X116222458Y-97330068D01*
X116225077Y-97320292D01*
X116270770Y-97071332D01*
X116271804Y-97060599D01*
X116274789Y-96775596D01*
X116273980Y-96764844D01*
X116233511Y-96514981D01*
X116231097Y-96505152D01*
X116151304Y-96265287D01*
X116147349Y-96255971D01*
X116030234Y-96031949D01*
X116024841Y-96023384D01*
X115873415Y-95820969D01*
X115866721Y-95813377D01*
X115684881Y-95637776D01*
X115677060Y-95631351D01*
X115469482Y-95487081D01*
X115460735Y-95481990D01*
X115232763Y-95372764D01*
X115223314Y-95369137D01*
X114980810Y-95297765D01*
X114970903Y-95295695D01*
X114720109Y-95264011D01*
X114709997Y-95263552D01*
X114457363Y-95272374D01*
X114447308Y-95273538D01*
X114199335Y-95322639D01*
X114189596Y-95325394D01*
X113952663Y-95413508D01*
X113943490Y-95417786D01*
X113723691Y-95542649D01*
X113715320Y-95548338D01*
X113518313Y-95706737D01*
X113510959Y-95713691D01*
X113341811Y-95901548D01*
X113335663Y-95909589D01*
X113198726Y-96122075D01*
X113193943Y-96130994D01*
X113092739Y-96362639D01*
X113089444Y-96372209D01*
X113026578Y-96617056D01*
X113024855Y-96627030D01*
X113001945Y-96878777D01*
X113001839Y-96888898D01*
X110552500Y-96888898D01*
X110552500Y-92899438D01*
X128440500Y-92899438D01*
X128440500Y-93155562D01*
X128442656Y-93171938D01*
X128508946Y-93419335D01*
X128515267Y-93434595D01*
X128643329Y-93656405D01*
X128653384Y-93669509D01*
X128834491Y-93850616D01*
X128847595Y-93860671D01*
X129069405Y-93988733D01*
X129084665Y-93995054D01*
X129225999Y-94032925D01*
X129251117Y-94055108D01*
X129272760Y-94076752D01*
X129279534Y-94082625D01*
X129297627Y-94096185D01*
X129359272Y-94150628D01*
X129374277Y-94160485D01*
X129398756Y-94171978D01*
X129420394Y-94188195D01*
X129436142Y-94196816D01*
X129513144Y-94225682D01*
X129587765Y-94260717D01*
X129605321Y-94266026D01*
X129630992Y-94269862D01*
X129656797Y-94279536D01*
X129674332Y-94283391D01*
X129768182Y-94290366D01*
X129791208Y-94293807D01*
X129800534Y-94294500D01*
X129823815Y-94294500D01*
X129909336Y-94300855D01*
X129927248Y-94299634D01*
X129951298Y-94294500D01*
X138654598Y-94294500D01*
X138784905Y-94369733D01*
X138800165Y-94376054D01*
X139047562Y-94442344D01*
X139063938Y-94444500D01*
X139320062Y-94444500D01*
X139336438Y-94442344D01*
X139583835Y-94376054D01*
X139599095Y-94369733D01*
X139820905Y-94241671D01*
X139834009Y-94231616D01*
X139864362Y-94201263D01*
X145268136Y-94201263D01*
X145280781Y-94479745D01*
X145281854Y-94488812D01*
X145334569Y-94762551D01*
X145336939Y-94771368D01*
X145428617Y-95034630D01*
X145432236Y-95043013D01*
X145560957Y-95290284D01*
X145565747Y-95298056D01*
X145728814Y-95524155D01*
X145734677Y-95531155D01*
X145928676Y-95731346D01*
X145935488Y-95737425D01*
X146156354Y-95907514D01*
X146163972Y-95912547D01*
X146407077Y-96048971D01*
X146415342Y-96052851D01*
X146675594Y-96152753D01*
X146684333Y-96155400D01*
X146956281Y-96216686D01*
X146965310Y-96218043D01*
X147243256Y-96239430D01*
X147252386Y-96239470D01*
X147530509Y-96220510D01*
X147539550Y-96219231D01*
X147812023Y-96160321D01*
X147820784Y-96157750D01*
X148081898Y-96060123D01*
X148090196Y-96056315D01*
X148334483Y-95922017D01*
X148342145Y-95917051D01*
X148564486Y-95748896D01*
X148571351Y-95742876D01*
X148767089Y-95544386D01*
X148773012Y-95537438D01*
X148938047Y-95312770D01*
X148942905Y-95305040D01*
X149073780Y-95058903D01*
X149077471Y-95050552D01*
X149171443Y-94788099D01*
X149173891Y-94779303D01*
X149229159Y-94505198D01*
X149230381Y-94494430D01*
X149240684Y-94113673D01*
X149240046Y-94102854D01*
X149199681Y-93826161D01*
X149197713Y-93817245D01*
X149118072Y-93550096D01*
X149114838Y-93541557D01*
X148997467Y-93288702D01*
X148993033Y-93280720D01*
X148840389Y-93047457D01*
X148834850Y-93040199D01*
X148650132Y-92831414D01*
X148643604Y-92825031D01*
X148430682Y-92645098D01*
X148423300Y-92639725D01*
X148186633Y-92492412D01*
X148178552Y-92488161D01*
X147923100Y-92376557D01*
X147914490Y-92373516D01*
X147645603Y-92299957D01*
X147636645Y-92298192D01*
X147359953Y-92264218D01*
X147350834Y-92263764D01*
X147072138Y-92270089D01*
X147063049Y-92270956D01*
X146788185Y-92317446D01*
X146779316Y-92319616D01*
X146514041Y-92405297D01*
X146505578Y-92408725D01*
X146255451Y-92531803D01*
X146247572Y-92536416D01*
X146017833Y-92694312D01*
X146010702Y-92700014D01*
X145806161Y-92889422D01*
X145799928Y-92896094D01*
X145624872Y-93113043D01*
X145619667Y-93120545D01*
X145477763Y-93360493D01*
X145473696Y-93368668D01*
X145367915Y-93626586D01*
X145365071Y-93635262D01*
X145297631Y-93905751D01*
X145296069Y-93914746D01*
X145268383Y-94192136D01*
X145268136Y-94201263D01*
X139864362Y-94201263D01*
X140015116Y-94050509D01*
X140025171Y-94037405D01*
X140153233Y-93815595D01*
X140159554Y-93800335D01*
X140225844Y-93552938D01*
X140228000Y-93536562D01*
X140228000Y-93280438D01*
X140225844Y-93264062D01*
X140159554Y-93016665D01*
X140153233Y-93001405D01*
X140025171Y-92779595D01*
X140015116Y-92766491D01*
X139834009Y-92585384D01*
X139820905Y-92575329D01*
X139599095Y-92447267D01*
X139583835Y-92440946D01*
X139336438Y-92374656D01*
X139320062Y-92372500D01*
X139063938Y-92372500D01*
X139047562Y-92374656D01*
X138800165Y-92440946D01*
X138784905Y-92447267D01*
X138654598Y-92522500D01*
X130381208Y-92522500D01*
X130309671Y-92398595D01*
X130299616Y-92385491D01*
X130118509Y-92204384D01*
X130105405Y-92194329D01*
X129883595Y-92066267D01*
X129868335Y-92059946D01*
X129620938Y-91993656D01*
X129604562Y-91991500D01*
X129348438Y-91991500D01*
X129332062Y-91993656D01*
X129084665Y-92059946D01*
X129069405Y-92066267D01*
X128847595Y-92194329D01*
X128834491Y-92204384D01*
X128653384Y-92385491D01*
X128643329Y-92398595D01*
X128515267Y-92620405D01*
X128508946Y-92635665D01*
X128442656Y-92883062D01*
X128440500Y-92899438D01*
X110552500Y-92899438D01*
X110552500Y-86283835D01*
X145140276Y-86283835D01*
X145140276Y-88578824D01*
X145141720Y-88592254D01*
X145207682Y-88895479D01*
X145216312Y-88916313D01*
X145346507Y-89118901D01*
X145358310Y-89132522D01*
X145538596Y-89288741D01*
X145553759Y-89298485D01*
X145770753Y-89397582D01*
X145788046Y-89402660D01*
X145964857Y-89428082D01*
X145973835Y-89428724D01*
X148268824Y-89428724D01*
X148282254Y-89427280D01*
X148585479Y-89361318D01*
X148606313Y-89352688D01*
X148808901Y-89222493D01*
X148822522Y-89210690D01*
X148978741Y-89030404D01*
X148988485Y-89015241D01*
X149087582Y-88798247D01*
X149092660Y-88780954D01*
X149118082Y-88604143D01*
X149118724Y-88595165D01*
X149118724Y-86300176D01*
X149117280Y-86286746D01*
X149051318Y-85983521D01*
X149042688Y-85962687D01*
X148912493Y-85760099D01*
X148900690Y-85746478D01*
X148720404Y-85590259D01*
X148705241Y-85580515D01*
X148488247Y-85481418D01*
X148470954Y-85476340D01*
X148294143Y-85450918D01*
X148285165Y-85450276D01*
X145990176Y-85450276D01*
X145976746Y-85451720D01*
X145673521Y-85517682D01*
X145652687Y-85526312D01*
X145450099Y-85656507D01*
X145436478Y-85668310D01*
X145280259Y-85848596D01*
X145270515Y-85863759D01*
X145171418Y-86080753D01*
X145166340Y-86098046D01*
X145140918Y-86274857D01*
X145140276Y-86283835D01*
X110552500Y-86283835D01*
X110552500Y-84188898D01*
X113001839Y-84188898D01*
X113019473Y-84441071D01*
X113020986Y-84451078D01*
X113078711Y-84697187D01*
X113081805Y-84706824D01*
X113178135Y-84940538D01*
X113182730Y-84949556D01*
X113315187Y-85164862D01*
X113321165Y-85173030D01*
X113486341Y-85364390D01*
X113493548Y-85371497D01*
X113687196Y-85533986D01*
X113695446Y-85539849D01*
X113912580Y-85669287D01*
X113921662Y-85673756D01*
X114156698Y-85766813D01*
X114166377Y-85769772D01*
X114413268Y-85824054D01*
X114423296Y-85825428D01*
X114675690Y-85839539D01*
X114685808Y-85839292D01*
X114937211Y-85812869D01*
X114947160Y-85811007D01*
X115191105Y-85744728D01*
X115200627Y-85741300D01*
X115430838Y-85636873D01*
X115439690Y-85631966D01*
X115650243Y-85492074D01*
X115658196Y-85485815D01*
X115843675Y-85314061D01*
X115850526Y-85306610D01*
X116006158Y-85107411D01*
X116011730Y-85098961D01*
X116133511Y-84877441D01*
X116137660Y-84868209D01*
X116222458Y-84630068D01*
X116225077Y-84620292D01*
X116270770Y-84371332D01*
X116271804Y-84360599D01*
X116272991Y-84247236D01*
X134582156Y-84247236D01*
X134596625Y-84477211D01*
X134598323Y-84488305D01*
X134653288Y-84712083D01*
X134656923Y-84722700D01*
X134750647Y-84933209D01*
X134756105Y-84943016D01*
X134885626Y-85133599D01*
X134892734Y-85142284D01*
X135053958Y-85306919D01*
X135062491Y-85314207D01*
X135250320Y-85447692D01*
X135260011Y-85453354D01*
X135468509Y-85551466D01*
X135479049Y-85555322D01*
X135701627Y-85614962D01*
X135712683Y-85616892D01*
X135942304Y-85636174D01*
X135953527Y-85636115D01*
X136182934Y-85614430D01*
X136193969Y-85612385D01*
X136415910Y-85550417D01*
X136426408Y-85546450D01*
X136633868Y-85446160D01*
X136643498Y-85440397D01*
X136829920Y-85304954D01*
X136838377Y-85297576D01*
X136997868Y-85131261D01*
X137004885Y-85122502D01*
X137132402Y-84930572D01*
X137137758Y-84920709D01*
X137229272Y-84709232D01*
X137232795Y-84698577D01*
X137285604Y-84473431D01*
X137287251Y-84460660D01*
X137295007Y-84164459D01*
X137294031Y-84151621D01*
X137253079Y-83924019D01*
X137250117Y-83913193D01*
X137234762Y-83871903D01*
X145878116Y-83871903D01*
X145885475Y-83985713D01*
X146029354Y-84096514D01*
X146036972Y-84101547D01*
X146280077Y-84237971D01*
X146288342Y-84241851D01*
X146548594Y-84341753D01*
X146557333Y-84344400D01*
X146829281Y-84405686D01*
X146838310Y-84407043D01*
X147116256Y-84428430D01*
X147125386Y-84428470D01*
X147403509Y-84409510D01*
X147412550Y-84408231D01*
X147685023Y-84349321D01*
X147693784Y-84346750D01*
X147954898Y-84249123D01*
X147963196Y-84245315D01*
X148207484Y-84111017D01*
X148215146Y-84106051D01*
X148373175Y-83986533D01*
X148381077Y-83872096D01*
X147181691Y-82672710D01*
X147077309Y-82672710D01*
X145878116Y-83871903D01*
X137234762Y-83871903D01*
X137169795Y-83697216D01*
X137164964Y-83687087D01*
X137047666Y-83488746D01*
X137041117Y-83479632D01*
X136890550Y-83305198D01*
X136882490Y-83297388D01*
X136703412Y-83152374D01*
X136694097Y-83146115D01*
X136492171Y-83035104D01*
X136481894Y-83030593D01*
X136263499Y-82957095D01*
X136252587Y-82954475D01*
X136024629Y-82920813D01*
X136013425Y-82920167D01*
X135783109Y-82927405D01*
X135771968Y-82928754D01*
X135546573Y-82976663D01*
X135535847Y-82979963D01*
X135322499Y-83067029D01*
X135312526Y-83072176D01*
X135117968Y-83195646D01*
X135109064Y-83202478D01*
X134939445Y-83358450D01*
X134931892Y-83366751D01*
X134792574Y-83550295D01*
X134786611Y-83559802D01*
X134681998Y-83765117D01*
X134677812Y-83775530D01*
X134611211Y-83996125D01*
X134608935Y-84007115D01*
X134582450Y-84236017D01*
X134582156Y-84247236D01*
X116272991Y-84247236D01*
X116274789Y-84075596D01*
X116273980Y-84064844D01*
X116233511Y-83814981D01*
X116231097Y-83805152D01*
X116151304Y-83565287D01*
X116147349Y-83555971D01*
X116030234Y-83331949D01*
X116024841Y-83323384D01*
X115873415Y-83120969D01*
X115866721Y-83113377D01*
X115684881Y-82937776D01*
X115677060Y-82931351D01*
X115469482Y-82787081D01*
X115460735Y-82781990D01*
X115232763Y-82672764D01*
X115223314Y-82669137D01*
X114980810Y-82597765D01*
X114970903Y-82595695D01*
X114720109Y-82564011D01*
X114709997Y-82563552D01*
X114457363Y-82572374D01*
X114447308Y-82573538D01*
X114199335Y-82622639D01*
X114189596Y-82625394D01*
X113952663Y-82713508D01*
X113943490Y-82717786D01*
X113723691Y-82842649D01*
X113715320Y-82848338D01*
X113518313Y-83006737D01*
X113510959Y-83013691D01*
X113341811Y-83201548D01*
X113335663Y-83209589D01*
X113198726Y-83422075D01*
X113193943Y-83430994D01*
X113092739Y-83662639D01*
X113089444Y-83672209D01*
X113026578Y-83917056D01*
X113024855Y-83927030D01*
X113001945Y-84178777D01*
X113001839Y-84188898D01*
X110552500Y-84188898D01*
X110552500Y-81974100D01*
X126067597Y-81974100D01*
X126067597Y-81982900D01*
X126087800Y-82271820D01*
X126089025Y-82280535D01*
X126149241Y-82563832D01*
X126151667Y-82572291D01*
X126250726Y-82844450D01*
X126254305Y-82852489D01*
X126390275Y-83108214D01*
X126394939Y-83115677D01*
X126565177Y-83349990D01*
X126570834Y-83356731D01*
X126772025Y-83565070D01*
X126778564Y-83570958D01*
X127006793Y-83749270D01*
X127014088Y-83754191D01*
X127264911Y-83899004D01*
X127272821Y-83902862D01*
X127541358Y-84011358D01*
X127549728Y-84014078D01*
X127830750Y-84084144D01*
X127839416Y-84085672D01*
X128127456Y-84115947D01*
X128136251Y-84116254D01*
X128425701Y-84106146D01*
X128434453Y-84105226D01*
X128719678Y-84054933D01*
X128728216Y-84052804D01*
X129003668Y-83963304D01*
X129011827Y-83960008D01*
X129272141Y-83833044D01*
X129279763Y-83828644D01*
X129519873Y-83666687D01*
X129526808Y-83661269D01*
X129742041Y-83467472D01*
X129748154Y-83461142D01*
X129934323Y-83239276D01*
X129939495Y-83232156D01*
X130092974Y-82986539D01*
X130097105Y-82978769D01*
X130214906Y-82714182D01*
X130217916Y-82705913D01*
X130297748Y-82427507D01*
X130299577Y-82418899D01*
X130339886Y-82132092D01*
X130340500Y-82123313D01*
X130340500Y-81833687D01*
X130339886Y-81824908D01*
X130323348Y-81707236D01*
X132042156Y-81707236D01*
X132056625Y-81937211D01*
X132058323Y-81948305D01*
X132113288Y-82172083D01*
X132116923Y-82182700D01*
X132210647Y-82393209D01*
X132216105Y-82403016D01*
X132345626Y-82593599D01*
X132352734Y-82602284D01*
X132513958Y-82766919D01*
X132522491Y-82774207D01*
X132710320Y-82907692D01*
X132720011Y-82913354D01*
X132928509Y-83011466D01*
X132939049Y-83015322D01*
X133161627Y-83074962D01*
X133172683Y-83076892D01*
X133402304Y-83096174D01*
X133413527Y-83096115D01*
X133642934Y-83074430D01*
X133653969Y-83072385D01*
X133875910Y-83010417D01*
X133886408Y-83006450D01*
X134093868Y-82906160D01*
X134103498Y-82900397D01*
X134289920Y-82764954D01*
X134298377Y-82757576D01*
X134457868Y-82591261D01*
X134464885Y-82582502D01*
X134592402Y-82390572D01*
X134597758Y-82380709D01*
X134689272Y-82169232D01*
X134692795Y-82158577D01*
X134745604Y-81933431D01*
X134747251Y-81920660D01*
X134752839Y-81707236D01*
X137122156Y-81707236D01*
X137136625Y-81937211D01*
X137138323Y-81948305D01*
X137193288Y-82172083D01*
X137196923Y-82182700D01*
X137290647Y-82393209D01*
X137296105Y-82403016D01*
X137425626Y-82593599D01*
X137432734Y-82602284D01*
X137593958Y-82766919D01*
X137602491Y-82774207D01*
X137790320Y-82907692D01*
X137800011Y-82913354D01*
X138008509Y-83011466D01*
X138019049Y-83015322D01*
X138241627Y-83074962D01*
X138252683Y-83076892D01*
X138482304Y-83096174D01*
X138493527Y-83096115D01*
X138722934Y-83074430D01*
X138733969Y-83072385D01*
X138955910Y-83010417D01*
X138966408Y-83006450D01*
X139173868Y-82906160D01*
X139183498Y-82900397D01*
X139369920Y-82764954D01*
X139378377Y-82757576D01*
X139537868Y-82591261D01*
X139544885Y-82582502D01*
X139672402Y-82390572D01*
X139672569Y-82390263D01*
X145141136Y-82390263D01*
X145153781Y-82668745D01*
X145154854Y-82677812D01*
X145207569Y-82951551D01*
X145209939Y-82960368D01*
X145301617Y-83223630D01*
X145305236Y-83232013D01*
X145433957Y-83479284D01*
X145438747Y-83487056D01*
X145579861Y-83682716D01*
X145695926Y-83692054D01*
X146896290Y-82491691D01*
X146896290Y-82387309D01*
X147362710Y-82387309D01*
X147362710Y-82491691D01*
X148562616Y-83691597D01*
X148678056Y-83682815D01*
X148811047Y-83501770D01*
X148815905Y-83494040D01*
X148946780Y-83247903D01*
X148950471Y-83239552D01*
X149044443Y-82977099D01*
X149046891Y-82968303D01*
X149102159Y-82694198D01*
X149103381Y-82683430D01*
X149113684Y-82302673D01*
X149113046Y-82291854D01*
X149072681Y-82015161D01*
X149070713Y-82006245D01*
X148991072Y-81739096D01*
X148987838Y-81730557D01*
X148870466Y-81477702D01*
X148866033Y-81469720D01*
X148686410Y-81195229D01*
X148567117Y-81182902D01*
X147362710Y-82387309D01*
X146896290Y-82387309D01*
X145697125Y-81188144D01*
X145584955Y-81194121D01*
X145497872Y-81302043D01*
X145492667Y-81309545D01*
X145350763Y-81549493D01*
X145346696Y-81557668D01*
X145240915Y-81815586D01*
X145238071Y-81824262D01*
X145170631Y-82094751D01*
X145169069Y-82103746D01*
X145141383Y-82381136D01*
X145141136Y-82390263D01*
X139672569Y-82390263D01*
X139677758Y-82380709D01*
X139769272Y-82169232D01*
X139772795Y-82158577D01*
X139825604Y-81933431D01*
X139827251Y-81920660D01*
X139835007Y-81624459D01*
X139834031Y-81611621D01*
X139793079Y-81384019D01*
X139790117Y-81373193D01*
X139709795Y-81157216D01*
X139704964Y-81147087D01*
X139620495Y-81004256D01*
X145875275Y-81004256D01*
X147077309Y-82206290D01*
X147181691Y-82206290D01*
X148381506Y-81006475D01*
X148376875Y-80895952D01*
X148303683Y-80834099D01*
X148296300Y-80828725D01*
X148059633Y-80681412D01*
X148051552Y-80677161D01*
X147796100Y-80565557D01*
X147787490Y-80562516D01*
X147518603Y-80488957D01*
X147509645Y-80487192D01*
X147232953Y-80453218D01*
X147223834Y-80452764D01*
X146945138Y-80459089D01*
X146936049Y-80459956D01*
X146661185Y-80506446D01*
X146652316Y-80508616D01*
X146387041Y-80594297D01*
X146378578Y-80597725D01*
X146128451Y-80720803D01*
X146120572Y-80725416D01*
X145886088Y-80886572D01*
X145875275Y-81004256D01*
X139620495Y-81004256D01*
X139587666Y-80948746D01*
X139581117Y-80939632D01*
X139430550Y-80765198D01*
X139422490Y-80757388D01*
X139243412Y-80612374D01*
X139234097Y-80606115D01*
X139032171Y-80495104D01*
X139021894Y-80490593D01*
X138803499Y-80417095D01*
X138792587Y-80414475D01*
X138564629Y-80380813D01*
X138553425Y-80380167D01*
X138323109Y-80387405D01*
X138311968Y-80388754D01*
X138086573Y-80436663D01*
X138075847Y-80439963D01*
X137862499Y-80527029D01*
X137852526Y-80532176D01*
X137657968Y-80655646D01*
X137649064Y-80662478D01*
X137479445Y-80818450D01*
X137471892Y-80826751D01*
X137332574Y-81010295D01*
X137326611Y-81019802D01*
X137221998Y-81225117D01*
X137217812Y-81235530D01*
X137151211Y-81456125D01*
X137148935Y-81467115D01*
X137122450Y-81696017D01*
X137122156Y-81707236D01*
X134752839Y-81707236D01*
X134755007Y-81624459D01*
X134754031Y-81611621D01*
X134713079Y-81384019D01*
X134710117Y-81373193D01*
X134629795Y-81157216D01*
X134624964Y-81147087D01*
X134507666Y-80948746D01*
X134501117Y-80939632D01*
X134350550Y-80765198D01*
X134342490Y-80757388D01*
X134163412Y-80612374D01*
X134154097Y-80606115D01*
X133952171Y-80495104D01*
X133941894Y-80490593D01*
X133723499Y-80417095D01*
X133712587Y-80414475D01*
X133484629Y-80380813D01*
X133473425Y-80380167D01*
X133243109Y-80387405D01*
X133231968Y-80388754D01*
X133006573Y-80436663D01*
X132995847Y-80439963D01*
X132782499Y-80527029D01*
X132772526Y-80532176D01*
X132577968Y-80655646D01*
X132569064Y-80662478D01*
X132399445Y-80818450D01*
X132391892Y-80826751D01*
X132252574Y-81010295D01*
X132246611Y-81019802D01*
X132141998Y-81225117D01*
X132137812Y-81235530D01*
X132071211Y-81456125D01*
X132068935Y-81467115D01*
X132042450Y-81696017D01*
X132042156Y-81707236D01*
X130323348Y-81707236D01*
X130299577Y-81538101D01*
X130297748Y-81529493D01*
X130217916Y-81251087D01*
X130214906Y-81242818D01*
X130097105Y-80978231D01*
X130092974Y-80970461D01*
X129939495Y-80724844D01*
X129934323Y-80717724D01*
X129748154Y-80495858D01*
X129742041Y-80489528D01*
X129526808Y-80295731D01*
X129519873Y-80290313D01*
X129279763Y-80128356D01*
X129272141Y-80123956D01*
X129011827Y-79996992D01*
X129003668Y-79993696D01*
X128728216Y-79904196D01*
X128719678Y-79902067D01*
X128434453Y-79851774D01*
X128425701Y-79850854D01*
X128136251Y-79840746D01*
X128127456Y-79841053D01*
X127839416Y-79871328D01*
X127830750Y-79872856D01*
X127549728Y-79942922D01*
X127541358Y-79945642D01*
X127272821Y-80054138D01*
X127264911Y-80057996D01*
X127014088Y-80202809D01*
X127006793Y-80207730D01*
X126778564Y-80386042D01*
X126772025Y-80391930D01*
X126570834Y-80600269D01*
X126565177Y-80607010D01*
X126394939Y-80841323D01*
X126390275Y-80848786D01*
X126254305Y-81104511D01*
X126250726Y-81112550D01*
X126151667Y-81384709D01*
X126149241Y-81393168D01*
X126089025Y-81676465D01*
X126087800Y-81685180D01*
X126067597Y-81974100D01*
X110552500Y-81974100D01*
X110552500Y-79247000D01*
X153099501Y-79247000D01*
X153099500Y-102490000D01*
%TA.AperFunction,Conductor*%
G36*
X153099500Y-102490000D02*
G01*
X110552500Y-102490000D01*
X110552500Y-99690600D01*
X126131097Y-99690600D01*
X126131097Y-99699400D01*
X126151300Y-99988320D01*
X126152525Y-99997035D01*
X126212741Y-100280332D01*
X126215167Y-100288791D01*
X126314226Y-100560950D01*
X126317805Y-100568989D01*
X126453775Y-100824714D01*
X126458439Y-100832177D01*
X126628677Y-101066490D01*
X126634334Y-101073231D01*
X126835525Y-101281570D01*
X126842064Y-101287458D01*
X127070293Y-101465770D01*
X127077588Y-101470691D01*
X127328411Y-101615504D01*
X127336321Y-101619362D01*
X127604858Y-101727858D01*
X127613228Y-101730578D01*
X127894250Y-101800644D01*
X127902916Y-101802172D01*
X128190956Y-101832447D01*
X128199751Y-101832754D01*
X128489201Y-101822646D01*
X128497953Y-101821726D01*
X128783178Y-101771433D01*
X128791716Y-101769304D01*
X129067168Y-101679804D01*
X129075327Y-101676508D01*
X129335641Y-101549544D01*
X129343263Y-101545144D01*
X129583373Y-101383187D01*
X129590308Y-101377769D01*
X129805541Y-101183972D01*
X129811654Y-101177642D01*
X129997823Y-100955776D01*
X130002995Y-100948656D01*
X130156474Y-100703039D01*
X130160605Y-100695269D01*
X130278406Y-100430682D01*
X130281416Y-100422413D01*
X130361248Y-100144007D01*
X130363077Y-100135399D01*
X130403386Y-99848592D01*
X130404000Y-99839813D01*
X130404000Y-99550187D01*
X130403386Y-99541408D01*
X130363077Y-99254601D01*
X130361248Y-99245993D01*
X130281416Y-98967587D01*
X130278406Y-98959318D01*
X130160605Y-98694731D01*
X130156474Y-98686961D01*
X130002995Y-98441344D01*
X129997823Y-98434224D01*
X129811654Y-98212358D01*
X129805541Y-98206028D01*
X129682049Y-98094835D01*
X145267276Y-98094835D01*
X145267276Y-100389824D01*
X145268720Y-100403254D01*
X145334682Y-100706479D01*
X145343312Y-100727313D01*
X145473507Y-100929901D01*
X145485310Y-100943522D01*
X145665596Y-101099741D01*
X145680759Y-101109485D01*
X145897753Y-101208582D01*
X145915046Y-101213660D01*
X146091857Y-101239082D01*
X146100835Y-101239724D01*
X148395824Y-101239724D01*
X148409254Y-101238280D01*
X148712479Y-101172318D01*
X148733313Y-101163688D01*
X148935901Y-101033493D01*
X148949522Y-101021690D01*
X149105741Y-100841404D01*
X149115485Y-100826241D01*
X149214582Y-100609247D01*
X149219660Y-100591954D01*
X149245082Y-100415143D01*
X149245724Y-100406165D01*
X149245724Y-98111176D01*
X149244280Y-98097746D01*
X149178318Y-97794521D01*
X149169688Y-97773687D01*
X149039493Y-97571099D01*
X149027690Y-97557478D01*
X148847404Y-97401259D01*
X148832241Y-97391515D01*
X148615247Y-97292418D01*
X148597954Y-97287340D01*
X148421143Y-97261918D01*
X148412165Y-97261276D01*
X146117176Y-97261276D01*
X146103746Y-97262720D01*
X145800521Y-97328682D01*
X145779687Y-97337312D01*
X145577099Y-97467507D01*
X145563478Y-97479310D01*
X145407259Y-97659596D01*
X145397515Y-97674759D01*
X145298418Y-97891753D01*
X145293340Y-97909046D01*
X145267918Y-98085857D01*
X145267276Y-98094835D01*
X129682049Y-98094835D01*
X129590308Y-98012231D01*
X129583373Y-98006813D01*
X129343263Y-97844856D01*
X129335641Y-97840456D01*
X129075327Y-97713492D01*
X129067168Y-97710196D01*
X128791716Y-97620696D01*
X128783178Y-97618567D01*
X128497953Y-97568274D01*
X128489201Y-97567354D01*
X128199751Y-97557246D01*
X128190956Y-97557553D01*
X127902916Y-97587828D01*
X127894250Y-97589356D01*
X127613228Y-97659422D01*
X127604858Y-97662142D01*
X127336321Y-97770638D01*
X127328411Y-97774496D01*
X127077588Y-97919309D01*
X127070293Y-97924230D01*
X126842064Y-98102542D01*
X126835525Y-98108430D01*
X126634334Y-98316769D01*
X126628677Y-98323510D01*
X126458439Y-98557823D01*
X126453775Y-98565286D01*
X126317805Y-98821011D01*
X126314226Y-98829050D01*
X126215167Y-99101209D01*
X126212741Y-99109668D01*
X126152525Y-99392965D01*
X126151300Y-99401680D01*
X126131097Y-99690600D01*
X110552500Y-99690600D01*
X110552500Y-96888898D01*
X113001839Y-96888898D01*
X113019473Y-97141071D01*
X113020986Y-97151078D01*
X113078711Y-97397187D01*
X113081805Y-97406824D01*
X113178135Y-97640538D01*
X113182730Y-97649556D01*
X113315187Y-97864862D01*
X113321165Y-97873030D01*
X113486341Y-98064390D01*
X113493548Y-98071497D01*
X113687196Y-98233986D01*
X113695446Y-98239849D01*
X113912580Y-98369287D01*
X113921662Y-98373756D01*
X114156698Y-98466813D01*
X114166377Y-98469772D01*
X114413268Y-98524054D01*
X114423296Y-98525428D01*
X114675690Y-98539539D01*
X114685808Y-98539292D01*
X114937211Y-98512869D01*
X114947160Y-98511007D01*
X115191105Y-98444728D01*
X115200627Y-98441300D01*
X115430838Y-98336873D01*
X115439690Y-98331966D01*
X115650243Y-98192074D01*
X115658196Y-98185815D01*
X115843675Y-98014061D01*
X115850526Y-98006610D01*
X116006158Y-97807411D01*
X116011730Y-97798961D01*
X116133511Y-97577441D01*
X116137660Y-97568209D01*
X116222458Y-97330068D01*
X116225077Y-97320292D01*
X116270770Y-97071332D01*
X116271804Y-97060599D01*
X116274789Y-96775596D01*
X116273980Y-96764844D01*
X116233511Y-96514981D01*
X116231097Y-96505152D01*
X116151304Y-96265287D01*
X116147349Y-96255971D01*
X116030234Y-96031949D01*
X116024841Y-96023384D01*
X115873415Y-95820969D01*
X115866721Y-95813377D01*
X115684881Y-95637776D01*
X115677060Y-95631351D01*
X115469482Y-95487081D01*
X115460735Y-95481990D01*
X115232763Y-95372764D01*
X115223314Y-95369137D01*
X114980810Y-95297765D01*
X114970903Y-95295695D01*
X114720109Y-95264011D01*
X114709997Y-95263552D01*
X114457363Y-95272374D01*
X114447308Y-95273538D01*
X114199335Y-95322639D01*
X114189596Y-95325394D01*
X113952663Y-95413508D01*
X113943490Y-95417786D01*
X113723691Y-95542649D01*
X113715320Y-95548338D01*
X113518313Y-95706737D01*
X113510959Y-95713691D01*
X113341811Y-95901548D01*
X113335663Y-95909589D01*
X113198726Y-96122075D01*
X113193943Y-96130994D01*
X113092739Y-96362639D01*
X113089444Y-96372209D01*
X113026578Y-96617056D01*
X113024855Y-96627030D01*
X113001945Y-96878777D01*
X113001839Y-96888898D01*
X110552500Y-96888898D01*
X110552500Y-92899438D01*
X128440500Y-92899438D01*
X128440500Y-93155562D01*
X128442656Y-93171938D01*
X128508946Y-93419335D01*
X128515267Y-93434595D01*
X128643329Y-93656405D01*
X128653384Y-93669509D01*
X128834491Y-93850616D01*
X128847595Y-93860671D01*
X129069405Y-93988733D01*
X129084665Y-93995054D01*
X129225999Y-94032925D01*
X129251117Y-94055108D01*
X129272760Y-94076752D01*
X129279534Y-94082625D01*
X129297627Y-94096185D01*
X129359272Y-94150628D01*
X129374277Y-94160485D01*
X129398756Y-94171978D01*
X129420394Y-94188195D01*
X129436142Y-94196816D01*
X129513144Y-94225682D01*
X129587765Y-94260717D01*
X129605321Y-94266026D01*
X129630992Y-94269862D01*
X129656797Y-94279536D01*
X129674332Y-94283391D01*
X129768182Y-94290366D01*
X129791208Y-94293807D01*
X129800534Y-94294500D01*
X129823815Y-94294500D01*
X129909336Y-94300855D01*
X129927248Y-94299634D01*
X129951298Y-94294500D01*
X138654598Y-94294500D01*
X138784905Y-94369733D01*
X138800165Y-94376054D01*
X139047562Y-94442344D01*
X139063938Y-94444500D01*
X139320062Y-94444500D01*
X139336438Y-94442344D01*
X139583835Y-94376054D01*
X139599095Y-94369733D01*
X139820905Y-94241671D01*
X139834009Y-94231616D01*
X139864362Y-94201263D01*
X145268136Y-94201263D01*
X145280781Y-94479745D01*
X145281854Y-94488812D01*
X145334569Y-94762551D01*
X145336939Y-94771368D01*
X145428617Y-95034630D01*
X145432236Y-95043013D01*
X145560957Y-95290284D01*
X145565747Y-95298056D01*
X145728814Y-95524155D01*
X145734677Y-95531155D01*
X145928676Y-95731346D01*
X145935488Y-95737425D01*
X146156354Y-95907514D01*
X146163972Y-95912547D01*
X146407077Y-96048971D01*
X146415342Y-96052851D01*
X146675594Y-96152753D01*
X146684333Y-96155400D01*
X146956281Y-96216686D01*
X146965310Y-96218043D01*
X147243256Y-96239430D01*
X147252386Y-96239470D01*
X147530509Y-96220510D01*
X147539550Y-96219231D01*
X147812023Y-96160321D01*
X147820784Y-96157750D01*
X148081898Y-96060123D01*
X148090196Y-96056315D01*
X148334483Y-95922017D01*
X148342145Y-95917051D01*
X148564486Y-95748896D01*
X148571351Y-95742876D01*
X148767089Y-95544386D01*
X148773012Y-95537438D01*
X148938047Y-95312770D01*
X148942905Y-95305040D01*
X149073780Y-95058903D01*
X149077471Y-95050552D01*
X149171443Y-94788099D01*
X149173891Y-94779303D01*
X149229159Y-94505198D01*
X149230381Y-94494430D01*
X149240684Y-94113673D01*
X149240046Y-94102854D01*
X149199681Y-93826161D01*
X149197713Y-93817245D01*
X149118072Y-93550096D01*
X149114838Y-93541557D01*
X148997467Y-93288702D01*
X148993033Y-93280720D01*
X148840389Y-93047457D01*
X148834850Y-93040199D01*
X148650132Y-92831414D01*
X148643604Y-92825031D01*
X148430682Y-92645098D01*
X148423300Y-92639725D01*
X148186633Y-92492412D01*
X148178552Y-92488161D01*
X147923100Y-92376557D01*
X147914490Y-92373516D01*
X147645603Y-92299957D01*
X147636645Y-92298192D01*
X147359953Y-92264218D01*
X147350834Y-92263764D01*
X147072138Y-92270089D01*
X147063049Y-92270956D01*
X146788185Y-92317446D01*
X146779316Y-92319616D01*
X146514041Y-92405297D01*
X146505578Y-92408725D01*
X146255451Y-92531803D01*
X146247572Y-92536416D01*
X146017833Y-92694312D01*
X146010702Y-92700014D01*
X145806161Y-92889422D01*
X145799928Y-92896094D01*
X145624872Y-93113043D01*
X145619667Y-93120545D01*
X145477763Y-93360493D01*
X145473696Y-93368668D01*
X145367915Y-93626586D01*
X145365071Y-93635262D01*
X145297631Y-93905751D01*
X145296069Y-93914746D01*
X145268383Y-94192136D01*
X145268136Y-94201263D01*
X139864362Y-94201263D01*
X140015116Y-94050509D01*
X140025171Y-94037405D01*
X140153233Y-93815595D01*
X140159554Y-93800335D01*
X140225844Y-93552938D01*
X140228000Y-93536562D01*
X140228000Y-93280438D01*
X140225844Y-93264062D01*
X140159554Y-93016665D01*
X140153233Y-93001405D01*
X140025171Y-92779595D01*
X140015116Y-92766491D01*
X139834009Y-92585384D01*
X139820905Y-92575329D01*
X139599095Y-92447267D01*
X139583835Y-92440946D01*
X139336438Y-92374656D01*
X139320062Y-92372500D01*
X139063938Y-92372500D01*
X139047562Y-92374656D01*
X138800165Y-92440946D01*
X138784905Y-92447267D01*
X138654598Y-92522500D01*
X130381208Y-92522500D01*
X130309671Y-92398595D01*
X130299616Y-92385491D01*
X130118509Y-92204384D01*
X130105405Y-92194329D01*
X129883595Y-92066267D01*
X129868335Y-92059946D01*
X129620938Y-91993656D01*
X129604562Y-91991500D01*
X129348438Y-91991500D01*
X129332062Y-91993656D01*
X129084665Y-92059946D01*
X129069405Y-92066267D01*
X128847595Y-92194329D01*
X128834491Y-92204384D01*
X128653384Y-92385491D01*
X128643329Y-92398595D01*
X128515267Y-92620405D01*
X128508946Y-92635665D01*
X128442656Y-92883062D01*
X128440500Y-92899438D01*
X110552500Y-92899438D01*
X110552500Y-86283835D01*
X145140276Y-86283835D01*
X145140276Y-88578824D01*
X145141720Y-88592254D01*
X145207682Y-88895479D01*
X145216312Y-88916313D01*
X145346507Y-89118901D01*
X145358310Y-89132522D01*
X145538596Y-89288741D01*
X145553759Y-89298485D01*
X145770753Y-89397582D01*
X145788046Y-89402660D01*
X145964857Y-89428082D01*
X145973835Y-89428724D01*
X148268824Y-89428724D01*
X148282254Y-89427280D01*
X148585479Y-89361318D01*
X148606313Y-89352688D01*
X148808901Y-89222493D01*
X148822522Y-89210690D01*
X148978741Y-89030404D01*
X148988485Y-89015241D01*
X149087582Y-88798247D01*
X149092660Y-88780954D01*
X149118082Y-88604143D01*
X149118724Y-88595165D01*
X149118724Y-86300176D01*
X149117280Y-86286746D01*
X149051318Y-85983521D01*
X149042688Y-85962687D01*
X148912493Y-85760099D01*
X148900690Y-85746478D01*
X148720404Y-85590259D01*
X148705241Y-85580515D01*
X148488247Y-85481418D01*
X148470954Y-85476340D01*
X148294143Y-85450918D01*
X148285165Y-85450276D01*
X145990176Y-85450276D01*
X145976746Y-85451720D01*
X145673521Y-85517682D01*
X145652687Y-85526312D01*
X145450099Y-85656507D01*
X145436478Y-85668310D01*
X145280259Y-85848596D01*
X145270515Y-85863759D01*
X145171418Y-86080753D01*
X145166340Y-86098046D01*
X145140918Y-86274857D01*
X145140276Y-86283835D01*
X110552500Y-86283835D01*
X110552500Y-84188898D01*
X113001839Y-84188898D01*
X113019473Y-84441071D01*
X113020986Y-84451078D01*
X113078711Y-84697187D01*
X113081805Y-84706824D01*
X113178135Y-84940538D01*
X113182730Y-84949556D01*
X113315187Y-85164862D01*
X113321165Y-85173030D01*
X113486341Y-85364390D01*
X113493548Y-85371497D01*
X113687196Y-85533986D01*
X113695446Y-85539849D01*
X113912580Y-85669287D01*
X113921662Y-85673756D01*
X114156698Y-85766813D01*
X114166377Y-85769772D01*
X114413268Y-85824054D01*
X114423296Y-85825428D01*
X114675690Y-85839539D01*
X114685808Y-85839292D01*
X114937211Y-85812869D01*
X114947160Y-85811007D01*
X115191105Y-85744728D01*
X115200627Y-85741300D01*
X115430838Y-85636873D01*
X115439690Y-85631966D01*
X115650243Y-85492074D01*
X115658196Y-85485815D01*
X115843675Y-85314061D01*
X115850526Y-85306610D01*
X116006158Y-85107411D01*
X116011730Y-85098961D01*
X116133511Y-84877441D01*
X116137660Y-84868209D01*
X116222458Y-84630068D01*
X116225077Y-84620292D01*
X116270770Y-84371332D01*
X116271804Y-84360599D01*
X116272991Y-84247236D01*
X134582156Y-84247236D01*
X134596625Y-84477211D01*
X134598323Y-84488305D01*
X134653288Y-84712083D01*
X134656923Y-84722700D01*
X134750647Y-84933209D01*
X134756105Y-84943016D01*
X134885626Y-85133599D01*
X134892734Y-85142284D01*
X135053958Y-85306919D01*
X135062491Y-85314207D01*
X135250320Y-85447692D01*
X135260011Y-85453354D01*
X135468509Y-85551466D01*
X135479049Y-85555322D01*
X135701627Y-85614962D01*
X135712683Y-85616892D01*
X135942304Y-85636174D01*
X135953527Y-85636115D01*
X136182934Y-85614430D01*
X136193969Y-85612385D01*
X136415910Y-85550417D01*
X136426408Y-85546450D01*
X136633868Y-85446160D01*
X136643498Y-85440397D01*
X136829920Y-85304954D01*
X136838377Y-85297576D01*
X136997868Y-85131261D01*
X137004885Y-85122502D01*
X137132402Y-84930572D01*
X137137758Y-84920709D01*
X137229272Y-84709232D01*
X137232795Y-84698577D01*
X137285604Y-84473431D01*
X137287251Y-84460660D01*
X137295007Y-84164459D01*
X137294031Y-84151621D01*
X137253079Y-83924019D01*
X137250117Y-83913193D01*
X137234762Y-83871903D01*
X145878116Y-83871903D01*
X145885475Y-83985713D01*
X146029354Y-84096514D01*
X146036972Y-84101547D01*
X146280077Y-84237971D01*
X146288342Y-84241851D01*
X146548594Y-84341753D01*
X146557333Y-84344400D01*
X146829281Y-84405686D01*
X146838310Y-84407043D01*
X147116256Y-84428430D01*
X147125386Y-84428470D01*
X147403509Y-84409510D01*
X147412550Y-84408231D01*
X147685023Y-84349321D01*
X147693784Y-84346750D01*
X147954898Y-84249123D01*
X147963196Y-84245315D01*
X148207484Y-84111017D01*
X148215146Y-84106051D01*
X148373175Y-83986533D01*
X148381077Y-83872096D01*
X147181691Y-82672710D01*
X147077309Y-82672710D01*
X145878116Y-83871903D01*
X137234762Y-83871903D01*
X137169795Y-83697216D01*
X137164964Y-83687087D01*
X137047666Y-83488746D01*
X137041117Y-83479632D01*
X136890550Y-83305198D01*
X136882490Y-83297388D01*
X136703412Y-83152374D01*
X136694097Y-83146115D01*
X136492171Y-83035104D01*
X136481894Y-83030593D01*
X136263499Y-82957095D01*
X136252587Y-82954475D01*
X136024629Y-82920813D01*
X136013425Y-82920167D01*
X135783109Y-82927405D01*
X135771968Y-82928754D01*
X135546573Y-82976663D01*
X135535847Y-82979963D01*
X135322499Y-83067029D01*
X135312526Y-83072176D01*
X135117968Y-83195646D01*
X135109064Y-83202478D01*
X134939445Y-83358450D01*
X134931892Y-83366751D01*
X134792574Y-83550295D01*
X134786611Y-83559802D01*
X134681998Y-83765117D01*
X134677812Y-83775530D01*
X134611211Y-83996125D01*
X134608935Y-84007115D01*
X134582450Y-84236017D01*
X134582156Y-84247236D01*
X116272991Y-84247236D01*
X116274789Y-84075596D01*
X116273980Y-84064844D01*
X116233511Y-83814981D01*
X116231097Y-83805152D01*
X116151304Y-83565287D01*
X116147349Y-83555971D01*
X116030234Y-83331949D01*
X116024841Y-83323384D01*
X115873415Y-83120969D01*
X115866721Y-83113377D01*
X115684881Y-82937776D01*
X115677060Y-82931351D01*
X115469482Y-82787081D01*
X115460735Y-82781990D01*
X115232763Y-82672764D01*
X115223314Y-82669137D01*
X114980810Y-82597765D01*
X114970903Y-82595695D01*
X114720109Y-82564011D01*
X114709997Y-82563552D01*
X114457363Y-82572374D01*
X114447308Y-82573538D01*
X114199335Y-82622639D01*
X114189596Y-82625394D01*
X113952663Y-82713508D01*
X113943490Y-82717786D01*
X113723691Y-82842649D01*
X113715320Y-82848338D01*
X113518313Y-83006737D01*
X113510959Y-83013691D01*
X113341811Y-83201548D01*
X113335663Y-83209589D01*
X113198726Y-83422075D01*
X113193943Y-83430994D01*
X113092739Y-83662639D01*
X113089444Y-83672209D01*
X113026578Y-83917056D01*
X113024855Y-83927030D01*
X113001945Y-84178777D01*
X113001839Y-84188898D01*
X110552500Y-84188898D01*
X110552500Y-81974100D01*
X126067597Y-81974100D01*
X126067597Y-81982900D01*
X126087800Y-82271820D01*
X126089025Y-82280535D01*
X126149241Y-82563832D01*
X126151667Y-82572291D01*
X126250726Y-82844450D01*
X126254305Y-82852489D01*
X126390275Y-83108214D01*
X126394939Y-83115677D01*
X126565177Y-83349990D01*
X126570834Y-83356731D01*
X126772025Y-83565070D01*
X126778564Y-83570958D01*
X127006793Y-83749270D01*
X127014088Y-83754191D01*
X127264911Y-83899004D01*
X127272821Y-83902862D01*
X127541358Y-84011358D01*
X127549728Y-84014078D01*
X127830750Y-84084144D01*
X127839416Y-84085672D01*
X128127456Y-84115947D01*
X128136251Y-84116254D01*
X128425701Y-84106146D01*
X128434453Y-84105226D01*
X128719678Y-84054933D01*
X128728216Y-84052804D01*
X129003668Y-83963304D01*
X129011827Y-83960008D01*
X129272141Y-83833044D01*
X129279763Y-83828644D01*
X129519873Y-83666687D01*
X129526808Y-83661269D01*
X129742041Y-83467472D01*
X129748154Y-83461142D01*
X129934323Y-83239276D01*
X129939495Y-83232156D01*
X130092974Y-82986539D01*
X130097105Y-82978769D01*
X130214906Y-82714182D01*
X130217916Y-82705913D01*
X130297748Y-82427507D01*
X130299577Y-82418899D01*
X130339886Y-82132092D01*
X130340500Y-82123313D01*
X130340500Y-81833687D01*
X130339886Y-81824908D01*
X130323348Y-81707236D01*
X132042156Y-81707236D01*
X132056625Y-81937211D01*
X132058323Y-81948305D01*
X132113288Y-82172083D01*
X132116923Y-82182700D01*
X132210647Y-82393209D01*
X132216105Y-82403016D01*
X132345626Y-82593599D01*
X132352734Y-82602284D01*
X132513958Y-82766919D01*
X132522491Y-82774207D01*
X132710320Y-82907692D01*
X132720011Y-82913354D01*
X132928509Y-83011466D01*
X132939049Y-83015322D01*
X133161627Y-83074962D01*
X133172683Y-83076892D01*
X133402304Y-83096174D01*
X133413527Y-83096115D01*
X133642934Y-83074430D01*
X133653969Y-83072385D01*
X133875910Y-83010417D01*
X133886408Y-83006450D01*
X134093868Y-82906160D01*
X134103498Y-82900397D01*
X134289920Y-82764954D01*
X134298377Y-82757576D01*
X134457868Y-82591261D01*
X134464885Y-82582502D01*
X134592402Y-82390572D01*
X134597758Y-82380709D01*
X134689272Y-82169232D01*
X134692795Y-82158577D01*
X134745604Y-81933431D01*
X134747251Y-81920660D01*
X134752839Y-81707236D01*
X137122156Y-81707236D01*
X137136625Y-81937211D01*
X137138323Y-81948305D01*
X137193288Y-82172083D01*
X137196923Y-82182700D01*
X137290647Y-82393209D01*
X137296105Y-82403016D01*
X137425626Y-82593599D01*
X137432734Y-82602284D01*
X137593958Y-82766919D01*
X137602491Y-82774207D01*
X137790320Y-82907692D01*
X137800011Y-82913354D01*
X138008509Y-83011466D01*
X138019049Y-83015322D01*
X138241627Y-83074962D01*
X138252683Y-83076892D01*
X138482304Y-83096174D01*
X138493527Y-83096115D01*
X138722934Y-83074430D01*
X138733969Y-83072385D01*
X138955910Y-83010417D01*
X138966408Y-83006450D01*
X139173868Y-82906160D01*
X139183498Y-82900397D01*
X139369920Y-82764954D01*
X139378377Y-82757576D01*
X139537868Y-82591261D01*
X139544885Y-82582502D01*
X139672402Y-82390572D01*
X139672569Y-82390263D01*
X145141136Y-82390263D01*
X145153781Y-82668745D01*
X145154854Y-82677812D01*
X145207569Y-82951551D01*
X145209939Y-82960368D01*
X145301617Y-83223630D01*
X145305236Y-83232013D01*
X145433957Y-83479284D01*
X145438747Y-83487056D01*
X145579861Y-83682716D01*
X145695926Y-83692054D01*
X146896290Y-82491691D01*
X146896290Y-82387309D01*
X147362710Y-82387309D01*
X147362710Y-82491691D01*
X148562616Y-83691597D01*
X148678056Y-83682815D01*
X148811047Y-83501770D01*
X148815905Y-83494040D01*
X148946780Y-83247903D01*
X148950471Y-83239552D01*
X149044443Y-82977099D01*
X149046891Y-82968303D01*
X149102159Y-82694198D01*
X149103381Y-82683430D01*
X149113684Y-82302673D01*
X149113046Y-82291854D01*
X149072681Y-82015161D01*
X149070713Y-82006245D01*
X148991072Y-81739096D01*
X148987838Y-81730557D01*
X148870466Y-81477702D01*
X148866033Y-81469720D01*
X148686410Y-81195229D01*
X148567117Y-81182902D01*
X147362710Y-82387309D01*
X146896290Y-82387309D01*
X145697125Y-81188144D01*
X145584955Y-81194121D01*
X145497872Y-81302043D01*
X145492667Y-81309545D01*
X145350763Y-81549493D01*
X145346696Y-81557668D01*
X145240915Y-81815586D01*
X145238071Y-81824262D01*
X145170631Y-82094751D01*
X145169069Y-82103746D01*
X145141383Y-82381136D01*
X145141136Y-82390263D01*
X139672569Y-82390263D01*
X139677758Y-82380709D01*
X139769272Y-82169232D01*
X139772795Y-82158577D01*
X139825604Y-81933431D01*
X139827251Y-81920660D01*
X139835007Y-81624459D01*
X139834031Y-81611621D01*
X139793079Y-81384019D01*
X139790117Y-81373193D01*
X139709795Y-81157216D01*
X139704964Y-81147087D01*
X139620495Y-81004256D01*
X145875275Y-81004256D01*
X147077309Y-82206290D01*
X147181691Y-82206290D01*
X148381506Y-81006475D01*
X148376875Y-80895952D01*
X148303683Y-80834099D01*
X148296300Y-80828725D01*
X148059633Y-80681412D01*
X148051552Y-80677161D01*
X147796100Y-80565557D01*
X147787490Y-80562516D01*
X147518603Y-80488957D01*
X147509645Y-80487192D01*
X147232953Y-80453218D01*
X147223834Y-80452764D01*
X146945138Y-80459089D01*
X146936049Y-80459956D01*
X146661185Y-80506446D01*
X146652316Y-80508616D01*
X146387041Y-80594297D01*
X146378578Y-80597725D01*
X146128451Y-80720803D01*
X146120572Y-80725416D01*
X145886088Y-80886572D01*
X145875275Y-81004256D01*
X139620495Y-81004256D01*
X139587666Y-80948746D01*
X139581117Y-80939632D01*
X139430550Y-80765198D01*
X139422490Y-80757388D01*
X139243412Y-80612374D01*
X139234097Y-80606115D01*
X139032171Y-80495104D01*
X139021894Y-80490593D01*
X138803499Y-80417095D01*
X138792587Y-80414475D01*
X138564629Y-80380813D01*
X138553425Y-80380167D01*
X138323109Y-80387405D01*
X138311968Y-80388754D01*
X138086573Y-80436663D01*
X138075847Y-80439963D01*
X137862499Y-80527029D01*
X137852526Y-80532176D01*
X137657968Y-80655646D01*
X137649064Y-80662478D01*
X137479445Y-80818450D01*
X137471892Y-80826751D01*
X137332574Y-81010295D01*
X137326611Y-81019802D01*
X137221998Y-81225117D01*
X137217812Y-81235530D01*
X137151211Y-81456125D01*
X137148935Y-81467115D01*
X137122450Y-81696017D01*
X137122156Y-81707236D01*
X134752839Y-81707236D01*
X134755007Y-81624459D01*
X134754031Y-81611621D01*
X134713079Y-81384019D01*
X134710117Y-81373193D01*
X134629795Y-81157216D01*
X134624964Y-81147087D01*
X134507666Y-80948746D01*
X134501117Y-80939632D01*
X134350550Y-80765198D01*
X134342490Y-80757388D01*
X134163412Y-80612374D01*
X134154097Y-80606115D01*
X133952171Y-80495104D01*
X133941894Y-80490593D01*
X133723499Y-80417095D01*
X133712587Y-80414475D01*
X133484629Y-80380813D01*
X133473425Y-80380167D01*
X133243109Y-80387405D01*
X133231968Y-80388754D01*
X133006573Y-80436663D01*
X132995847Y-80439963D01*
X132782499Y-80527029D01*
X132772526Y-80532176D01*
X132577968Y-80655646D01*
X132569064Y-80662478D01*
X132399445Y-80818450D01*
X132391892Y-80826751D01*
X132252574Y-81010295D01*
X132246611Y-81019802D01*
X132141998Y-81225117D01*
X132137812Y-81235530D01*
X132071211Y-81456125D01*
X132068935Y-81467115D01*
X132042450Y-81696017D01*
X132042156Y-81707236D01*
X130323348Y-81707236D01*
X130299577Y-81538101D01*
X130297748Y-81529493D01*
X130217916Y-81251087D01*
X130214906Y-81242818D01*
X130097105Y-80978231D01*
X130092974Y-80970461D01*
X129939495Y-80724844D01*
X129934323Y-80717724D01*
X129748154Y-80495858D01*
X129742041Y-80489528D01*
X129526808Y-80295731D01*
X129519873Y-80290313D01*
X129279763Y-80128356D01*
X129272141Y-80123956D01*
X129011827Y-79996992D01*
X129003668Y-79993696D01*
X128728216Y-79904196D01*
X128719678Y-79902067D01*
X128434453Y-79851774D01*
X128425701Y-79850854D01*
X128136251Y-79840746D01*
X128127456Y-79841053D01*
X127839416Y-79871328D01*
X127830750Y-79872856D01*
X127549728Y-79942922D01*
X127541358Y-79945642D01*
X127272821Y-80054138D01*
X127264911Y-80057996D01*
X127014088Y-80202809D01*
X127006793Y-80207730D01*
X126778564Y-80386042D01*
X126772025Y-80391930D01*
X126570834Y-80600269D01*
X126565177Y-80607010D01*
X126394939Y-80841323D01*
X126390275Y-80848786D01*
X126254305Y-81104511D01*
X126250726Y-81112550D01*
X126151667Y-81384709D01*
X126149241Y-81393168D01*
X126089025Y-81676465D01*
X126087800Y-81685180D01*
X126067597Y-81974100D01*
X110552500Y-81974100D01*
X110552500Y-79247000D01*
X153099501Y-79247000D01*
X153099500Y-102490000D01*
G37*
%TD.AperFunction*%
%TD*%
M02*
